<svg width="215" height="214" viewBox="0 0 215 214" fill="none" xmlns="http://www.w3.org/2000/svg">
<g clip-path="url(#clip0_320_95)">
<path d="M120.39 45.7895V45.8186L120.391 45.8476L121.168 59.1955C121.155 59.7478 120.681 60.24 120.037 60.24C119.393 60.24 118.919 59.7478 118.906 59.1955L119.683 45.8476L119.684 45.8186V45.7895C119.684 45.645 119.814 45.4768 120.037 45.4768C120.26 45.4768 120.39 45.645 120.39 45.7895Z" fill="#87796F" stroke="#3A312A" stroke-width="2"/>
<path d="M34.6618 39.273C34.4703 37.9535 34.3186 36.5043 34.2155 34.9652C34.1103 33.3946 34.0535 31.7367 34.0535 30.0339C34.0535 26.9346 34.2383 24.0232 34.559 21.5384C34.8973 18.916 35.3887 16.7645 35.9768 15.3526L35.9761 15.3476C36.1907 14.833 36.455 14.9073 36.6462 15.4546C37.2159 16.8671 37.6922 18.9781 38.0225 21.5385C38.343 24.0234 38.528 26.9347 38.528 30.0339C38.528 31.7369 38.4712 33.3947 38.366 34.9652C38.2577 36.5809 38.0961 38.0975 37.8908 39.4689L37.373 38.2792L37.8927 39.4739C37.7791 40.2322 37.5742 40.6505 37.3648 40.6401H35.2085C34.9664 40.6401 34.7576 40.0803 34.6618 39.273Z" fill="#87796F"/>
<path d="M51.3704 163.254H200.737C202.568 163.254 204 164.687 204 166.391V209.831C204 211.535 202.568 212.968 200.737 212.968H51.3638C51.3639 204.683 51.3655 196.397 51.3671 188.111C51.3687 179.826 51.3703 171.54 51.3704 163.254ZM110.11 189.604C108.701 188.236 106.757 187.394 104.618 187.394C102.48 187.394 100.536 188.237 99.1269 189.604C97.717 190.973 96.8369 192.872 96.8369 194.975C96.8369 197.078 97.717 198.978 99.1269 200.346C100.536 201.714 102.48 202.557 104.618 202.557C106.757 202.557 108.701 201.714 110.11 200.346C111.52 198.978 112.4 197.078 112.4 194.975C112.4 192.872 111.52 190.973 110.11 189.604ZM126.782 173.807C125.373 172.439 123.429 171.597 121.291 171.597C119.152 171.597 117.208 172.439 115.799 173.807C114.389 175.175 113.509 177.075 113.509 179.178C113.509 181.281 114.389 183.181 115.799 184.549C117.208 185.917 119.152 186.759 121.291 186.759C123.429 186.759 125.373 185.917 126.782 184.549C128.192 183.181 129.072 181.281 129.072 179.178C129.072 177.075 128.192 175.175 126.782 173.807ZM143.454 189.604C142.045 188.237 140.101 187.394 137.963 187.394C135.824 187.394 133.881 188.236 132.471 189.604C131.061 190.973 130.181 192.872 130.181 194.975C130.181 197.078 131.061 198.978 132.471 200.346C133.881 201.714 135.824 202.557 137.963 202.557C140.101 202.557 142.045 201.714 143.454 200.346C144.864 198.978 145.744 197.078 145.744 194.975C145.744 192.872 144.864 190.973 143.454 189.604Z" fill="#87796F" stroke="#3A312A" stroke-width="2"/>
<path d="M29.2937 48.3729L29.2829 48.3532L29.2703 48.3346C28.3974 47.036 27.7075 45.6103 27.2384 44.0973L27.2384 44.0972C26.7588 42.5511 26.5 40.9198 26.5 39.2448C26.5 36.195 27.3423 33.3311 28.802 30.8865L28.802 30.8864C30.3423 28.3065 32.5801 26.19 35.2574 24.8014L35.4132 24.7206C36.2307 24.3665 37.2012 24.4509 37.9056 24.8863L37.9188 24.8944L37.9324 24.9017C40.5259 26.291 42.6941 28.3677 44.1979 30.8866C45.6574 33.3313 46.5 36.1952 46.5 39.2448C46.5 40.92 46.2412 42.5512 45.7616 44.0972L45.7616 44.0972C45.3122 45.5466 44.6604 46.9156 43.8391 48.1696L41.8038 47.1592L41.8016 47.158L41.8015 47.158L41.3567 48.0536L41.3568 48.0537L43.195 48.9668C42.7578 49.3111 42.1675 49.5065 41.5464 49.4998V49.4998H41.5411H31.4208C30.4425 49.4998 29.6441 49.0113 29.2937 48.3729Z" fill="#FAE6CA" stroke="#3A312A"/>
<path d="M123.222 59.7414L123.222 59.7414L123.223 59.7495C123.557 63.4683 126.339 66.8002 130.063 69.9006C133.813 73.0225 138.762 76.1024 143.841 79.263L143.883 79.2892L144.411 78.4402L143.883 79.2893C147.75 81.6957 151.697 84.1524 155.476 86.8389C164.317 93.123 171.724 100.193 174.22 109.277C176.698 118.297 174.408 129.609 163.118 144.568C162.06 145.968 160.011 146.283 158.551 145.245L158.345 145.098L158.095 145.067C150.613 144.136 135.689 144.078 120.636 144.277C111.683 144.395 102.583 144.607 94.9497 144.785C89.7774 144.905 85.2787 145.01 81.9561 145.06L81.6449 145.064L81.3913 145.245C79.9313 146.283 77.882 145.968 76.8242 144.568C65.534 129.609 63.2437 118.296 65.7223 109.277C68.2186 100.193 75.6248 93.123 84.466 86.8389C88.2456 84.1524 92.1921 81.6957 96.059 79.2893L95.5307 78.4402L96.059 79.2892L96.1016 79.2628C101.18 76.1022 106.129 73.0224 109.879 69.9006C113.603 66.8002 116.386 63.4683 116.719 59.7495L116.719 59.7495L116.72 59.7414C116.737 59.5284 116.777 59.321 116.837 59.1212L116.838 59.1173L116.839 59.1124L116.859 59.0497L116.861 59.0446L116.865 59.0331L116.876 58.9996L116.879 58.9909L116.893 58.952L116.895 58.9452L116.896 58.9423L116.897 58.9396L116.921 58.8766L116.923 58.8716C117.393 57.6848 118.558 56.8831 119.941 56.8538C121.338 56.8516 122.542 57.6668 123.019 58.8716L123.02 58.8746L123.045 58.9401L123.048 58.9474L123.063 58.9909L123.066 58.9993L123.078 59.0332L123.081 59.0448L123.083 59.0497L123.103 59.112L123.104 59.1163L123.105 59.1217C123.165 59.3209 123.205 59.5281 123.222 59.7414Z" fill="#D6DF58" stroke="#3A312A" stroke-width="2"/>
<path d="M25.3371 119.847H47.2459C49.0765 119.847 50.509 121.279 50.509 122.984V197.953V209.863V213H47.2459H40.5102H25.3371C23.5065 213 22.074 211.567 22.074 209.863V122.984C22.074 121.279 23.5065 119.847 25.3371 119.847Z" fill="#FAE6CA" stroke="#3A312A" stroke-width="2"/>
<path d="M45.3531 113.84H27.2289C25.3984 113.84 23.9658 112.407 23.9658 110.703V83.8117C23.9658 82.1073 25.3984 80.6746 27.2289 80.6746H45.3531C47.1836 80.6746 48.6162 82.1073 48.6162 83.8117V110.703C48.6162 112.407 47.1836 113.84 45.3531 113.84Z" fill="#FAE6CA" stroke="#3A312A" stroke-width="2"/>
<path d="M19.4234 126.251H19.4145L19.4055 126.252C17.9255 126.278 16.5908 125.332 16.1975 123.932L15.9624 123.998L15.962 123.997L16.2138 123.927L12.8309 111.886L12.8181 111.84L12.8009 111.796C12.6695 111.456 12.5974 111.088 12.5974 110.703C12.5974 108.999 14.03 107.566 15.8605 107.566H56.6458H56.6542L56.6625 107.566C56.9667 107.561 57.2771 107.596 57.5864 107.678L57.5865 107.678C59.23 108.113 60.2026 109.661 59.942 111.204L59.8543 111.516L56.4701 123.561L56.4572 123.607L56.4487 123.654C56.1866 125.108 54.8647 126.251 53.2337 126.251H19.4234Z" fill="#87796F" stroke="#3A312A" stroke-width="2"/>
<path d="M171.934 143.939L171.953 143.979L171.974 144.018L180.321 158.803L180.473 159.073C181.111 160.523 180.532 162.247 179.045 163.038C178.532 163.31 177.977 163.436 177.429 163.43V163.429H177.417H65.2846C63.4541 163.429 62.0215 161.997 62.0215 160.292C62.0215 159.655 62.2183 159.063 62.5594 158.567L62.5844 158.53L62.606 158.492L70.8158 143.949L74.1328 142.052H168.941C170.292 142.052 171.436 142.838 171.934 143.939Z" fill="#F16C7A" stroke="#3A312A" stroke-width="2"/>
<path d="M26.1145 47.9399C28.7358 46.1454 32.4096 45 36.4999 45H36.5001C40.5904 45 44.2641 46.1454 46.8855 47.9399C49.5125 49.7386 51 52.1184 51 54.6117V63.968C51 64.3792 50.7573 64.8627 50.1379 65.2868C49.5233 65.7076 48.6189 66 47.5714 66H25.4286C24.3811 66 23.4767 65.7076 22.8621 65.2868C22.2427 64.8627 22 64.3792 22 63.968V54.6117C22 52.1184 23.4874 49.7386 26.1145 47.9399ZM26.1145 47.9399L25.5496 47.1148L26.1145 47.9399Z" fill="#FAE6CA" stroke="#3A312A" stroke-width="2"/>
<path d="M22.0682 86.9155H22.0607L22.0533 86.9156C20.8484 86.9337 19.712 86.266 19.1116 85.1781L19.2338 85.1484L18.77 83.203L18.5455 83.2555L15.8259 71.2082L15.8185 71.1751L15.8088 71.1427C15.7134 70.8228 15.6616 70.4821 15.6616 70.1269C15.6616 68.1991 17.179 66.6797 18.9976 66.6797H54.2188H54.2264L54.234 66.6796C54.4972 66.6756 54.7651 66.7035 55.0337 66.7673L55.0339 66.7674C56.7322 67.1707 57.8541 68.8662 57.5839 70.6535L57.5265 70.9077L54.5808 83.9565L54.5734 83.9893L54.5682 84.0224C54.3091 85.6813 52.9157 86.9155 51.2753 86.9155H22.0682Z" fill="#87796F" stroke="#3A312A" stroke-width="2"/>
<path d="M118.038 31.9335C117.411 31.7297 116.696 31.7657 116.071 32.0874C114.679 32.8039 113.549 33.8434 112.764 35.0733C111.977 36.3082 111.541 37.722 111.541 39.1824C111.541 41.4293 112.534 43.4641 114.138 44.937C115.742 46.4097 117.959 47.3209 120.407 47.3209C122.091 47.3209 123.713 46.8721 125.106 46.0708C126.497 45.2707 127.644 44.1239 128.382 42.7258C128.815 41.9023 128.636 40.9531 128.011 40.3113C126.918 42.6603 124.378 44.3068 121.42 44.3068C117.464 44.3068 114.256 41.3627 114.256 37.7311C114.256 35.2225 115.787 33.0422 118.038 31.9335Z" fill="#87796F"/>
</g>
<defs>
<clipPath id="clip0_320_95">
<rect width="215" height="214" fill="white"/>
</clipPath>
</defs>
</svg>
