<svg width="1452" height="1540" viewBox="0 0 1452 1540" fill="none" xmlns="http://www.w3.org/2000/svg">
<path d="M818.154 238.154V238.323L818.164 238.492L824 341.812C823.92 347.265 819.473 351.662 814 351.662C808.528 351.662 804.081 347.265 804.001 341.812L809.837 238.492L809.847 238.323V238.154C809.847 235.86 811.707 234 814 234C816.294 234 818.154 235.86 818.154 238.154Z" fill="#87796F" stroke="#3A312A" stroke-width="12"/>
<path d="M179.092 187.063L179.083 186.988L179.073 186.913C177.659 176.871 176.534 165.811 175.769 154.04L175.769 154.04C174.988 142.023 174.565 129.33 174.565 116.286C174.565 92.5323 175.941 70.2643 178.314 51.3195L178.314 51.3192C180.153 36.6315 182.576 24.1083 185.359 14.4462C188.144 24.1146 190.567 36.6392 192.405 51.3204C194.777 70.2656 196.154 92.5337 196.154 116.286C196.154 129.331 195.731 142.024 194.95 154.04L194.95 154.04C194.344 163.35 193.515 172.213 192.495 180.48L187.956 182.397L187.956 182.398L191.181 190.038C191.007 190.962 190.823 191.72 190.646 192.324H180.074C179.709 191.077 179.35 189.305 179.092 187.063Z" fill="#87796F" stroke="#3A312A" stroke-width="12"/>
<path d="M297.05 1145H1419.77C1434.13 1145 1445.77 1156.64 1445.77 1171V1507C1445.77 1521.36 1434.13 1533 1419.77 1533H297C297.001 1468.34 297.013 1403.67 297.025 1339.01V1339C297.037 1274.34 297.049 1209.67 297.05 1145ZM738.498 1351.86C728.206 1341.57 713.971 1335.19 698.26 1335.19C682.549 1335.19 668.315 1341.57 658.023 1351.86C647.732 1362.15 641.354 1376.39 641.354 1392.1C641.354 1407.81 647.732 1422.04 658.023 1432.33C668.315 1442.62 682.549 1449 698.26 1449C713.971 1449 728.206 1442.62 738.498 1432.33C748.789 1422.04 755.167 1407.81 755.167 1392.1C755.167 1376.39 748.789 1362.15 738.498 1351.86ZM863.646 1229.67C853.354 1219.38 839.12 1213 823.409 1213C807.698 1213 793.464 1219.38 783.172 1229.67C772.881 1239.96 766.504 1254.2 766.504 1269.91C766.504 1285.62 772.881 1299.85 783.172 1310.14C793.464 1320.43 807.698 1326.81 823.409 1326.81C839.12 1326.81 853.354 1320.43 863.646 1310.14C873.937 1299.85 880.314 1285.62 880.314 1269.91C880.314 1254.2 873.937 1239.96 863.646 1229.67ZM988.795 1351.86C978.503 1341.57 964.269 1335.19 948.558 1335.19C932.847 1335.19 918.612 1341.57 908.32 1351.86C898.029 1362.15 891.651 1376.39 891.651 1392.1C891.651 1407.81 898.029 1422.04 908.32 1432.33C918.612 1442.62 932.847 1449 948.558 1449C964.269 1449 978.503 1442.62 988.795 1432.33C999.086 1422.04 1005.46 1407.81 1005.46 1392.1C1005.46 1376.39 999.086 1362.15 988.795 1351.86Z" fill="#87796F" stroke="#3A312A" stroke-width="12"/>
<path d="M141.43 249.22L141.325 248.996L141.203 248.781C135.655 239.033 131.258 228.309 128.265 216.905L128.264 216.905C125.203 205.245 123.548 192.933 123.548 180.285C123.548 157.243 128.938 135.653 138.226 117.28L138.226 117.28C148.028 97.8887 162.196 82.1256 178.981 71.8427L179.883 71.2904C184.058 69.2018 188.966 69.7103 192.597 72.3613L192.758 72.4791L192.927 72.5858C209.193 82.8773 222.922 98.3489 232.492 117.281C241.778 135.654 247.17 157.245 247.17 180.285C247.17 192.935 245.515 205.246 242.454 216.905L242.454 216.905C239.843 226.847 236.167 236.272 231.592 244.983L221.207 238.893L221.197 238.887L221.196 238.886L215.125 249.237L215.126 249.238L224.35 254.65C222.427 255.771 220.226 256.352 217.991 256.324L217.953 256.323H217.915H152.557C147.638 256.323 143.385 253.427 141.43 249.22Z" fill="#8AC6DD" stroke="#3A312A" stroke-width="12"/>
<path d="M839.406 345.915L839.408 345.939L839.41 345.962C841.846 373.923 862.214 399.293 890.154 423.261C918.223 447.338 955.301 471.116 993.475 495.596L993.724 495.755L996.963 490.705L993.724 495.755C1022.74 514.365 1052.41 533.391 1080.82 554.203C1147.22 602.833 1203.25 657.809 1222.16 728.718C1240.98 799.286 1223.44 887.389 1138.53 1003.31C1130.07 1014.86 1113.84 1017.36 1102.3 1008.9L1101.05 1007.98L1099.51 1007.78C1043.46 1000.6 931.536 1000.14 818.513 1001.68C751.277 1002.59 683.028 1004.23 625.762 1005.61C586.934 1006.54 553.155 1007.35 528.164 1007.73L526.252 1007.76L524.709 1008.9C513.162 1017.36 496.937 1014.86 488.471 1003.31C403.565 887.388 386.027 799.286 404.846 728.718C423.756 657.808 479.785 602.833 546.182 554.203C574.597 533.391 604.259 514.365 633.28 495.755L630.041 490.705L633.28 495.755L633.531 495.595C671.705 471.115 708.783 447.338 736.851 423.26C764.791 399.293 785.159 373.923 787.595 345.962L787.597 345.939L787.599 345.915C787.74 344.133 788.061 342.399 788.546 340.729L788.549 340.718L788.553 340.706L788.569 340.651L788.725 340.14L788.734 340.11L788.77 339.994L788.868 339.7L788.886 339.649L789.001 339.314L789.021 339.257L789.027 339.241L789.051 339.174L789.234 338.677L789.24 338.662L789.246 338.647C793.057 328.73 802.407 322.232 813.26 322C824.236 321.978 833.891 328.582 837.759 338.647L837.762 338.656L837.766 338.665L837.766 338.666L837.956 339.179L837.978 339.241L837.983 339.256L838.005 339.318L838.119 339.649L838.136 339.698L838.235 339.994L838.271 340.111L838.28 340.14L838.436 340.649L838.45 340.7L838.455 340.716L838.46 340.732C838.944 342.398 839.265 344.131 839.406 345.915Z" fill="#D6DF58" stroke="#3A312A" stroke-width="12"/>
<path d="M103.13 809.247H267.588C281.948 809.247 293.589 820.888 293.589 835.247V1415.13V1507.25V1533.25H267.588H217.027H103.131C88.7716 1533.25 77.1299 1521.61 77.1299 1507.25V835.247C77.1299 820.888 88.7713 809.247 103.13 809.247Z" fill="#8AC6DD" stroke="#3A312A" stroke-width="12"/>
<path d="M253.384 766.257H117.336C102.977 766.257 91.335 754.615 91.335 740.256V532.255C91.335 517.896 102.977 506.254 117.336 506.254H253.384C267.743 506.254 279.385 517.896 279.385 532.255V740.256C279.385 754.615 267.743 766.257 253.384 766.257Z" fill="#8AC6DD" stroke="#3A312A" stroke-width="12"/>
<path d="M58.7457 862.257H58.6902L58.6347 862.258C48.4494 862.446 38.9523 856.586 34.6098 847.248L35.1262 846.929L35.1526 846.913L33.3473 843.971C33.2576 843.682 33.1725 843.39 33.0922 843.095L32.8502 843.161L32.8454 843.154L33.2151 843.053L7.82137 749.918L7.74811 749.649L7.65027 749.389C6.58603 746.552 6 743.478 6 740.256C6 725.897 17.6417 714.255 32.0008 714.255H338.154H338.205L338.257 714.254C340.66 714.213 343.112 714.505 345.556 715.171L345.557 715.172C358.559 718.717 366.553 731.525 364.364 744.539L363.676 747.061L338.273 840.229L338.2 840.498L338.151 840.773C336.016 852.978 325.355 862.257 312.541 862.257H58.7457Z" fill="#87796F" stroke="#3A312A" stroke-width="12"/>
<path d="M467.351 981.002L467.388 981.002H467.425H1181.09C1191.72 981.002 1200.88 987.386 1204.91 996.555L1205.01 996.794L1205.14 997.023L1267.79 1111.39L1268.98 1113.55C1274.23 1125.73 1269.44 1140.13 1257.58 1146.63C1253.51 1148.86 1249.12 1149.88 1244.79 1149.83L1244.76 1149.82H1244.72H403.001C388.642 1149.82 377 1138.18 377 1123.82C377 1118.49 378.602 1113.54 381.35 1109.42L381.494 1109.21L381.62 1108.98L441.386 999.884L464.117 1012.26L464.13 1012.27L469.883 1001.74L469.87 1001.73L447.691 989.583C452.746 983.971 459.964 980.911 467.351 981.002Z" fill="#87796F" stroke="#3A312A" stroke-width="12"/>
<path d="M109.806 256.715C129.238 242.812 156.371 234 186.5 234H186.501C216.629 234 243.761 242.812 263.194 256.714C282.643 270.63 294 289.296 294 309.202V380.799C294 384.769 291.761 388.926 287.01 392.325C282.271 395.715 275.417 398 267.571 398H105.429C97.583 398 90.7292 395.715 85.9897 392.325C81.2392 388.926 79 384.769 79 380.799V309.202C79 289.296 90.3573 270.63 109.806 256.715ZM109.806 256.715L106.329 251.854L109.806 256.715Z" fill="#8AC6DD" stroke="#3A312A" stroke-width="12"/>
<mask id="path-11-inside-1_313_961" fill="white">
<path d="M297.839 563.996H78.5973C63.605 564.227 49.9668 553.422 46.4469 537.356L55.5479 535.077L46.4974 537.257L24.4175 436.47C23.4961 433.285 23 429.906 23 426.403C23 407.406 37.573 392.004 55.5479 392.004H319.934C322.52 391.963 325.154 392.246 327.787 392.891C345.298 397.176 356.208 415.654 352.154 434.161L352.086 434.145L329.973 535.077C327.489 551.469 314.049 563.996 297.839 563.996Z"/>
</mask>
<path d="M297.839 563.996H78.5973C63.605 564.227 49.9668 553.422 46.4469 537.356L55.5479 535.077L46.4974 537.257L24.4175 436.47C23.4961 433.285 23 429.906 23 426.403C23 407.406 37.573 392.004 55.5479 392.004H319.934C322.52 391.963 325.154 392.246 327.787 392.891C345.298 397.176 356.208 415.654 352.154 434.161L352.086 434.145L329.973 535.077C327.489 551.469 314.049 563.996 297.839 563.996Z" fill="#87796F"/>
<path d="M78.5973 563.996V551.996H78.5048L78.4123 551.998L78.5973 563.996ZM46.4469 537.356L43.5319 525.715L32.2319 528.545L34.725 539.924L46.4469 537.356ZM55.5479 535.077L58.4629 546.717L52.7378 523.411L55.5479 535.077ZM46.4974 537.257L34.7754 539.825L37.3971 551.792L49.3074 548.923L46.4974 537.257ZM24.4175 436.47L36.1395 433.902L36.0548 433.515L35.9446 433.134L24.4175 436.47ZM319.934 392.004V404.004H320.028L320.123 404.002L319.934 392.004ZM327.787 392.891L324.932 404.547L324.935 404.547L327.787 392.891ZM352.154 434.161L349.348 445.829L361.255 448.692L363.876 436.729L352.154 434.161ZM352.086 434.145L354.892 422.478L342.984 419.614L340.364 431.577L352.086 434.145ZM329.973 535.077L318.251 532.509L318.168 532.892L318.109 533.279L329.973 535.077ZM297.839 551.996H78.5973V575.996H297.839V551.996ZM78.4123 551.998C69.4469 552.136 60.5372 545.598 58.1689 534.788L34.725 539.924C39.3964 561.246 57.7631 576.319 78.7822 575.995L78.4123 551.998ZM49.362 548.997L58.4629 546.717L52.6329 523.436L43.5319 525.715L49.362 548.997ZM52.7378 523.411L43.6873 525.591L49.3074 548.923L58.358 546.743L52.7378 523.411ZM58.2194 534.689L36.1395 433.902L12.6955 439.038L34.7754 539.825L58.2194 534.689ZM35.9446 433.134C35.3345 431.026 35 428.769 35 426.403H11C11 431.043 11.6577 435.545 12.8904 439.805L35.9446 433.134ZM35 426.403C35 413.399 44.8171 404.004 55.5479 404.004V380.004C30.3288 380.004 11 401.412 11 426.403H35ZM55.5479 404.004H319.934V380.004H55.5479V404.004ZM320.123 404.002C321.701 403.978 323.311 404.15 324.932 404.547L330.642 381.236C326.996 380.343 323.34 379.949 319.746 380.005L320.123 404.002ZM324.935 404.547C335.6 407.157 343.21 418.914 340.432 431.593L363.876 436.729C369.207 412.395 354.997 387.195 330.639 381.235L324.935 404.547ZM354.96 422.494L354.892 422.478L349.28 445.812L349.348 445.829L354.96 422.494ZM340.364 431.577L318.251 532.509L341.695 537.645L363.808 436.713L340.364 431.577ZM318.109 533.279C316.424 544.394 307.539 551.996 297.839 551.996V575.996C320.559 575.996 338.554 558.544 341.838 536.875L318.109 533.279Z" fill="#3A312A" mask="url(#path-11-inside-1_313_961)"/>
<path d="M765.613 165.046C770.816 156.162 778.31 148.654 787.533 143.479C791.221 141.411 795.394 141.016 799.177 142.05C784.536 150.371 774.658 166.107 774.658 184.153C774.658 210.882 796.327 232.551 823.057 232.551C842.76 232.551 859.711 220.776 867.262 203.881C870.897 208.388 871.841 214.759 869.158 220.317C864.266 230.414 856.659 238.697 847.437 244.477C838.197 250.266 827.443 253.507 816.282 253.507C800.053 253.507 785.357 246.925 774.718 236.288C764.081 225.649 757.5 210.953 757.5 194.725C757.5 184.178 760.39 173.967 765.613 165.046Z" fill="#87796F" stroke="black"/>
</svg>
