<?xml version="1.0" encoding="utf-8"?>
<!-- Generator: Adobe Illustrator 22.0.0, SVG Export Plug-In . SVG Version: 6.00 Build 0)  -->
<svg version="1.1" xmlns="http://www.w3.org/2000/svg" xmlns:xlink="http://www.w3.org/1999/xlink" x="0px" y="0px"
	 viewBox="0 0 256 256" style="enable-background:new 0 0 256 256;" xml:space="preserve">
<style type="text/css">
	.st0{display:none;}
	.st1{display:inline;}
	.st2{fill:none;stroke:#6B1D1D;stroke-width:0.5;stroke-miterlimit:10;}
	.st3{fill:#3A312A;}
	.st4{fill:#87796F;}
	.st5{fill:#D5DE58;}
	.st6{fill:#695B51;}
	.st7{fill:#FCE8CB;}
	.st8{fill:#F16C7A;}
	.st9{fill:#8AC6DD;}
	.st10{fill:#DECAAD;}
	.st11{fill:#D6DF58;}
	.st12{fill-rule:evenodd;clip-rule:evenodd;fill:#FCE8CB;}
	.st13{fill:#F5978A;}
	.st14{fill:#D7E057;}
	.st15{fill-rule:evenodd;clip-rule:evenodd;fill:#87796F;}
	.st16{fill:#6CA8BF;}
	.st17{fill:#B9C239;}
	.st18{fill:#D34E5C;}
	.st19{fill:#FAE6CA;}
	.st20{fill:#F8E4C8;}
	.st21{fill:#8AC5DC;}
	.st22{fill:#EF6D7A;}
	.st23{fill:#EB6E7A;}
	.st24{fill:#89C4DB;}
	.st25{fill-rule:evenodd;clip-rule:evenodd;fill:#F16C7A;}
	.st26{fill:#F7E3C7;}
	.st27{fill:#F6E2C6;}
	.st28{fill:#ED6E7A;}
	.st29{fill:#8AC3DA;}
	.st30{fill:#D5DC57;}
	.st31{fill-rule:evenodd;clip-rule:evenodd;fill:#D7E057;}
	.st32{fill-rule:evenodd;clip-rule:evenodd;fill:#F8E4C8;}
	.st33{fill:#D4DB56;}
	.st34{fill:#F59689;}
	.st35{fill:#DDC9AC;}
	.st36{fill:#D24E5C;}
	.st37{fill:#6A5C52;}
	.st38{fill:#6CA6BE;}
	.st39{fill:#B8C136;}
	.st40{fill-rule:evenodd;clip-rule:evenodd;fill:#FAE6CA;}
</style>
<g id="Layer_2" class="st0">
	<g class="st1">
		<g>
			<line class="st2" x1="0" y1="4.829" x2="256" y2="4.829"/>
			<line class="st2" x1="0" y1="16.56" x2="256" y2="16.56"/>
			<line class="st2" x1="0" y1="28.29" x2="256" y2="28.29"/>
			<line class="st2" x1="0" y1="40.021" x2="256" y2="40.021"/>
			<line class="st2" x1="0" y1="51.751" x2="256" y2="51.751"/>
			<line class="st2" x1="0" y1="63.482" x2="256" y2="63.482"/>
			<line class="st2" x1="0" y1="75.213" x2="256" y2="75.213"/>
			<line class="st2" x1="0" y1="86.943" x2="256" y2="86.943"/>
			<line class="st2" x1="0" y1="98.674" x2="256" y2="98.674"/>
			<line class="st2" x1="0" y1="110.404" x2="256" y2="110.404"/>
			<line class="st2" x1="0" y1="122.135" x2="256" y2="122.135"/>
			<line class="st2" x1="0" y1="133.865" x2="256" y2="133.865"/>
			<line class="st2" x1="0" y1="145.596" x2="256" y2="145.596"/>
			<line class="st2" x1="0" y1="157.326" x2="256" y2="157.326"/>
			<line class="st2" x1="0" y1="169.057" x2="256" y2="169.057"/>
			<line class="st2" x1="0" y1="180.788" x2="256" y2="180.788"/>
			<line class="st2" x1="0" y1="192.518" x2="256" y2="192.518"/>
			<line class="st2" x1="0" y1="204.249" x2="256" y2="204.249"/>
			<line class="st2" x1="0" y1="215.979" x2="256" y2="215.979"/>
			<line class="st2" x1="0" y1="227.71" x2="256" y2="227.71"/>
			<line class="st2" x1="0" y1="239.44" x2="256" y2="239.44"/>
			<line class="st2" x1="0" y1="251.171" x2="256" y2="251.171"/>
		</g>
		<g>
			<line class="st2" x1="251.171" y1="0" x2="251.171" y2="256"/>
			<line class="st2" x1="239.44" y1="0" x2="239.44" y2="256"/>
			<line class="st2" x1="227.71" y1="0" x2="227.71" y2="256"/>
			<line class="st2" x1="215.979" y1="0" x2="215.979" y2="256"/>
			<line class="st2" x1="204.249" y1="0" x2="204.249" y2="256"/>
			<line class="st2" x1="192.518" y1="0" x2="192.518" y2="256"/>
			<line class="st2" x1="180.787" y1="0" x2="180.787" y2="256"/>
			<line class="st2" x1="169.057" y1="0" x2="169.057" y2="256"/>
			<line class="st2" x1="157.326" y1="0" x2="157.326" y2="256"/>
			<line class="st2" x1="145.596" y1="0" x2="145.596" y2="256"/>
			<line class="st2" x1="133.865" y1="0" x2="133.865" y2="256"/>
			<line class="st2" x1="122.135" y1="0" x2="122.135" y2="256"/>
			<line class="st2" x1="110.404" y1="0" x2="110.404" y2="256"/>
			<line class="st2" x1="98.674" y1="0" x2="98.674" y2="256"/>
			<line class="st2" x1="86.943" y1="0" x2="86.943" y2="256"/>
			<line class="st2" x1="75.212" y1="0" x2="75.212" y2="256"/>
			<line class="st2" x1="63.482" y1="0" x2="63.482" y2="256"/>
			<line class="st2" x1="51.751" y1="0" x2="51.751" y2="256"/>
			<line class="st2" x1="40.021" y1="0" x2="40.021" y2="256"/>
			<line class="st2" x1="28.29" y1="0" x2="28.29" y2="256"/>
			<line class="st2" x1="16.56" y1="0" x2="16.56" y2="256"/>
			<line class="st2" x1="4.829" y1="0" x2="4.829" y2="256"/>
		</g>
	</g>
</g>
<g id="Layer_1">
	<g>
		<path class="st7" d="M91.2,239.585V201.09h-16.52c-10.685,0-19.348-8.662-19.348-19.348v-27.115
			c-0.419-0.419-0.658-0.658-1.077-1.077H24.147c-5.959,0-9.684-6.451-6.704-11.612l32.234-55.831
			c0.282-0.489,0.506-1.01,0.673-1.55c12.283-39.702,49.424-68.483,93.241-68.142c52.364,0.408,95.274,43.039,96.004,95.4
			c0.489,35.045-17.655,65.884-45.155,83.259v44.512H91.2z"/>
		<path class="st3" d="M194.441,241.085c-0.829,0-1.5-0.672-1.5-1.5v-44.512c0-0.515,0.264-0.993,0.699-1.268
			c28.304-17.882,44.923-48.524,44.456-81.97c-0.717-51.387-43.117-93.52-94.516-93.92c-0.256-0.002-0.514-0.003-0.77-0.003
			c-20.633,0-40.247,6.479-56.769,18.761C69.873,48.692,57.707,65.854,51.784,85c-0.203,0.654-0.474,1.279-0.807,1.855
			l-32.235,55.833c-1.128,1.954-1.128,4.287,0,6.241c1.128,1.954,3.149,3.121,5.405,3.121h30.107c0.397,0,0.778,0.157,1.06,0.439
			l1.078,1.078c0.281,0.281,0.439,0.662,0.439,1.06v27.115c0,9.841,8.006,17.848,17.848,17.848H91.2c0.829,0,1.5,0.672,1.5,1.5
			v38.495c0,0.828-0.671,1.5-1.5,1.5s-1.5-0.672-1.5-1.5V202.59H74.679c-11.496,0-20.848-9.352-20.848-20.848v-26.494l-0.198-0.197
			H24.147c-3.341,0-6.333-1.728-8.003-4.621c-1.67-2.894-1.67-6.349,0-9.241l32.234-55.832c0.221-0.383,0.402-0.801,0.539-1.243
			c6.11-19.749,18.658-37.452,35.334-49.848c17.256-12.827,37.753-19.498,59.352-19.351c53.018,0.413,96.753,43.873,97.493,96.879
			c0.477,34.221-16.386,65.597-45.155,84.102v43.69C195.941,240.413,195.269,241.085,194.441,241.085z"/>
		<path class="st14" d="M47.911,26.218c0,0,3.408,12.659,13.222,13.246c0,0-13.1,4.525-13.321,14.202
			c0,0-2.579-13.572-12.925-14.059C34.887,39.608,46.937,37.782,47.911,26.218z"/>
		<path class="st3" d="M47.811,55.166c-0.713,0-1.335-0.506-1.472-1.217c-0.024-0.125-2.495-12.418-11.523-12.844
			c-0.77-0.036-1.387-0.65-1.427-1.421c-0.04-0.77,0.511-1.444,1.273-1.561c0.441-0.068,10.894-1.816,11.754-12.031
			c0.061-0.726,0.634-1.301,1.359-1.367c0.723-0.068,1.393,0.398,1.583,1.102c0.032,0.116,3.259,11.626,11.863,12.141
			c0.714,0.042,1.298,0.583,1.396,1.292c0.098,0.708-0.319,1.388-0.994,1.622c-0.121,0.042-12.118,4.311-12.313,12.819
			c-0.018,0.767-0.61,1.396-1.374,1.46C47.895,55.164,47.852,55.166,47.811,55.166z M40.07,39.437
			c3.878,1.969,6.23,5.746,7.587,8.877c2.026-4.021,5.941-6.787,8.949-8.427c-4.134-1.843-6.783-5.651-8.334-8.723
			C46.478,35.523,43,38.032,40.07,39.437z"/>
		<path class="st14" d="M26.212,43.199c0,0,2.411,8.954,9.352,9.369c0,0-9.266,3.201-9.422,10.045c0,0-1.824-9.6-9.142-9.944
			C17,52.669,25.524,51.378,26.212,43.199z"/>
		<path class="st3" d="M26.141,64.113c-0.713,0-1.337-0.508-1.472-1.22c-0.016-0.082-1.704-8.442-7.739-8.727
			c-0.77-0.036-1.387-0.65-1.427-1.421c-0.04-0.77,0.511-1.444,1.273-1.561c0.296-0.047,7.364-1.242,7.942-8.112
			c0.061-0.726,0.635-1.303,1.36-1.368c0.727-0.066,1.392,0.399,1.582,1.101l0,0c0.021,0.079,2.227,7.92,7.994,8.265
			c0.715,0.042,1.299,0.584,1.396,1.293c0.098,0.709-0.319,1.388-0.996,1.622c-0.081,0.028-8.282,2.953-8.413,8.661
			c-0.018,0.768-0.611,1.397-1.376,1.461C26.224,64.111,26.182,64.113,26.141,64.113z M21.623,52.586
			c2.106,1.332,3.523,3.395,4.447,5.279c1.376-2.231,3.515-3.871,5.365-4.972c-2.287-1.27-3.884-3.35-4.941-5.224
			C25.319,49.956,23.478,51.545,21.623,52.586z"/>
		<path class="st14" d="M26.212,16.541c0,0,2.411,8.954,9.352,9.37c0,0-9.266,3.201-9.422,10.045c0,0-1.824-9.6-9.142-9.944
			C17,26.012,25.524,24.721,26.212,16.541z"/>
		<path class="st3" d="M26.141,37.456c-0.713,0-1.337-0.508-1.472-1.22c-0.016-0.082-1.704-8.442-7.739-8.727
			c-0.77-0.036-1.387-0.65-1.427-1.421c-0.04-0.77,0.511-1.444,1.273-1.561c0.296-0.047,7.364-1.242,7.942-8.113
			c0.061-0.726,0.635-1.303,1.36-1.368c0.727-0.074,1.392,0.399,1.582,1.101l0,0c0.021,0.079,2.227,7.92,7.994,8.266
			c0.714,0.043,1.299,0.584,1.396,1.293c0.098,0.709-0.32,1.389-0.996,1.622c-0.081,0.028-8.282,2.952-8.413,8.661
			c-0.018,0.768-0.611,1.397-1.376,1.461C26.224,37.454,26.182,37.456,26.141,37.456z M21.622,25.929
			c2.107,1.332,3.523,3.394,4.447,5.279c1.376-2.232,3.515-3.871,5.365-4.972c-2.287-1.269-3.884-3.351-4.941-5.225
			C25.319,23.299,23.478,24.888,21.622,25.929z"/>
		<circle class="st21" cx="140.699" cy="110.498" r="68.5"/>
		<path class="st3" d="M140.699,180.498c-38.598,0-70-31.402-70-70c0-38.598,31.402-70,70-70c38.598,0,70,31.402,70,70
			C210.699,149.096,179.297,180.498,140.699,180.498z M140.699,43.498c-36.944,0-67,30.056-67,67c0,36.944,30.056,67,67,67
			c36.944,0,67-30.056,67-67C207.699,73.554,177.643,43.498,140.699,43.498z"/>
		<path class="st3" d="M140.699,70.629c-0.829,0-1.5-0.672-1.5-1.5v-5.914c0-0.828,0.671-1.5,1.5-1.5s1.5,0.672,1.5,1.5v5.914
			C142.199,69.957,141.528,70.629,140.699,70.629z"/>
		<path class="st3" d="M165.46,78.849c-0.312,0-0.627-0.097-0.896-0.298c-0.664-0.495-0.801-1.436-0.305-2.1l3.537-4.739
			c0.495-0.663,1.436-0.801,2.099-0.305c0.664,0.495,0.801,1.436,0.305,2.1l-3.537,4.739
			C166.369,78.641,165.917,78.849,165.46,78.849z"/>
		<path class="st3" d="M180.393,100.245c-0.647,0-1.244-0.421-1.438-1.073c-0.236-0.794,0.217-1.629,1.011-1.864l5.669-1.685
			c0.797-0.24,1.629,0.216,1.865,1.011c0.236,0.794-0.217,1.629-1.011,1.864l-5.669,1.685
			C180.678,100.226,180.534,100.245,180.393,100.245z"/>
		<path class="st3" d="M185.117,128.363c-0.172,0-0.347-0.029-0.518-0.092l-5.551-2.04c-0.777-0.286-1.176-1.148-0.89-1.926
			c0.285-0.777,1.146-1.174,1.925-0.891l5.551,2.04c0.777,0.286,1.176,1.148,0.89,1.926
			C186.302,127.987,185.728,128.363,185.117,128.363z"/>
		<path class="st3" d="M115.937,78.849c-0.457,0-0.909-0.208-1.203-0.603l-3.536-4.739c-0.496-0.664-0.359-1.604,0.305-2.1
			c0.664-0.496,1.604-0.358,2.099,0.305l3.536,4.739c0.496,0.664,0.359,1.604-0.305,2.1
			C116.564,78.752,116.249,78.849,115.937,78.849z"/>
		<path class="st3" d="M101.005,100.245c-0.141,0-0.285-0.02-0.428-0.062l-5.669-1.685c-0.794-0.235-1.247-1.07-1.011-1.865
			c0.236-0.794,1.07-1.248,1.865-1.01l5.669,1.685c0.794,0.235,1.247,1.07,1.011,1.865
			C102.249,99.824,101.652,100.245,101.005,100.245z"/>
		<path class="st3" d="M96.281,128.363c-0.611,0-1.185-0.376-1.408-0.982c-0.286-0.777,0.113-1.64,0.89-1.926l5.551-2.04
			c0.779-0.284,1.64,0.113,1.925,0.891c0.286,0.777-0.113,1.64-0.89,1.926l-5.551,2.04
			C96.628,128.334,96.453,128.363,96.281,128.363z"/>
		<path class="st11" d="M168.388,109.594c0,7.03-2.611,13.424-6.929,18.311c-4.067,4.603-6.661,10.277-7.733,16.302h-26.06
			c-1.071-6.025-3.649-11.699-7.733-16.319c-4.302-4.87-6.929-11.281-6.929-18.294c0-14.562,11.666-26.88,26.194-27.65
			C155.165,81.108,168.388,93.811,168.388,109.594z"/>
		<path class="st3" d="M153.726,145.707h-26.06c-0.727,0-1.35-0.521-1.477-1.237c-1.054-5.929-3.605-11.319-7.379-15.588
			c-4.711-5.334-7.306-12.184-7.306-19.287c0-15.265,12.388-28.341,27.615-29.148c8.109-0.409,15.8,2.409,21.668,7.978
			c5.869,5.569,9.102,13.088,9.102,21.171c0,7.117-2.594,13.973-7.305,19.304c-3.777,4.273-6.329,9.658-7.38,15.571
			C155.075,145.186,154.453,145.707,153.726,145.707z M128.901,142.707h23.589c1.271-5.971,3.969-11.409,7.844-15.795
			c4.226-4.782,6.553-10.933,6.553-17.317c0-7.252-2.9-13.998-8.167-18.995c-5.265-4.997-12.167-7.544-19.445-7.157
			c-13.66,0.725-24.773,12.456-24.773,26.152c0,6.372,2.328,12.517,6.554,17.301C124.931,131.277,127.628,136.722,128.901,142.707z"
			/>
		<path class="st4" d="M125.741,144.214h29.916c1.68,0,3.042,1.362,3.042,3.042v7.484c0,1.68-1.362,3.042-3.042,3.042h-29.916
			c-1.68,0-3.042-1.362-3.042-3.042v-7.484C122.699,145.576,124.061,144.214,125.741,144.214z"/>
		<path class="st3" d="M155.657,159.281h-29.916c-2.504,0-4.542-2.037-4.542-4.541v-7.484c0-2.505,2.038-4.542,4.542-4.542h29.916
			c2.504,0,4.542,2.037,4.542,4.542v7.484C160.199,157.244,158.162,159.281,155.657,159.281z M125.741,145.714
			c-0.85,0-1.542,0.691-1.542,1.542v7.484c0,0.85,0.692,1.541,1.542,1.541h29.916c0.85,0,1.542-0.691,1.542-1.541v-7.484
			c0-0.851-0.692-1.542-1.542-1.542H125.741z"/>
		<path class="st22" d="M236.605,44.385h-1.382c-0.81-3.541-2.222-6.853-4.124-9.821l1.017-1.017c1.172-1.172,1.172-3.071,0-4.243
			l-5.402-5.402c-1.172-1.172-3.071-1.172-4.243,0l-1.055,1.055c-2.962-1.866-6.26-3.247-9.783-4.033v-1.511c0-1.657-1.343-3-3-3
			h-7.64c-1.657,0-3,1.343-3,3v1.511c-1.867,0.503-6.821,2.167-9.783,4.033l-1.055-1.055c-1.172-1.172-3.071-1.172-4.243,0
			l-5.402,5.402c-1.172,1.172-1.172,3.071,0,4.243l1.017,1.017c-1.902,2.968-3.314,6.28-4.124,9.821h-1.382c-1.657,0-3,1.343-3,3
			v7.64c0,1.657,1.343,3,3,3h1.31c0.779,3.585,2.174,6.94,4.069,9.948l-0.89,0.89c-1.172,1.172-1.172,3.071,0,4.243l5.402,5.402
			c1.172,1.172,3.071,1.172,4.243,0l0.852-0.852c3.014,1.931,6.383,3.356,9.987,4.16v1.181c0,1.657,1.343,3,3,3h7.64
			c1.657,0,3-1.343,3-3v-1.181c3.603-0.804,6.972-2.229,9.987-4.16l0.852,0.852c1.172,1.172,3.071,1.172,4.243,0l5.402-5.402
			c1.172-1.172,1.172-3.071,0-4.243l-0.89-0.89c1.895-3.008,3.29-6.363,4.069-9.948h1.31c1.657,0,3-1.343,3-3v-7.64
			C239.605,45.728,238.262,44.385,236.605,44.385z M204.812,66.803c-8.615,0-15.598-6.984-15.598-15.598
			c0-8.615,6.984-15.598,15.598-15.598c8.615,0,15.598,6.984,15.598,15.598C220.41,59.82,213.427,66.803,204.812,66.803z"/>
		<path class="st3" d="M208.632,87.498h-7.64c-2.481,0-4.5-2.019-4.5-4.5v-0.001c-2.904-0.761-5.674-1.915-8.263-3.442l-0.015,0.015
			c-1.755,1.756-4.609,1.756-6.364,0l-5.402-5.402c-1.755-1.755-1.755-4.609,0-6.364l0.059-0.059
			c-1.496-2.581-2.624-5.336-3.363-8.219h-0.125c-2.481,0-4.5-2.019-4.5-4.5v-7.64c0-2.481,2.019-4.501,4.5-4.501h0.209
			c0.761-2.843,1.901-5.558,3.399-8.098l-0.179-0.18c-1.755-1.755-1.755-4.609,0-6.364l5.402-5.402c1.755-1.754,4.609-1.756,6.364,0
			l0.237,0.236c2.667-1.462,6.081-2.667,8.041-3.275v-0.39c0-2.481,2.019-4.5,4.5-4.5h7.64c2.482,0,4.501,2.019,4.501,4.5v0.332
			c2.823,0.74,5.522,1.854,8.053,3.321l0.224-0.225c0.85-0.851,1.98-1.318,3.183-1.318c1.202,0,2.332,0.468,3.182,1.318l5.402,5.402
			c1.755,1.755,1.755,4.609,0,6.364l-0.18,0.18c1.498,2.54,2.638,5.255,3.399,8.098h0.21c2.481,0,4.5,2.02,4.5,4.501v7.64
			c0,2.481-2.019,4.5-4.5,4.5h-0.124c-0.74,2.884-1.868,5.639-3.364,8.218l0.059,0.059c1.755,1.755,1.755,4.609,0,6.364
			l-5.402,5.402c-0.85,0.851-1.98,1.318-3.182,1.318c-1.203,0-2.332-0.468-3.183-1.318l-0.014-0.015
			c-2.589,1.527-5.359,2.682-8.263,3.442v0.001C213.132,85.479,211.113,87.498,208.632,87.498z M188.006,76.157
			c0.279,0,0.56,0.078,0.809,0.237c2.923,1.872,6.121,3.204,9.504,3.959c0.686,0.152,1.173,0.762,1.173,1.464v1.181
			c0,0.827,0.673,1.5,1.5,1.5h7.64c0.827,0,1.501-0.673,1.501-1.5v-1.181c0-0.702,0.488-1.312,1.173-1.464
			c3.383-0.755,6.58-2.087,9.504-3.959c0.592-0.381,1.37-0.298,1.87,0.202l0.852,0.851c0.567,0.566,1.555,0.566,2.122,0l5.402-5.402
			c0.585-0.585,0.585-1.537,0-2.122l-0.89-0.89c-0.496-0.495-0.582-1.268-0.209-1.86c1.838-2.918,3.142-6.103,3.873-9.467
			c0.15-0.689,0.76-1.182,1.466-1.182h1.31c0.827,0,1.5-0.673,1.5-1.5v-7.64c0-0.828-0.673-1.501-1.5-1.501h-1.382
			c-0.7,0-1.306-0.483-1.462-1.165c-0.76-3.324-2.081-6.469-3.925-9.347c-0.38-0.594-0.296-1.372,0.203-1.87l1.017-1.017
			c0.585-0.585,0.585-1.537,0-2.122l-5.402-5.402c-0.567-0.567-1.555-0.565-2.122,0l-1.055,1.056
			c-0.495,0.494-1.268,0.58-1.86,0.209c-2.875-1.812-6.007-3.103-9.31-3.839c-0.686-0.152-1.174-0.761-1.174-1.464v-1.512
			c0-0.827-0.673-1.5-1.501-1.5h-7.64c-0.827,0-1.5,0.673-1.5,1.5v1.512c0,0.678-0.455,1.273-1.11,1.448
			c-1.856,0.5-6.589,2.1-9.374,3.854c-0.593,0.371-1.365,0.285-1.86-0.209l-1.055-1.056c-0.584-0.584-1.537-0.584-2.122,0
			l-5.402,5.402c-0.585,0.585-0.585,1.537,0,2.122l1.017,1.017c0.499,0.498,0.583,1.276,0.203,1.87
			c-1.844,2.878-3.165,6.022-3.925,9.347c-0.156,0.682-0.763,1.165-1.462,1.165h-1.382c-0.827,0-1.5,0.673-1.5,1.501v7.64
			c0,0.827,0.673,1.5,1.5,1.5h1.311c0.706,0,1.316,0.492,1.466,1.182c0.73,3.362,2.033,6.547,3.872,9.467
			c0.374,0.593,0.287,1.365-0.208,1.86l-0.89,0.89c-0.585,0.585-0.585,1.537,0,2.122l5.402,5.402c0.585,0.584,1.537,0.584,2.122,0
			l0.852-0.851C187.234,76.307,187.619,76.157,188.006,76.157z M204.812,68.304c-9.428,0-17.098-7.671-17.098-17.099
			c0-9.428,7.67-17.099,17.098-17.099c9.428,0,17.098,7.671,17.098,17.099C221.91,60.633,214.24,68.304,204.812,68.304z
			 M204.812,37.106c-7.774,0-14.098,6.324-14.098,14.099s6.324,14.099,14.098,14.099c7.774,0,14.098-6.324,14.098-14.099
			S212.586,37.106,204.812,37.106z"/>
		<path class="st10" d="M218.29,55.338c-1.15,3.75-3.83,6.83-7.3,8.53c-4.72-7.93-10.55-15.12-17.26-21.37
			c1.75-2.23,4.17-3.91,6.94-4.77C207.27,42.819,213.2,48.738,218.29,55.338z"/>
		<path class="st10" d="M144.94,17.938c12.15,0.26,23.78,2.87,34.45,7.37l-2.94,2.93c-0.29,0.29-0.53,0.61-0.72,0.95
			C166.33,23.788,155.95,19.928,144.94,17.938z"/>
		<path class="st10" d="M238.1,111.838c0.46,33.44-16.16,64.08-44.46,81.97c-0.43,0.27-0.7,0.75-0.7,1.26v44.52h-13.5v-44.52
			c27.5-17.37,45.64-48.21,45.16-83.25c-0.15-10.84-2.11-21.27-5.59-30.99c0.81-0.39,1.61-0.81,2.39-1.27l0.01,0.01
			c1.76,1.75,4.61,1.76,6.36,0l2.94-2.94C235.3,87.518,237.92,99.408,238.1,111.838z"/>
	</g>
</g>
</svg>
