<svg width="128" height="128" viewBox="0 0 128 128" fill="none" xmlns="http://www.w3.org/2000/svg">
<path d="M114.222 67.7358C114.222 78.4077 111.057 88.8399 105.128 97.7133C99.1994 106.587 90.7723 113.503 80.9128 117.587C71.0532 121.67 60.2041 122.739 49.7372 120.657C39.2704 118.575 29.656 113.436 22.1099 105.89C14.5637 98.3437 9.4247 88.7293 7.34272 78.2625C5.26074 67.7957 6.32929 56.9465 10.4132 47.087C14.4972 37.2275 21.4131 28.8004 30.2865 22.8714C39.1598 16.9424 49.592 13.7778 60.2639 13.7778V67.7358H114.222Z" fill="#FFB65F"/>
<path d="M67.7358 6.30688C82.046 6.30715 95.7701 11.992 105.889 22.1108C116.008 32.2297 121.693 45.9537 121.693 60.2639H67.7358V6.30688Z" fill="#FFB65F"/>
<path d="M103.712 67.7358C103.712 76.329 101.164 84.7293 96.3896 91.8743C91.6155 99.0192 84.8299 104.588 76.8908 107.877C68.9517 111.165 60.2157 112.025 51.7877 110.349C43.3596 108.673 35.6179 104.535 29.5416 98.4582C23.4653 92.3819 19.3272 84.6402 17.6508 76.2121C15.9743 67.784 16.8347 59.0481 20.1232 51.109C23.4117 43.1699 28.9805 36.3843 36.1255 31.6101C43.2705 26.836 51.6707 24.2878 60.2639 24.2878V67.7358H103.712Z" fill="#FCE8CB"/>
<path d="M67.7358 16.8159C79.2588 16.8162 90.3097 21.3938 98.4576 29.5419C106.605 37.6899 111.183 48.741 111.183 60.2639H67.7358V16.8159Z" fill="#FCE8CB"/>
<path d="M90.767 42.6368C90.7672 43.6986 90.4525 44.7365 89.8628 45.6195C89.273 46.5024 88.4346 47.1906 87.4537 47.597C86.4728 48.0034 85.3934 48.1098 84.352 47.9027C83.3106 47.6956 82.354 47.1843 81.6033 46.4335C80.8525 45.6827 80.3412 44.7262 80.1341 43.6848C79.927 42.6434 80.0334 41.564 80.4398 40.5831C80.8462 39.6022 81.5344 38.7638 82.4173 38.174C83.3002 37.5843 84.3382 37.2696 85.4 37.2698C86.8234 37.2698 88.1885 37.8352 89.1951 38.8417C90.2016 39.8482 90.767 41.2134 90.767 42.6368Z" fill="#F16C7A"/>
<path d="M77.8919 90.7668C76.8302 90.767 75.7922 90.4523 74.9093 89.8625C74.0264 89.2727 73.3382 88.4344 72.9318 87.4535C72.5253 86.4726 72.419 85.3931 72.626 84.3518C72.8331 83.3104 73.3444 82.3538 74.0952 81.603C74.846 80.8522 75.8026 80.341 76.844 80.1339C77.8853 79.9268 78.9647 80.0332 79.9457 80.4396C80.9266 80.846 81.7649 81.5342 82.3547 82.4171C82.9445 83.3 83.2591 84.338 83.259 85.3998C83.259 86.8232 82.6935 88.1883 81.687 89.1948C80.6805 90.2013 79.3154 90.7668 77.8919 90.7668Z" fill="#F07281"/>
<path d="M37.2329 85.3629C37.2327 84.3011 37.5474 83.2631 38.1372 82.3802C38.7269 81.4973 39.5653 80.8091 40.5462 80.4027C41.5271 79.9963 42.6065 79.8899 43.6479 80.097C44.6893 80.3041 45.6459 80.8154 46.3967 81.5661C47.1474 82.3169 47.6587 83.2735 47.8658 84.3149C48.0729 85.3563 47.9665 86.4357 47.5601 87.4166C47.1537 88.3975 46.4655 89.2359 45.5826 89.8256C44.6997 90.4154 43.6617 90.7301 42.5999 90.7299C41.8951 90.7299 41.1972 90.5911 40.546 90.3214C39.8949 90.0516 39.3032 89.6563 38.8049 89.1579C38.3065 88.6596 37.9112 88.0679 37.6414 87.4168C37.3717 86.7656 37.2329 86.0677 37.2329 85.3629Z" fill="#F07281"/>
<path d="M42.6368 44.7C43.6985 44.7 44.7363 45.0148 45.6191 45.6046C46.5019 46.1945 47.1899 47.0328 47.5962 48.0137C48.0025 48.9946 48.1088 50.0739 47.9017 51.1152C47.6945 52.1565 47.1833 53.113 46.4325 53.8637C45.6818 54.6144 44.7253 55.1257 43.684 55.3328C42.6428 55.5399 41.5634 55.4336 40.5826 55.0273C39.6017 54.621 38.7633 53.933 38.1735 53.0503C37.5836 52.1675 37.2688 51.1296 37.2688 50.068C37.2687 49.363 37.4074 48.6649 37.6771 48.0135C37.9469 47.3622 38.3423 46.7704 38.8408 46.2719C39.3392 45.7734 39.9311 45.378 40.5824 45.1083C41.2337 44.8386 41.9318 44.6998 42.6368 44.7Z" fill="#F07281"/>
<path d="M56.9469 79.345C57.4117 79.3454 57.8662 79.2078 58.2529 78.9498C58.6395 78.6917 58.9409 78.3248 59.1189 77.8954C59.2968 77.4659 59.3434 76.9934 59.2527 76.5375C59.1619 76.0816 58.938 75.6628 58.6091 75.3343C58.2803 75.0057 57.8614 74.7821 57.4054 74.6918C56.9494 74.6014 56.4769 74.6484 56.0476 74.8267C55.6184 75.0051 55.2516 75.3068 54.9939 75.6936C54.7362 76.0805 54.5991 76.5351 54.5999 77C54.6009 77.6219 54.8486 78.2181 55.2886 78.6577C55.7285 79.0973 56.3249 79.3444 56.9469 79.345Z" fill="black"/>
<path d="M65.4338 99.642C65.4338 99.1774 65.2961 98.7232 65.038 98.3369C64.7799 97.9506 64.413 97.6496 63.9838 97.4718C63.5545 97.294 63.0822 97.2475 62.6266 97.3381C62.1709 97.4287 61.7524 97.6525 61.4238 97.981C61.0953 98.3095 60.8716 98.728 60.781 99.1837C60.6903 99.6394 60.7369 100.112 60.9146 100.541C61.0924 100.97 61.3935 101.337 61.7798 101.595C62.1661 101.853 62.6203 101.991 63.0848 101.991C63.7078 101.991 64.3053 101.743 64.7458 101.303C65.1864 100.862 65.4338 100.265 65.4338 99.642Z" fill="black"/>
<path d="M28.7479 61C28.2834 61.0006 27.8295 61.1389 27.4436 61.3973C27.0577 61.6558 26.7571 62.0229 26.5798 62.4522C26.4025 62.8814 26.3564 63.3536 26.4474 63.8091C26.5383 64.2646 26.7623 64.6828 27.0909 65.0111C27.4196 65.3393 27.8381 65.5627 28.2937 65.6531C28.7493 65.7435 29.2214 65.6968 29.6505 65.5189C30.0795 65.341 30.4462 65.04 30.7042 64.6537C30.9622 64.2675 31.0999 63.8135 31.0999 63.349C31.0999 63.0403 31.039 62.7346 30.9208 62.4494C30.8025 62.1642 30.6292 61.9051 30.4108 61.6869C30.1923 61.4688 29.933 61.2958 29.6477 61.1779C29.3624 61.0601 29.0566 60.9996 28.7479 61Z" fill="black"/>
<path d="M80.927 28.7389C80.927 28.2743 80.7892 27.8202 80.5311 27.4339C80.273 27.0476 79.9062 26.7465 79.4769 26.5687C79.0477 26.3909 78.5754 26.3444 78.1197 26.435C77.6641 26.5257 77.2455 26.7494 76.917 27.0779C76.5885 27.4064 76.3648 27.825 76.2741 28.2806C76.1835 28.7363 76.23 29.2086 76.4078 29.6378C76.5856 30.067 76.8867 30.4339 77.273 30.692C77.6593 30.9501 78.1134 31.0879 78.578 31.0879C79.201 31.0879 79.7985 30.8404 80.239 30.3999C80.6795 29.9594 80.927 29.3619 80.927 28.7389Z" fill="black"/>
<path d="M60.2639 42.8599C59.7999 42.8601 59.3549 43.0446 59.0268 43.3727C58.6986 43.7009 58.5142 44.1458 58.5139 44.6099V49.1099C58.5139 49.574 58.6983 50.0191 59.0265 50.3473C59.3547 50.6755 59.7998 50.8599 60.2639 50.8599C60.728 50.8599 61.1732 50.6755 61.5014 50.3473C61.8295 50.0191 62.0139 49.574 62.0139 49.1099V44.6099C62.0137 44.1458 61.8292 43.7009 61.5011 43.3727C61.1729 43.0446 60.728 42.8601 60.2639 42.8599Z" fill="black"/>
<path d="M114.222 65.9858H62.0139V58.3458C62.0139 57.8817 61.8295 57.4366 61.5013 57.1084C61.1732 56.7802 60.728 56.5958 60.2639 56.5958C59.7998 56.5958 59.3547 56.7802 59.0265 57.1084C58.6983 57.4366 58.5139 57.8817 58.5139 58.3458V67.7358C58.5142 68.1999 58.6986 68.6448 59.0268 68.973C59.3549 69.3011 59.7999 69.4856 60.2639 69.4858H101.918C101.579 77.5767 98.8923 85.3939 94.1845 91.9827C89.4767 98.5715 82.952 103.647 75.4074 106.589C67.8627 109.531 59.6247 110.212 51.6993 108.549C43.774 106.886 36.5043 102.952 30.7782 97.2255C25.0521 91.4994 21.1174 84.2298 19.4547 76.3044C17.792 68.379 18.4731 60.141 21.415 52.5964C24.3569 45.0517 29.4322 38.5271 36.021 33.8193C42.6099 29.1115 50.4271 26.4243 58.5179 26.0858V34.9568C58.5179 35.421 58.7023 35.8661 59.0305 36.1943C59.3587 36.5225 59.8038 36.7068 60.2679 36.7068C60.732 36.7068 61.1771 36.5225 61.5053 36.1943C61.8335 35.8661 62.0179 35.421 62.0179 34.9568V13.7778C62.0176 13.3138 61.8332 12.8688 61.505 12.5407C61.1769 12.2126 60.7319 12.0281 60.2679 12.0278C48.1891 12.0294 36.4381 15.9563 26.7852 23.217C17.1323 30.4778 10.1005 40.6789 6.74925 52.2834C3.39804 63.888 3.90895 76.2673 8.20501 87.5563C12.5011 98.8452 20.3495 108.432 30.5679 114.873C30.7622 115.001 30.9801 115.089 31.2089 115.132C31.4376 115.175 31.6727 115.172 31.9002 115.123C32.1277 115.074 32.3432 114.98 32.534 114.846C32.7248 114.713 32.887 114.543 33.0113 114.346C33.1355 114.149 33.2193 113.93 33.2576 113.7C33.2959 113.471 33.2881 113.236 33.2345 113.009C33.1809 112.783 33.0827 112.569 32.9456 112.381C32.8084 112.193 32.6352 112.034 32.4359 111.914C22.986 105.958 15.6952 97.1286 11.6344 86.7227C7.5737 76.3168 6.95709 64.8829 9.8752 54.1007C12.7933 43.3184 19.0923 33.7561 27.8469 26.8186C36.6014 19.881 47.3501 15.9338 58.5139 15.5568V22.5818C49.7303 22.9204 41.2361 25.8131 34.0715 30.9057C26.9069 35.9983 21.383 43.0698 18.1762 51.2541C14.9694 59.4384 14.219 68.3802 16.0168 76.9845C17.8146 85.5888 22.0826 93.482 28.2982 99.6976C34.5137 105.913 42.407 110.181 51.0113 111.979C59.6156 113.777 68.5574 113.026 76.7417 109.82C84.926 106.613 91.9974 101.089 97.09 93.9242C102.183 86.7596 105.075 78.2654 105.414 69.4818H112.439C112.152 77.8951 109.836 86.1143 105.688 93.4397C101.541 100.765 95.6841 106.98 88.6174 111.554C81.5508 116.129 73.4833 118.928 65.1019 119.714C56.7204 120.499 48.2734 119.247 40.4799 116.065C40.2664 115.973 40.0366 115.924 39.804 115.921C39.5714 115.919 39.3406 115.963 39.1252 116.051C38.9098 116.138 38.7141 116.268 38.5494 116.433C38.3848 116.597 38.2545 116.792 38.1663 117.008C38.0781 117.223 38.0337 117.453 38.0357 117.686C38.0377 117.919 38.086 118.149 38.1779 118.362C38.2697 118.576 38.4033 118.769 38.5707 118.931C38.7381 119.092 38.936 119.219 39.1529 119.303C47.6147 122.76 56.7968 124.083 65.8903 123.155C74.9838 122.227 83.7096 119.077 91.299 113.983C98.8883 108.888 105.108 102.005 109.411 93.9404C113.713 85.8757 115.967 76.8765 115.972 67.7358C115.972 67.2718 115.787 66.8268 115.459 66.4987C115.131 66.1706 114.686 65.9861 114.222 65.9858Z" fill="#3A312A"/>
<path d="M67.7349 4.55688C67.2708 4.55715 66.8259 4.74161 66.4977 5.06974C66.1696 5.39787 65.9851 5.84284 65.9849 6.30688V60.2639C65.9851 60.7279 66.1696 61.1729 66.4977 61.501C66.8259 61.8292 67.2708 62.0136 67.7349 62.0139H121.693C122.157 62.0136 122.602 61.8292 122.93 61.501C123.258 61.1729 123.443 60.7279 123.443 60.2639C123.426 45.4944 117.552 31.3347 107.108 20.8912C96.6642 10.4476 82.5043 4.57329 67.7349 4.55688ZM69.4849 18.6109C79.9221 19.0621 89.8107 23.4107 97.1979 30.7979C104.585 38.185 108.934 48.0736 109.385 58.5109H69.4849V18.6109ZM112.885 58.5109C112.431 47.1458 107.712 36.3689 99.6696 28.3262C91.6269 20.2834 80.8499 15.5651 69.4849 15.1109V8.08589C82.7133 8.54461 95.2752 14.0048 104.635 23.3642C113.994 32.7237 119.455 45.2854 119.914 58.5139L112.885 58.5109Z" fill="#3A312A"/>
<path d="M85.3999 35.5198C83.9924 35.52 82.6165 35.9375 81.4462 36.7197C80.276 37.5018 79.3639 38.6134 78.8254 39.9139C78.2869 41.2144 78.1461 42.6453 78.4208 44.0258C78.6955 45.4063 79.3734 46.6744 80.3688 47.6696C81.3642 48.6648 82.6323 49.3426 84.0128 49.6171C85.3934 49.8916 86.8243 49.7506 88.1247 49.2119C89.4251 48.6732 90.5366 47.761 91.3186 46.5907C92.1006 45.4203 92.5179 44.0443 92.5179 42.6368C92.5158 40.7497 91.7652 38.9405 90.4307 37.6063C89.0963 36.272 87.287 35.5216 85.3999 35.5198ZM85.3999 46.2538C84.6846 46.2536 83.9854 46.0413 83.3907 45.6437C82.796 45.2462 82.3326 44.6812 82.059 44.0202C81.7854 43.3593 81.7139 42.6321 81.8536 41.9305C81.9932 41.229 82.3378 40.5846 82.8437 40.0788C83.3496 39.5731 83.9941 39.2287 84.6957 39.0892C85.3973 38.9497 86.1245 39.0214 86.7853 39.2952C87.4462 39.569 88.011 40.0326 88.4084 40.6274C88.8058 41.2222 89.0179 41.9214 89.0179 42.6368C89.0166 43.5958 88.635 44.5152 87.9567 45.1933C87.2785 45.8713 86.359 46.2527 85.3999 46.2538Z" fill="#3A312A"/>
<path d="M85.0089 85.3999C85.0087 83.9924 84.5911 82.6165 83.809 81.4462C83.0268 80.276 81.9153 79.3639 80.6148 78.8254C79.3143 78.2869 77.8833 78.1461 76.5028 78.4208C75.1223 78.6955 73.8543 79.3734 72.8591 80.3688C71.8638 81.3642 71.1861 82.6323 70.9116 84.0128C70.6371 85.3934 70.7781 86.8243 71.3168 88.1247C71.8555 89.4251 72.7677 90.5366 73.938 91.3186C75.1084 92.1006 76.4843 92.5179 77.8919 92.5179C79.779 92.5158 81.5881 91.7652 82.9224 90.4307C84.2567 89.0963 85.0071 87.287 85.0089 85.3999ZM74.2749 85.3999C74.2751 84.6846 74.4874 83.9854 74.885 83.3907C75.2825 82.796 75.8475 82.3326 76.5084 82.059C77.1694 81.7854 77.8966 81.7139 78.5982 81.8536C79.2997 81.9932 79.9441 82.3378 80.4499 82.8437C80.9556 83.3496 81.3 83.9941 81.4395 84.6957C81.579 85.3973 81.5073 86.1245 81.2335 86.7853C80.9597 87.4462 80.4961 88.011 79.9013 88.4084C79.3065 88.8058 78.6072 89.0179 77.8919 89.0179C76.9328 89.0169 76.0132 88.6353 75.3351 87.957C74.657 87.2787 74.2757 86.3591 74.2749 85.3999Z" fill="#3A312A"/>
<path d="M42.5999 78.2458C41.1923 78.2458 39.8163 78.6633 38.6459 79.4453C37.4755 80.2273 36.5633 81.3388 36.0247 82.6393C35.486 83.9398 35.3451 85.3707 35.6197 86.7513C35.8943 88.1319 36.5721 89.4 37.5674 90.3953C38.5628 91.3907 39.8309 92.0685 41.2115 92.3431C42.592 92.6177 44.023 92.4768 45.3235 91.9381C46.6239 91.3994 47.7355 90.4872 48.5175 89.3168C49.2995 88.1465 49.7169 86.7705 49.7169 85.3628C49.7145 83.476 48.9639 81.6672 47.6298 80.333C46.2956 78.9988 44.4867 78.2482 42.5999 78.2458ZM42.5999 88.9799C41.8845 88.9799 41.1852 88.7677 40.5904 88.3703C39.9956 87.9728 39.532 87.4079 39.2582 86.747C38.9845 86.0861 38.9128 85.3588 39.0524 84.6572C39.192 83.9556 39.5365 83.3111 40.0423 82.8052C40.5482 82.2994 41.1926 81.9549 41.8943 81.8153C42.5959 81.6758 43.3232 81.7474 43.9841 82.0212C44.645 82.2949 45.2099 82.7585 45.6073 83.3533C46.0048 83.9482 46.2169 84.6475 46.2169 85.3628C46.2159 86.3218 45.8344 87.2412 45.1564 87.9193C44.4783 88.5974 43.5589 88.9788 42.5999 88.9799Z" fill="#3A312A"/>
<path d="M42.637 42.9548C41.2294 42.9548 39.8534 43.3722 38.683 44.1543C37.5126 44.9363 36.6004 46.0478 36.0618 47.3483C35.5231 48.6487 35.3822 50.0797 35.6568 51.4603C35.9314 52.8409 36.6092 54.109 37.6045 55.1043C38.5999 56.0996 39.868 56.7775 41.2486 57.0521C42.6291 57.3267 44.0601 57.1858 45.3606 56.6471C46.661 56.1084 47.7726 55.1962 48.5546 54.0258C49.3366 52.8554 49.754 51.4794 49.754 50.0718C49.7516 48.185 49.0011 46.3762 47.6669 45.042C46.3327 43.7078 44.5238 42.9572 42.637 42.9548ZM42.637 53.6888C41.9216 53.6888 41.2223 53.4767 40.6275 53.0793C40.0327 52.6818 39.5691 52.1169 39.2954 51.456C39.0216 50.7951 38.95 50.0678 39.0895 49.3662C39.2291 48.6646 39.5736 48.0201 40.0794 47.5142C40.5853 47.0084 41.2298 46.6639 41.9314 46.5243C42.633 46.3848 43.3603 46.4564 44.0212 46.7302C44.6821 47.0039 45.247 47.4675 45.6444 48.0623C46.0419 48.6571 46.254 49.3565 46.254 50.0718C46.2527 51.0307 45.8712 51.9499 45.1932 52.628C44.5151 53.306 43.5959 53.6875 42.637 53.6888Z" fill="#3A312A"/>
</svg>
