<?xml version="1.0" encoding="utf-8"?>
<!-- Generator: Adobe Illustrator 22.0.0, SVG Export Plug-In . SVG Version: 6.00 Build 0)  -->
<svg version="1.1" xmlns="http://www.w3.org/2000/svg" xmlns:xlink="http://www.w3.org/1999/xlink" x="0px" y="0px"
	 viewBox="0 0 256 256" style="enable-background:new 0 0 256 256;" xml:space="preserve">
<style type="text/css">
	.st0{display:none;}
	.st1{display:inline;}
	.st2{fill:none;stroke:#6B1D1D;stroke-width:0.5;stroke-miterlimit:10;}
	.st3{fill:#3A312A;}
	.st4{fill:#87796F;}
	.st5{fill:#D5DE58;}
	.st6{fill:#695B51;}
	.st7{fill:#FCE8CB;}
	.st8{fill:#F16C7A;}
	.st9{fill:#8AC6DD;}
	.st10{fill:#DECAAD;}
	.st11{fill:#D6DF58;}
	.st12{fill-rule:evenodd;clip-rule:evenodd;fill:#FCE8CB;}
	.st13{fill:#F5978A;}
	.st14{fill:#D7E057;}
	.st15{fill-rule:evenodd;clip-rule:evenodd;fill:#87796F;}
	.st16{fill:#6CA8BF;}
	.st17{fill:#B9C239;}
	.st18{fill:#D34E5C;}
	.st19{fill:#FAE6CA;}
	.st20{fill:#F8E4C8;}
	.st21{fill:#8AC5DC;}
	.st22{fill:#EF6D7A;}
	.st23{fill:#EB6E7A;}
	.st24{fill:#89C4DB;}
	.st25{fill-rule:evenodd;clip-rule:evenodd;fill:#F16C7A;}
	.st26{fill:#F7E3C7;}
	.st27{fill:#F6E2C6;}
	.st28{fill:#ED6E7A;}
	.st29{fill:#8AC3DA;}
	.st30{fill:#D5DC57;}
	.st31{fill-rule:evenodd;clip-rule:evenodd;fill:#D7E057;}
	.st32{fill-rule:evenodd;clip-rule:evenodd;fill:#F8E4C8;}
	.st33{fill:#D4DB56;}
	.st34{fill:#F59689;}
	.st35{fill:#DDC9AC;}
	.st36{fill:#D24E5C;}
	.st37{fill:#6A5C52;}
	.st38{fill:#6CA6BE;}
	.st39{fill:#B8C136;}
	.st40{fill-rule:evenodd;clip-rule:evenodd;fill:#FAE6CA;}
</style>
<g id="Layer_2" class="st0">
	<g class="st1">
		<g>
			<line class="st2" x1="0" y1="4.829" x2="256" y2="4.829"/>
			<line class="st2" x1="0" y1="16.56" x2="256" y2="16.56"/>
			<line class="st2" x1="0" y1="28.29" x2="256" y2="28.29"/>
			<line class="st2" x1="0" y1="40.021" x2="256" y2="40.021"/>
			<line class="st2" x1="0" y1="51.751" x2="256" y2="51.751"/>
			<line class="st2" x1="0" y1="63.482" x2="256" y2="63.482"/>
			<line class="st2" x1="0" y1="75.213" x2="256" y2="75.213"/>
			<line class="st2" x1="0" y1="86.943" x2="256" y2="86.943"/>
			<line class="st2" x1="0" y1="98.674" x2="256" y2="98.674"/>
			<line class="st2" x1="0" y1="110.404" x2="256" y2="110.404"/>
			<line class="st2" x1="0" y1="122.135" x2="256" y2="122.135"/>
			<line class="st2" x1="0" y1="133.865" x2="256" y2="133.865"/>
			<line class="st2" x1="0" y1="145.596" x2="256" y2="145.596"/>
			<line class="st2" x1="0" y1="157.326" x2="256" y2="157.326"/>
			<line class="st2" x1="0" y1="169.057" x2="256" y2="169.057"/>
			<line class="st2" x1="0" y1="180.788" x2="256" y2="180.788"/>
			<line class="st2" x1="0" y1="192.518" x2="256" y2="192.518"/>
			<line class="st2" x1="0" y1="204.249" x2="256" y2="204.249"/>
			<line class="st2" x1="0" y1="215.979" x2="256" y2="215.979"/>
			<line class="st2" x1="0" y1="227.71" x2="256" y2="227.71"/>
			<line class="st2" x1="0" y1="239.44" x2="256" y2="239.44"/>
			<line class="st2" x1="0" y1="251.171" x2="256" y2="251.171"/>
		</g>
		<g>
			<line class="st2" x1="251.171" y1="0" x2="251.171" y2="256"/>
			<line class="st2" x1="239.44" y1="0" x2="239.44" y2="256"/>
			<line class="st2" x1="227.71" y1="0" x2="227.71" y2="256"/>
			<line class="st2" x1="215.979" y1="0" x2="215.979" y2="256"/>
			<line class="st2" x1="204.249" y1="0" x2="204.249" y2="256"/>
			<line class="st2" x1="192.518" y1="0" x2="192.518" y2="256"/>
			<line class="st2" x1="180.788" y1="0" x2="180.788" y2="256"/>
			<line class="st2" x1="169.057" y1="0" x2="169.057" y2="256"/>
			<line class="st2" x1="157.326" y1="0" x2="157.326" y2="256"/>
			<line class="st2" x1="145.596" y1="0" x2="145.596" y2="256"/>
			<line class="st2" x1="133.865" y1="0" x2="133.865" y2="256"/>
			<line class="st2" x1="122.135" y1="0" x2="122.135" y2="256"/>
			<line class="st2" x1="110.404" y1="0" x2="110.404" y2="256"/>
			<line class="st2" x1="98.674" y1="0" x2="98.674" y2="256"/>
			<line class="st2" x1="86.943" y1="0" x2="86.943" y2="256"/>
			<line class="st2" x1="75.213" y1="0" x2="75.213" y2="256"/>
			<line class="st2" x1="63.482" y1="0" x2="63.482" y2="256"/>
			<line class="st2" x1="51.751" y1="0" x2="51.751" y2="256"/>
			<line class="st2" x1="40.021" y1="0" x2="40.021" y2="256"/>
			<line class="st2" x1="28.29" y1="0" x2="28.29" y2="256"/>
			<line class="st2" x1="16.56" y1="0" x2="16.56" y2="256"/>
			<line class="st2" x1="4.829" y1="0" x2="4.829" y2="256"/>
		</g>
	</g>
</g>
<g id="Layer_1">
	<g>
		<rect x="113.438" y="180.148" class="st4" width="28.625" height="35.729"/>
		<path class="st3" d="M142.062,217.376h-28.625c-0.828,0-1.5-0.671-1.5-1.5v-35.729c0-0.829,0.672-1.5,1.5-1.5h28.625
			c0.828,0,1.5,0.671,1.5,1.5v35.729C143.562,216.705,142.891,217.376,142.062,217.376z M114.938,214.376h25.625v-32.729h-25.625
			V214.376z"/>
		<path class="st4" d="M135.202,239.283h36.252c0-12.927-10.479-23.407-23.407-23.407h-40.593c-12.927,0-23.407,10.48-23.407,23.407
			h37.584H135.202z"/>
		<path class="st3" d="M171.453,240.783h-36.252c-0.828,0-1.5-0.671-1.5-1.5s0.672-1.5,1.5-1.5h34.701
			c-0.773-11.382-10.28-20.406-21.855-20.406h-40.594c-11.575,0-21.082,9.024-21.855,20.406h36.033c0.828,0,1.5,0.671,1.5,1.5
			s-0.672,1.5-1.5,1.5H84.047c-0.828,0-1.5-0.671-1.5-1.5c0-13.733,11.173-24.906,24.906-24.906h40.594
			c13.733,0,24.906,11.173,24.906,24.906C172.953,240.111,172.281,240.783,171.453,240.783z"/>
		<path class="st14" d="M47.661,26.325c0,0,3.408,12.659,13.222,13.246c0,0-13.1,4.525-13.321,14.202
			c0,0-2.579-13.572-12.925-14.059C34.637,39.714,46.688,37.888,47.661,26.325z"/>
		<path class="st3" d="M47.561,55.272c-0.713,0-1.335-0.506-1.473-1.217c-0.023-0.124-2.494-12.418-11.521-12.843
			c-0.771-0.037-1.388-0.651-1.428-1.421c-0.04-0.771,0.511-1.445,1.273-1.561c0.441-0.069,10.894-1.817,11.754-12.032
			c0.062-0.725,0.635-1.301,1.359-1.367c0.73-0.057,1.394,0.4,1.584,1.102c0.031,0.116,3.259,11.626,11.863,12.141
			c0.714,0.043,1.298,0.584,1.396,1.292c0.098,0.708-0.318,1.388-0.994,1.623c-0.121,0.042-12.118,4.31-12.312,12.819
			c-0.018,0.767-0.611,1.396-1.375,1.46C47.645,55.271,47.603,55.272,47.561,55.272z M39.819,39.543
			c3.878,1.969,6.23,5.746,7.587,8.876c2.026-4.021,5.942-6.787,8.949-8.427c-4.134-1.842-6.783-5.651-8.334-8.723
			C46.229,35.63,42.75,38.138,39.819,39.543z"/>
		<path class="st14" d="M25.962,43.305c0,0,2.411,8.954,9.352,9.369c0,0-9.266,3.201-9.422,10.046c0,0-1.824-9.6-9.142-9.944
			C16.75,52.776,25.274,51.484,25.962,43.305z"/>
		<path class="st3" d="M25.892,64.22c-0.714,0-1.337-0.507-1.473-1.22c-0.016-0.082-1.704-8.442-7.739-8.726
			c-0.771-0.037-1.388-0.651-1.428-1.421c-0.04-0.771,0.511-1.445,1.273-1.561c0.296-0.047,7.363-1.243,7.941-8.114
			c0.061-0.726,0.636-1.303,1.361-1.368c0.719-0.059,1.392,0.399,1.581,1.102l0,0c0.022,0.079,2.228,7.919,7.995,8.264
			c0.714,0.043,1.299,0.584,1.396,1.293c0.097,0.709-0.32,1.388-0.996,1.622c-0.081,0.028-8.282,2.953-8.412,8.662
			c-0.018,0.767-0.611,1.398-1.376,1.461C25.975,64.219,25.933,64.22,25.892,64.22z M21.372,52.692
			c2.107,1.332,3.523,3.394,4.447,5.28c1.376-2.232,3.515-3.872,5.365-4.973c-2.287-1.269-3.885-3.35-4.942-5.224
			C25.069,50.062,23.228,51.651,21.372,52.692z"/>
		<path class="st14" d="M25.962,16.648c0,0,2.411,8.954,9.352,9.369c0,0-9.266,3.201-9.422,10.045c0,0-1.824-9.6-9.142-9.944
			C16.75,26.118,25.274,24.827,25.962,16.648z"/>
		<path class="st3" d="M25.892,37.562c-0.714,0-1.337-0.507-1.473-1.22c-0.016-0.082-1.704-8.442-7.739-8.726
			c-0.771-0.037-1.388-0.651-1.428-1.421c-0.04-0.771,0.511-1.445,1.273-1.561c0.296-0.047,7.363-1.243,7.941-8.114
			c0.061-0.726,0.636-1.303,1.361-1.368c0.719-0.058,1.392,0.399,1.581,1.102l0,0c0.022,0.079,2.228,7.92,7.995,8.265
			c0.714,0.043,1.299,0.584,1.396,1.293c0.097,0.709-0.32,1.388-0.996,1.622c-0.081,0.028-8.282,2.952-8.412,8.662
			c-0.018,0.767-0.611,1.397-1.376,1.461C25.975,37.561,25.933,37.562,25.892,37.562z M21.372,26.035
			c2.107,1.333,3.523,3.394,4.447,5.28c1.376-2.232,3.516-3.872,5.364-4.973c-2.286-1.269-3.884-3.35-4.941-5.224
			C25.069,23.405,23.228,24.994,21.372,26.035z"/>
		<path class="st4" d="M53.733,159.01c-2.092-2.092-2.092-5.485,0-7.577L177.495,27.671c2.092-2.092,5.485-2.092,7.577,0
			c2.092,2.092,2.092,5.485,0,7.577L61.31,159.01C59.218,161.103,55.825,161.103,53.733,159.01z"/>
		<path class="st3" d="M57.521,162.08c-1.832,0-3.554-0.713-4.849-2.009l0,0c-1.296-1.295-2.009-3.017-2.009-4.849
			c0-1.832,0.713-3.554,2.009-4.849L176.435,26.611c1.295-1.295,3.017-2.009,4.849-2.009s3.554,0.713,4.85,2.009
			c2.674,2.674,2.674,7.025,0,9.698L62.371,160.071C61.075,161.366,59.354,162.08,57.521,162.08z M181.283,27.602
			c-1.03,0-1.999,0.401-2.728,1.13L54.794,152.494c-0.729,0.729-1.13,1.698-1.13,2.728c0,1.03,0.401,1.999,1.13,2.728
			c0,0.001,0,0.001,0,0.001c1.457,1.457,3.999,1.457,5.456-0.001L184.012,34.188c1.504-1.504,1.504-3.952,0-5.456
			C183.283,28.003,182.314,27.602,181.283,27.602z"/>
		<circle class="st21" cx="119.402" cy="93.341" r="70.099"/>
		<path class="st3" d="M119.402,164.94c-19.125,0-37.104-7.448-50.628-20.971c-13.523-13.523-20.972-31.503-20.972-50.628
			c0-19.124,7.448-37.105,20.972-50.628c13.523-13.523,31.503-20.971,50.628-20.971s37.105,7.448,50.629,20.971
			c27.916,27.917,27.916,73.34,0,101.257l0,0C156.508,157.493,138.527,164.94,119.402,164.94z M119.402,24.741
			c-18.323,0-35.55,7.136-48.507,20.092C57.938,57.791,50.803,75.018,50.803,93.341c0,18.324,7.136,35.55,20.093,48.507
			c12.957,12.957,30.184,20.092,48.507,20.092c18.324,0,35.551-7.136,48.508-20.092c26.746-26.747,26.746-70.268,0-97.015
			C154.953,31.877,137.727,24.741,119.402,24.741z M168.971,142.909h0.01H168.971z"/>
		<path class="st3" d="M96.489,154.487c-11.189,0-20.789-3.592-27.715-10.518c-9.219-9.218-12.531-23.177-9.328-39.306
			c3.159-15.91,12.306-32.078,25.753-45.525c27.916-27.915,65.974-35.286,84.832-16.425c18.859,18.86,11.491,56.916-16.426,84.831
			l0,0l0,0c-13.447,13.448-29.615,22.594-45.525,25.753C104.069,154.094,100.192,154.487,96.489,154.487z M142.239,35.202
			c-17.377,0-38.025,9.163-54.919,26.057c-13.032,13.033-21.887,28.655-24.932,43.989c-3.002,15.115,0.02,28.113,8.507,36.601
			c8.488,8.488,21.485,11.507,36.601,8.506c15.334-3.045,30.956-11.899,43.988-24.932l0,0
			c26.747-26.747,34.115-62.899,16.426-80.589C161.394,38.318,152.372,35.202,142.239,35.202z"/>
		<path class="st3" d="M74.641,146.065c-2.354,0-4.385-0.615-5.866-2.096c-5.079-5.078,0.023-16.63,5.197-25.427
			c6.997-11.896,18.19-25.787,31.518-39.114c13.327-13.328,27.219-24.52,39.114-31.517c8.797-5.174,20.349-10.277,25.428-5.198
			c5.078,5.079-0.023,16.631-5.198,25.427c-6.997,11.896-18.19,25.787-31.518,39.114l0,0l0,0
			c-13.327,13.327-27.218,24.521-39.114,31.518C87.971,142.436,80.356,146.065,74.641,146.065z M164.152,43.609
			c-4.038,0-10.36,2.377-18.027,6.887c-11.684,6.872-25.361,17.9-38.515,31.053C94.458,94.702,83.43,108.38,76.558,120.063
			c-6.365,10.822-8.481,18.965-5.662,21.785c2.821,2.819,10.964,0.703,21.785-5.663c11.684-6.872,25.361-17.9,38.514-31.053l0,0
			c13.152-13.153,24.181-26.831,31.053-38.514c6.365-10.821,8.482-18.965,5.663-21.785
			C167.088,44.012,165.814,43.609,164.152,43.609z"/>
		<path class="st3" d="M142.286,154.421c-18.213,0-39.631-9.42-57.087-26.877l0,0c-13.447-13.448-22.594-29.616-25.753-45.525
			c-3.203-16.129,0.109-30.088,9.328-39.306c9.217-9.218,23.176-12.532,39.306-9.328c15.91,3.159,32.078,12.305,45.525,25.753
			c27.917,27.916,35.285,65.972,16.426,84.831C162.965,151.036,153.199,154.421,142.286,154.421z M87.32,125.423
			c26.748,26.747,62.899,34.115,80.59,16.425c17.689-17.69,10.321-53.843-16.426-80.589c-13.032-13.032-28.654-21.887-43.988-24.932
			c-15.116-3.003-28.113,0.019-36.601,8.506s-11.509,21.486-8.507,36.601C65.434,96.768,74.288,112.39,87.32,125.423L87.32,125.423z
			"/>
		<path class="st3" d="M164.165,146.065c-5.717,0-13.33-3.628-19.561-7.294c-11.896-6.997-25.787-18.19-39.114-31.518l0,0
			C92.162,93.927,80.969,80.036,73.972,68.14c-5.174-8.796-10.276-20.349-5.197-25.427c5.076-5.078,16.63,0.023,25.427,5.198
			c11.896,6.997,25.787,18.19,39.114,31.517c13.327,13.327,24.521,27.218,31.518,39.114c5.175,8.797,10.276,20.349,5.198,25.427
			C168.551,145.45,166.519,146.065,164.165,146.065z M107.61,105.133c13.153,13.153,26.831,24.181,38.515,31.053
			c10.822,6.365,18.966,8.482,21.785,5.663c2.819-2.82,0.702-10.964-5.663-21.785c-6.872-11.684-17.9-25.361-31.053-38.514
			c-13.152-13.152-26.83-24.181-38.514-31.053c-10.824-6.366-18.967-8.482-21.785-5.663c-2.819,2.82-0.703,10.964,5.662,21.785
			C83.43,78.302,94.458,91.979,107.61,105.133L107.61,105.133z"/>
		<path class="st8" d="M54.254,159.531c-3.878-3.877-7.423-8.105-10.538-12.564c-1.694-2.426-1.101-5.766,1.325-7.46
			c2.425-1.695,5.76-1.11,7.46,1.324c2.756,3.946,5.895,7.688,9.33,11.123c32.032,32.032,84.152,32.032,116.184,0
			c32.032-32.032,32.032-84.153,0-116.184c-3.435-3.435-7.176-6.573-11.123-9.33c-2.427-1.695-3.019-5.036-1.324-7.46
			c1.695-2.426,5.035-3.019,7.46-1.325c4.46,3.115,8.687,6.66,12.564,10.538c36.21,36.21,36.21,95.129,0,131.339
			C149.382,195.741,90.464,195.741,54.254,159.531z"/>
		<path class="st3" d="M119.923,188.189c-25.235,0-48.934-9.801-66.729-27.597l0,0l0,0c-3.938-3.938-7.541-8.232-10.707-12.766
			c-1.049-1.502-1.45-3.322-1.13-5.126c0.32-1.804,1.323-3.374,2.826-4.424c1.501-1.05,3.319-1.453,5.121-1.133
			c1.804,0.319,3.376,1.323,4.427,2.829c2.706,3.874,5.789,7.549,9.161,10.921c15.209,15.208,35.463,23.584,57.031,23.584
			c21.568,0,41.822-8.376,57.031-23.584c15.209-15.209,23.585-35.463,23.585-57.032c0-21.569-8.376-41.823-23.585-57.032
			c-3.374-3.374-7.048-6.456-10.921-9.16c-1.502-1.049-2.505-2.621-2.825-4.424c-0.32-1.804,0.081-3.625,1.131-5.125
			c1.049-1.501,2.619-2.505,4.423-2.825c1.804-0.32,3.623,0.081,5.126,1.13c4.53,3.165,8.825,6.767,12.766,10.706
			c36.795,36.796,36.795,96.665,0,133.46C168.856,178.388,145.158,188.189,119.923,188.189z M48.104,140.037
			c-0.783,0-1.547,0.24-2.204,0.699c-0.846,0.59-1.41,1.474-1.591,2.489c-0.18,1.015,0.046,2.039,0.636,2.883
			c3.066,4.389,6.555,8.548,10.369,12.362l0,0c17.229,17.23,40.175,26.718,64.608,26.718c24.434,0,47.379-9.489,64.609-26.718
			c35.625-35.625,35.625-93.592,0-129.218c-3.816-3.815-7.976-7.304-12.363-10.369c-0.844-0.59-1.866-0.816-2.883-0.635
			c-1.015,0.18-1.897,0.745-2.488,1.589c-0.591,0.845-0.816,1.869-0.637,2.883c0.181,1.015,0.745,1.899,1.59,2.489
			c4.017,2.806,7.827,6.001,11.324,9.499c15.775,15.775,24.464,36.783,24.464,59.153c0,22.37-8.688,43.378-24.464,59.153
			c-15.774,15.774-36.784,24.463-59.152,24.463c-0.002,0,0.001,0,0,0c-22.37,0-43.377-8.688-59.152-24.463
			c-3.497-3.497-6.692-7.307-9.499-11.325c-0.592-0.848-1.477-1.413-2.49-1.592C48.556,140.057,48.329,140.037,48.104,140.037z"/>
		
			<ellipse transform="matrix(0.0985 -0.9951 0.9951 0.0985 -16.9627 341.4796)" class="st7" cx="180" cy="180.102" rx="59.25" ry="59.25"/>
		<path class="st3" d="M180,240.852c-33.498,0-60.75-27.252-60.75-60.75c0-33.497,27.252-60.75,60.75-60.75
			s60.75,27.252,60.75,60.75C240.75,213.6,213.498,240.852,180,240.852z M180,122.353c-31.844,0-57.75,25.907-57.75,57.75
			c0,31.843,25.906,57.75,57.75,57.75c31.844,0,57.75-25.907,57.75-57.75C237.75,148.259,211.844,122.353,180,122.353z"/>
		
			<ellipse transform="matrix(0.2298 -0.9732 0.9732 0.2298 -36.6401 313.9082)" class="st11" cx="180" cy="180.102" rx="48.182" ry="48.182"/>
		<path class="st3" d="M180,229.784c-27.395,0-49.682-22.287-49.682-49.682c0-27.395,22.287-49.682,49.682-49.682
			s49.682,22.287,49.682,49.682C229.682,207.497,207.395,229.784,180,229.784z M180,133.421c-25.74,0-46.682,20.941-46.682,46.682
			c0,25.74,20.941,46.682,46.682,46.682s46.682-20.941,46.682-46.682C226.682,154.362,205.74,133.421,180,133.421z"/>
		<path class="st8" d="M174.006,176.072c1.297-1.928,3.494-3.192,5.994-3.192c2.419,0,4.556,1.183,5.866,3.01l-5.92-39.551
			L174.006,176.072z"/>
		<path class="st3" d="M174.006,177.572c-0.182,0-0.365-0.033-0.543-0.102c-0.653-0.254-1.044-0.927-0.94-1.62l5.94-39.732
			c0.109-0.735,0.74-1.278,1.483-1.278c0.742,0,1.373,0.544,1.483,1.278l5.92,39.551c0.103,0.686-0.277,1.352-0.92,1.612
			c-0.64,0.261-1.379,0.047-1.782-0.516c-1.071-1.493-2.808-2.385-4.648-2.385c-1.909,0-3.685,0.945-4.749,2.529
			C174.965,177.333,174.493,177.572,174.006,177.572z M179.947,146.479l-3.861,25.827c2.351-1.18,5.336-1.205,7.72-0.049
			L179.947,146.479z"/>
		<path class="st9" d="M185.866,184.311l-5.92,39.578l-5.947-39.76c1.297,1.928,3.501,3.199,6.001,3.199
			C182.419,187.327,184.563,186.138,185.866,184.311z"/>
		<path class="st3" d="M179.946,225.389c-0.743,0-1.374-0.544-1.483-1.278l-5.947-39.76c-0.104-0.693,0.287-1.366,0.941-1.62
			c0.65-0.254,1.395-0.02,1.787,0.561c1.069,1.588,2.847,2.536,4.757,2.536c1.842,0,3.578-0.893,4.645-2.388
			c0.402-0.564,1.135-0.781,1.783-0.52c0.643,0.26,1.023,0.927,0.921,1.612l-5.92,39.578
			C181.32,224.845,180.689,225.389,179.946,225.389z M176.079,187.898l3.867,25.851l3.858-25.797
			C181.423,189.109,178.434,189.083,176.079,187.898z"/>
		<circle class="st7" cx="180" cy="180.102" r="7.223"/>
		<path class="st3" d="M180,188.826c-4.811,0-8.724-3.914-8.724-8.724c0-4.81,3.913-8.724,8.724-8.724s8.724,3.914,8.724,8.724
			C188.724,184.913,184.811,188.826,180,188.826z M180,174.379c-3.156,0-5.724,2.567-5.724,5.724c0,3.156,2.567,5.724,5.724,5.724
			c3.156,0,5.724-2.567,5.724-5.724C185.724,176.946,183.156,174.379,180,174.379z"/>
		<path class="st17" d="M180,133.418c-2.55,0-5.06,0.21-7.5,0.61c2.12,0.34,4.2,0.82,6.22,1.45c0.27-0.39,0.72-0.64,1.23-0.64
			c0.74,0,1.37,0.55,1.48,1.28l0.05,0.31c17.63,6.67,30.2,23.73,30.2,43.68c0,19.94-12.57,37-30.2,43.67l-0.05,0.33
			c-0.11,0.74-0.74,1.28-1.48,1.28c-0.51,0-0.97-0.25-1.24-0.65c-2.02,0.62-4.09,1.1-6.21,1.44c2.44,0.4,4.95,0.61,7.5,0.61
			c25.74,0,46.68-20.94,46.68-46.68C226.68,154.358,205.74,133.418,180,133.418z"/>
	</g>
</g>
</svg>
