<svg width="1337" height="1539" viewBox="0 0 1337 1539" fill="none" xmlns="http://www.w3.org/2000/svg">
<path d="M751.55 238.154V238.349L751.56 238.543L756.93 341.832C756.85 347.022 753.085 350.162 749.704 350.162C746.324 350.162 742.559 347.022 742.479 341.832L747.849 238.543L747.859 238.349V238.154C747.859 237.224 748.203 236.501 748.615 236.053C749.017 235.616 749.407 235.5 749.705 235.5C750.002 235.5 750.392 235.616 750.794 236.053C751.206 236.501 751.55 237.224 751.55 238.154Z" fill="#87796F" stroke="#3A312A" stroke-width="15"/>
<path d="M159.842 187.75C158.519 177.544 157.471 166.334 156.759 154.43C156.032 142.281 155.64 129.457 155.64 116.286C155.64 92.3129 156.917 69.794 159.132 50.5739C161.47 30.2896 164.865 13.6479 168.928 2.72742L168.923 2.68845C170.406 -1.29187 172.232 -0.716677 173.553 3.5164C177.489 14.4416 180.78 30.7704 183.062 50.5751C185.276 69.7952 186.555 92.3141 186.555 116.286C186.555 129.459 186.162 142.282 185.435 154.43C184.687 166.927 183.57 178.657 182.152 189.265L178.574 180.063L182.165 189.304C181.38 195.169 179.965 198.404 178.518 198.324H163.62C161.947 198.324 160.504 193.994 159.842 187.75Z" fill="#87796F"/>
<path d="M275.876 1146.5H1307.26C1318.81 1146.5 1329.22 1156.87 1329.22 1171V1507C1329.22 1521.13 1318.81 1531.5 1307.26 1531.5H275.83C275.831 1467.34 275.842 1403.17 275.853 1339.01V1339C275.864 1274.84 275.875 1210.67 275.876 1146.5ZM681.825 1351.02C672.057 1340.41 658.396 1333.69 643.176 1333.69C627.957 1333.69 614.297 1340.41 604.529 1351.02C594.77 1361.63 588.822 1376.17 588.822 1392.1C588.822 1408.03 594.77 1422.57 604.529 1433.17C614.297 1443.78 627.957 1450.5 643.176 1450.5C658.396 1450.5 672.057 1443.78 681.825 1433.17C691.584 1422.57 697.531 1408.03 697.531 1392.1C697.531 1376.17 691.584 1361.63 681.825 1351.02ZM797.012 1228.83C787.244 1218.22 773.584 1211.5 758.365 1211.5C743.145 1211.5 729.485 1218.22 719.717 1228.83C709.958 1239.44 704.011 1253.98 704.011 1269.91C704.011 1285.84 709.958 1300.38 719.717 1310.98C729.485 1321.59 743.145 1328.31 758.365 1328.31C773.584 1328.31 787.244 1321.59 797.012 1310.98C806.771 1300.38 812.719 1285.84 812.719 1269.91C812.719 1253.98 806.771 1239.44 797.012 1228.83ZM912.201 1351.02C902.433 1340.41 888.773 1333.69 873.553 1333.69C858.333 1333.69 844.673 1340.41 834.904 1351.02C825.146 1361.63 819.198 1376.17 819.198 1392.1C819.198 1408.03 825.146 1422.57 834.904 1433.17C844.673 1443.78 858.333 1450.5 873.553 1450.5C888.773 1450.5 902.433 1443.78 912.201 1433.17C921.959 1422.57 927.907 1408.03 927.907 1392.1C927.907 1376.17 921.96 1361.63 912.201 1351.02Z" fill="#87796F" stroke="#3A312A" stroke-width="15"/>
<path d="M118.218 256.986L118.097 256.753L117.956 256.532C111.359 246.143 106.141 234.731 102.591 222.612L102.591 222.612C98.9601 210.221 97 197.145 97 183.717C97 159.261 103.381 136.317 114.417 116.754L114.417 116.754C126.061 96.1093 142.95 79.2217 163.096 68.1612L164.216 67.5462C169.729 65.0507 176.27 65.6621 181.007 68.7619L181.167 68.8663L181.333 68.9604C200.85 80.0272 217.215 96.5989 228.583 116.755C239.616 136.318 246 159.263 246 183.717C246 197.147 244.04 210.222 240.409 222.611L240.409 222.612C237.205 233.549 232.644 243.909 226.935 253.461L213.232 246.26L213.231 246.259L207.648 256.881L207.649 256.882L218.965 262.832C216.411 264.254 213.383 265.035 210.216 264.999L210.182 264.998H210.148H132.56C125.916 264.998 120.554 261.493 118.218 256.986Z" fill="#FAE6CA" stroke="#3A312A" stroke-width="12"/>
<path d="M771.113 345.987L771.115 346.014L771.117 346.041C773.393 374.42 792.427 400.1 818.279 424.193C844.212 448.362 878.433 472.205 913.51 496.644L913.818 496.858L916.945 492.369L913.818 496.858C940.536 515.474 967.786 534.465 993.884 555.232C1054.85 603.749 1106.12 658.45 1123.43 728.96C1140.66 799.17 1124.64 886.964 1046.65 1002.66C1039.39 1013.42 1025.97 1015.44 1016.46 1007.87L1014.86 1006.59L1012.82 1006.31C961.014 999.089 857.792 998.64 753.822 1000.18C691.995 1001.09 629.054 1002.74 576.286 1004.11C540.55 1005.04 509.479 1005.85 486.578 1006.24L484.026 1006.28L482.03 1007.87C472.519 1015.44 459.106 1013.42 451.846 1002.66C373.849 886.963 357.829 799.17 375.062 728.959C392.369 658.45 443.638 603.749 504.608 555.232C530.705 534.465 557.956 515.474 584.674 496.858L580.387 490.705L584.674 496.858L584.982 496.644C620.06 472.204 654.281 448.362 680.213 424.193C706.065 400.1 725.1 374.42 727.375 346.041L727.377 346.014L727.379 345.987C727.504 344.267 727.79 342.596 728.218 340.993L728.222 340.979L728.225 340.966L728.237 340.92L728.377 340.423L728.387 340.388L728.416 340.288L728.501 340.012L728.519 339.952L728.62 339.636L728.639 339.575L728.641 339.569L728.665 339.497L728.823 339.031L728.83 339.013L728.836 338.996C732.203 329.477 740.225 323.716 749.054 323.5C757.953 323.492 766.236 329.326 769.656 338.996L769.66 339.006L769.664 339.017L769.829 339.502L769.851 339.568L769.853 339.575L769.874 339.641L769.973 339.952L769.991 340.011L770.076 340.287L770.105 340.389L770.115 340.423L770.254 340.917L770.265 340.959L770.27 340.977L770.275 340.996C770.703 342.595 770.988 344.264 771.113 345.987Z" fill="#D6DF58" stroke="#3A312A" stroke-width="15"/>
<path d="M95.4126 810.747H246.781C258.332 810.747 268.735 821.119 268.735 835.247V1415.13V1507.25V1531.75H246.781H200.244H95.4128C83.8622 1531.75 73.459 1521.38 73.459 1507.25V835.247C73.459 821.119 83.862 810.747 95.4126 810.747Z" fill="#FAE6CA" stroke="#3A312A" stroke-width="15"/>
<path d="M233.707 764.757H108.487C96.9364 764.757 86.5332 754.384 86.5332 740.256V532.255C86.5332 518.126 96.9364 507.754 108.487 507.754H233.707C245.258 507.754 255.661 518.126 255.661 532.255V740.256C255.661 754.384 245.258 764.757 233.707 764.757Z" fill="#FAE6CA" stroke="#3A312A" stroke-width="15"/>
<path d="M54.5604 860.757H54.485L54.4097 860.758C45.0447 860.946 35.7419 854.193 32.8951 842.848L30.9825 843.328L30.9743 843.316L33.0082 842.805L9.63557 749.671L9.55643 749.355L9.4503 749.048C8.51192 746.331 7.99023 743.37 7.99023 740.256C7.99023 726.127 18.3935 715.755 29.9441 715.755H311.73H311.8L311.87 715.754C313.835 715.717 315.848 715.976 317.866 716.574L317.866 716.574C328.552 719.739 335.855 731.616 333.902 744.315L333.275 746.814L309.894 839.981L309.815 840.295L309.763 840.615C307.845 852.526 298.494 860.757 288.156 860.757H54.5604Z" fill="#87796F" stroke="#3A312A" stroke-width="15"/>
<path d="M1107.6 996.953L1107.72 997.24L1107.86 997.517L1165.53 1111.88L1166.6 1114.01C1171.26 1125.8 1166.81 1139.48 1156.8 1145.44C1153.39 1147.47 1149.77 1148.37 1146.24 1148.33L1146.19 1148.32H1146.14H371.417C359.866 1148.32 349.463 1137.95 349.463 1123.82C349.463 1118.66 350.892 1113.92 353.286 1110.02L353.45 1109.75L353.591 1109.47L410.323 996.962L432.908 982.502H1087.58C1096.19 982.502 1104.04 988.139 1107.6 996.953Z" fill="#8AC6DD" stroke="#3A312A" stroke-width="15"/>
<path d="M172.146 235.5H172.147C199.364 235.5 223.84 244.149 241.347 257.756C258.849 271.362 269.113 289.639 269.113 309.202V380.799C269.113 387.821 260.974 396.5 246.765 396.5H97.5277C83.318 396.5 75.1797 387.821 75.1797 380.799V309.202C75.1797 289.638 85.4438 271.362 102.946 257.756C120.453 244.149 144.928 235.5 172.146 235.5Z" fill="#FAE6CA" stroke="#3A312A" stroke-width="15"/>
<path d="M72.8324 556.496H72.7696L72.7069 556.497C64.8974 556.628 56.8671 551.57 52.7384 542.545L53.5866 542.314L49.7188 527.821L49.07 527.991L30.3169 434.987L30.2714 434.762L30.2122 434.539C29.5316 431.984 29.1602 429.253 29.1602 426.403C29.1602 410.54 40.1555 399.504 51.6176 399.504H294.961H295.025L295.089 399.503C296.784 399.474 298.515 399.675 300.26 400.139L300.262 400.14C311.288 403.071 319.609 416.028 317.61 430.636L317.202 432.662L296.849 533.594L296.805 533.816L296.773 534.041C294.884 547.588 284.995 556.496 274.624 556.496H72.8324Z" fill="#87796F" stroke="#3A312A" stroke-width="15"/>
<path d="M735.888 130.979C731.559 129.403 726.616 129.681 722.297 132.169C712.685 137.712 704.875 145.752 699.454 155.265C694.012 164.817 691 175.753 691 187.049C691 204.429 697.859 220.168 708.943 231.561C720.029 242.951 735.344 250 752.256 250C763.889 250 775.096 246.528 784.723 240.33C794.332 234.142 802.259 225.271 807.357 214.457C810.35 208.087 809.113 200.745 804.792 195.781C797.241 213.951 779.696 226.686 759.256 226.686C731.922 226.686 709.763 203.913 709.763 175.823C709.763 156.419 720.338 139.555 735.888 130.979Z" fill="#87796F"/>
</svg>
