<svg width="256" height="256" viewBox="0 0 256 256" fill="none" xmlns="http://www.w3.org/2000/svg">
<g opacity="0.9" clip-path="url(#clip0_317_977)">
<path d="M34.444 74.882C29.946 74.045 26.401 70.572 25.546 66.166C25.503 65.945 25.194 65.945 25.151 66.166C24.296 70.572 20.751 74.045 16.253 74.882C16.027 74.924 16.027 75.227 16.253 75.269C20.751 76.107 24.296 79.58 25.151 83.986C25.194 84.207 25.503 84.207 25.546 83.986C26.401 79.58 29.946 76.107 34.444 75.269C34.67 75.227 34.67 74.924 34.444 74.882Z" fill="#F5C84C"/>
<path d="M164.863 6.36101C161.642 5.76101 159.103 3.27401 158.491 0.118012C158.46 -0.0399883 158.239 -0.0399883 158.208 0.118012C157.596 3.27401 155.057 5.76101 151.836 6.36101C151.674 6.39101 151.674 6.60801 151.836 6.63801C155.057 7.23801 157.596 9.72501 158.208 12.88C158.239 13.039 158.46 13.039 158.491 12.88C159.103 9.72501 161.642 7.23701 164.863 6.63801C165.025 6.60801 165.025 6.39201 164.863 6.36101Z" fill="#FC657E"/>
<path d="M152.843 201.302H150.514V198.972C150.514 197.228 149.101 195.815 147.357 195.815C145.613 195.815 144.2 197.228 144.2 198.972V201.302H141.87C140.126 201.302 138.713 202.716 138.713 204.46C138.713 206.204 140.126 207.617 141.87 207.617H144.2V209.947C144.2 211.691 145.613 213.105 147.357 213.105C149.101 213.105 150.514 211.691 150.514 209.947V207.617H152.843C154.587 207.617 156 206.203 156 204.46C156 202.715 154.587 201.302 152.843 201.302Z" fill="#70D6F9"/>
<path d="M157.377 224C155.512 224 154 225.512 154 227.377C154 229.242 155.512 230.754 157.377 230.754C159.242 230.754 160.754 229.242 160.754 227.377C160.754 225.512 159.242 224 157.377 224Z" fill="#F5C84C"/>
<path d="M15.377 92C13.512 92 12 93.512 12 95.377C12 97.242 13.512 98.754 15.377 98.754C17.242 98.754 18.754 97.242 18.754 95.377C18.754 93.512 17.242 92 15.377 92Z" fill="#87D147"/>
<path d="M203.274 31.7939H199.781V136.188C199.781 138.84 197.33 140.801 194.74 140.231C184.764 138.033 161.661 134.81 140.783 145.515C136.878 147.517 132.592 148.665 128.204 148.665H127.795C123.407 148.665 119.121 147.518 115.217 145.516C94.3389 134.81 71.2359 138.034 61.2599 140.231C58.6699 140.802 56.2189 138.841 56.2189 136.189V31.7939H52.7259C48.9219 31.7939 45.8389 34.8769 45.8389 38.6809V155.056C45.8389 158.86 48.9219 161.943 52.7259 161.943H108.467C111.088 161.943 113.391 163.51 114.551 165.86C116.998 170.817 122.097 174.228 127.999 174.228C133.901 174.228 139 170.817 141.447 165.86C142.607 163.51 144.911 161.943 147.531 161.943H203.272C207.076 161.943 210.159 158.86 210.159 155.056V38.6809C210.161 34.8769 207.077 31.7939 203.274 31.7939Z" fill="#FC657E"/>
<path d="M194.74 140.23C184.764 138.032 161.661 134.809 140.783 145.514C136.878 147.516 132.592 148.664 128.204 148.664H127.795C123.407 148.664 119.121 147.517 115.217 145.515C94.339 134.809 71.236 138.033 61.26 140.23C58.67 140.801 56.219 138.84 56.219 136.188V147.421C56.219 149.336 57.771 150.888 59.686 150.888H196.315C198.229 150.888 199.781 149.336 199.781 147.421V136.188C199.781 138.84 197.33 140.801 194.74 140.23Z" fill="#C7D7E5"/>
<path d="M196.815 24.8681C158.463 13.3711 128 36.7551 128 36.7551V148.664H128.204C132.592 148.664 136.878 147.517 140.783 145.514C161.661 134.808 184.764 138.032 194.74 140.23C197.33 140.8 199.781 138.839 199.781 136.187V28.8481C199.781 27.0141 198.572 25.3951 196.815 24.8681Z" fill="#EDF4FC"/>
<path d="M59.185 24.8681C57.428 25.3941 56.219 27.0141 56.219 28.8471V136.187C56.219 138.839 58.67 140.8 61.26 140.229C71.236 138.032 94.339 134.809 115.217 145.514C119.121 147.516 123.407 148.663 127.795 148.663H128V36.7551C128 36.7551 97.537 13.3711 59.185 24.8681Z" fill="#EDF4FC"/>
<path d="M224.77 142.924C226.155 138.614 226.698 134.079 226.353 129.565C225.861 123.12 225.3 113.242 225.729 105.729C225.797 104.534 225.009 103.466 223.847 103.179C217.789 101.685 211.73 105.662 210.723 111.82C210.513 113.104 210.327 114.491 210.161 115.963V155.055C210.161 158.859 207.078 161.942 203.274 161.942H159.129C159.412 162.37 159.686 162.803 159.979 163.225L162.679 167.1C167.041 173.362 170.211 180.374 172.031 187.785L174.245 196.799L222.753 184.886L220.155 174.307C218.606 167.999 218.838 161.385 220.824 155.202L224.77 142.924Z" fill="#F9D0B4"/>
<path d="M248.824 249.207L235.907 198.692C235.42 196.71 233.419 195.498 231.437 195.984L171.888 210.608C169.906 211.095 168.694 213.096 169.18 215.078L177.568 250.845C177.933 252.401 179.32 253.5 180.918 253.5H245.489C247.737 253.5 249.381 251.383 248.824 249.207Z" fill="#70D6F9"/>
<path d="M228.722 186.897C228.277 185.086 226.449 183.979 224.639 184.424L172.557 197.215C170.747 197.659 169.639 199.487 170.084 201.298L172.343 210.496L230.981 196.096L228.722 186.897Z" fill="#EDF4FC"/>
<path d="M176.538 195.652L174.459 187.188C172.558 179.448 169.284 172.209 164.73 165.671L162.03 161.795C161.844 161.529 161.668 161.258 161.492 160.986C160.739 159.83 159.189 159.505 158.033 160.257C156.876 161.011 156.55 162.56 157.303 163.717C157.509 164.031 157.714 164.346 157.928 164.654L160.628 168.529C164.83 174.56 167.85 181.24 169.604 188.382L171.683 196.846C171.963 197.987 172.985 198.75 174.109 198.75C174.306 198.75 174.507 198.726 174.707 198.677C176.047 198.348 176.868 196.993 176.538 195.652Z" fill="#3A312A"/>
<path d="M227.15 143.688C228.645 139.033 229.216 134.217 228.846 129.375C228.333 122.671 227.81 113.151 228.225 105.872C228.362 103.48 226.773 101.327 224.446 100.752C220.875 99.872 217.067 100.528 214 102.554C210.941 104.573 208.847 107.803 208.256 111.417C208.056 112.637 207.871 113.993 207.703 115.449C207.546 116.821 208.53 118.06 209.902 118.218C211.275 118.384 212.514 117.392 212.671 116.02C212.829 114.643 213.004 113.366 213.191 112.224C213.563 109.951 214.829 107.998 216.754 106.727C218.69 105.45 220.997 105.051 223.233 105.587C222.802 113.143 223.337 122.9 223.86 129.756C224.18 133.95 223.685 138.123 222.389 142.159L218.445 154.438C216.316 161.065 216.068 168.142 217.728 174.905L220.188 184.923C220.468 186.064 221.49 186.827 222.614 186.827C222.811 186.827 223.012 186.803 223.212 186.754C224.553 186.425 225.373 185.07 225.044 183.73L222.584 173.713C221.145 167.85 221.36 161.714 223.206 155.968L227.15 143.688Z" fill="#3A312A"/>
<path d="M251.246 248.587L238.334 198.095C237.939 196.489 236.942 195.131 235.527 194.274C234.112 193.417 232.448 193.165 230.84 193.557L171.292 208.181C169.685 208.576 168.327 209.572 167.47 210.988C166.613 212.403 166.358 214.068 166.746 215.65L175.135 251.416C175.768 254.116 178.147 256.001 180.919 256.001H245.49C247.338 256.001 249.049 255.164 250.182 253.704C251.316 252.243 251.704 250.378 251.246 248.587ZM246.233 250.636C246.128 250.773 245.891 251 245.49 251H180.919C180.48 251 180.103 250.701 180.003 250.273L171.608 214.481C171.505 214.063 171.65 213.735 171.747 213.577C171.843 213.42 172.066 213.139 172.484 213.036L232.033 198.412C232.135 198.387 232.231 198.377 232.321 198.377C232.601 198.377 232.818 198.478 232.938 198.55C233.096 198.646 233.376 198.869 233.485 199.311L246.402 249.826C246.501 250.214 246.339 250.5 246.233 250.636Z" fill="#3A312A"/>
<path d="M233.257 194.881L231.15 186.302C230.776 184.778 229.831 183.49 228.488 182.677C227.145 181.864 225.567 181.621 224.043 181.996L171.961 194.787C170.437 195.161 169.149 196.106 168.336 197.449C167.523 198.791 167.282 200.369 167.656 201.893L169.747 210.408C170.027 211.55 171.048 212.313 172.173 212.313C172.37 212.313 172.571 212.289 172.771 212.24C174.112 211.911 174.932 210.557 174.603 209.217L172.512 200.702C172.437 200.395 172.543 200.155 172.614 200.039C172.684 199.924 172.847 199.718 173.154 199.643L225.236 186.852C225.542 186.781 225.782 186.884 225.899 186.954C226.015 187.024 226.221 187.187 226.296 187.495L228.403 196.075C228.732 197.415 230.085 198.228 231.427 197.906C232.767 197.576 233.587 196.222 233.257 194.881Z" fill="#3A312A"/>
<path d="M52.7259 161.943C48.9219 161.943 45.8389 158.86 45.8389 155.056V115.964C45.6729 114.492 45.4869 113.105 45.2769 111.821C44.2689 105.663 38.2109 101.687 32.1529 103.18C30.9909 103.467 30.2029 104.535 30.2709 105.73C30.6999 113.243 30.1399 123.121 29.6469 129.566C29.3019 134.08 29.8459 138.615 31.2299 142.925L35.1739 155.203C37.1609 161.387 37.3919 168.001 35.8429 174.308L33.2449 184.887L81.7549 196.8L83.9689 187.786C85.7889 180.375 88.9589 173.363 93.3209 167.101L96.0209 163.226C96.3149 162.804 96.5889 162.371 96.8709 161.943H52.7259Z" fill="#F9D0B4"/>
<path d="M84.1119 210.608L24.5629 195.984C22.5809 195.497 20.5799 196.71 20.0929 198.692L7.17585 249.207C6.61885 251.383 8.26285 253.5 10.5099 253.5H75.0809C76.6789 253.5 78.0659 252.4 78.4309 250.845L86.8189 215.078C87.3059 213.096 86.0939 211.095 84.1119 210.608Z" fill="#70D6F9"/>
<path d="M83.443 197.215L31.361 184.424C29.551 183.979 27.723 185.087 27.278 186.897L25.019 196.095L83.657 210.495L85.916 201.297C86.361 199.487 85.253 197.659 83.443 197.215Z" fill="#EDF4FC"/>
<path d="M48.2849 115.341C48.1209 113.93 47.9399 112.61 47.7449 111.417C47.1539 107.803 45.0599 104.572 42.0009 102.554C38.9329 100.529 35.1249 99.8709 31.5539 100.753C29.2279 101.327 27.6389 103.481 27.7759 105.872C28.1919 113.151 27.6679 122.671 27.1549 129.375C26.7849 134.219 27.3559 139.035 28.8509 143.688L32.7949 155.967C34.6409 161.713 34.8569 167.849 33.4169 173.711L31.0639 183.291C30.7339 184.632 31.5549 185.986 32.8959 186.315C33.0959 186.364 33.2969 186.388 33.4939 186.388C34.6179 186.388 35.6399 185.624 35.9199 184.484L38.2729 174.903C39.9329 168.141 39.6849 161.064 37.5559 154.437L33.6119 142.158C32.3149 138.123 31.8199 133.95 32.1409 129.755C32.6649 122.9 33.1999 113.142 32.7529 105.607C35.0049 105.05 37.3129 105.448 39.2479 106.726C41.1739 107.997 42.4389 109.95 42.8109 112.223C42.9929 113.339 43.1639 114.581 43.3189 115.916C43.4779 117.287 44.7169 118.276 46.0899 118.111C47.4599 117.953 48.4429 116.713 48.2849 115.341Z" fill="#3A312A"/>
<path d="M97.9789 160.242C96.8229 159.486 95.2739 159.814 94.5199 160.971C94.3389 161.249 94.1579 161.527 93.9699 161.797L91.2699 165.672C86.7149 172.21 83.4409 179.449 81.5409 187.189L79.5539 195.28C79.2239 196.622 80.0449 197.975 81.3859 198.304C81.5859 198.353 81.7869 198.377 81.9839 198.377C83.1079 198.377 84.1299 197.612 84.4099 196.473L86.3969 188.382C88.1509 181.241 91.1699 174.562 95.3729 168.529L98.0739 164.652C98.2919 164.339 98.4999 164.02 98.7079 163.701C99.4609 162.545 99.1349 160.996 97.9789 160.242Z" fill="#3A312A"/>
<path d="M88.5299 210.987C87.6729 209.571 86.3149 208.575 84.7079 208.18L25.1599 193.557C23.5549 193.164 21.8889 193.416 20.4729 194.274C19.0569 195.131 18.0599 196.489 17.6719 198.073L4.75293 248.587C4.29493 250.378 4.68294 252.243 5.81694 253.703C6.95094 255.163 8.66194 256 10.5099 256H75.0809C77.8529 256 80.2319 254.115 80.8649 251.416L89.2469 215.675C89.6429 214.067 89.3879 212.402 88.5299 210.987ZM84.3859 214.507L75.9969 250.275C75.8969 250.702 75.5199 251.001 75.0809 251.001H10.5099C10.1089 251.001 9.87194 250.773 9.76694 250.637C9.66194 250.501 9.49893 250.215 9.59793 249.826L22.5209 199.289C22.6239 198.87 22.9039 198.646 23.0619 198.551C23.1819 198.479 23.3989 198.378 23.6789 198.378C23.7689 198.378 23.8649 198.388 23.9669 198.413L83.5159 213.037C83.9339 213.14 84.1569 213.421 84.2529 213.578C84.3499 213.735 84.4949 214.063 84.3859 214.507Z" fill="#3A312A"/>
<path d="M87.664 197.449C86.851 196.106 85.563 195.161 84.039 194.787L31.956 181.996C28.809 181.225 25.622 183.156 24.85 186.301L22.757 194.824C22.427 196.165 23.248 197.519 24.589 197.848C25.929 198.182 27.284 197.357 27.613 196.017L29.706 187.493C29.781 187.186 29.987 187.023 30.103 186.953C30.219 186.883 30.458 186.779 30.765 186.851L82.848 199.642C83.316 199.757 83.604 200.233 83.489 200.701L81.337 209.466C81.007 210.808 81.828 212.161 83.169 212.49C83.369 212.539 83.57 212.563 83.767 212.563C84.891 212.563 85.913 211.799 86.193 210.659L88.345 201.893C88.718 200.369 88.476 198.791 87.664 197.449Z" fill="#3A312A"/>
<path d="M203.274 29.2939H200.531C199.15 29.2939 198.031 30.4129 198.031 31.7939C198.031 33.1749 199.15 34.2939 200.531 34.2939H203.274C205.693 34.2939 207.661 36.2619 207.661 38.6809V155.056C207.661 157.475 205.693 159.443 203.274 159.443H147.533C144.014 159.443 140.824 161.478 139.207 164.755C137.083 169.057 132.789 171.729 128 171.729C123.211 171.729 118.917 169.057 116.793 164.755C115.176 161.479 111.986 159.443 108.467 159.443H52.7259C50.3069 159.443 48.3389 157.475 48.3389 155.056V38.6809C48.3389 36.2619 50.3069 34.2939 52.7259 34.2939H55.5409C56.9219 34.2939 58.0409 33.1749 58.0409 31.7939C58.0409 30.4129 56.9219 29.2939 55.5409 29.2939H52.7259C47.5499 29.2939 43.3389 33.5049 43.3389 38.6809V155.056C43.3389 160.232 47.5499 164.443 52.7259 164.443H108.468C110.07 164.443 111.542 165.411 112.31 166.967C115.282 172.988 121.294 176.728 128 176.728C134.706 176.728 140.718 172.988 143.69 166.967C144.459 165.41 145.931 164.443 147.533 164.443H203.274C208.45 164.443 212.661 160.232 212.661 155.056V38.6809C212.661 33.5049 208.45 29.2939 203.274 29.2939Z" fill="#3A312A"/>
<path d="M199.781 133.688C198.4 133.688 197.281 134.807 197.281 136.188V147.421C197.281 147.954 196.847 148.388 196.315 148.388H59.686C59.153 148.388 58.72 147.954 58.72 147.421V136.188C58.72 134.807 57.601 133.688 56.22 133.688C54.839 133.688 53.72 134.807 53.72 136.188V147.421C53.72 150.711 56.396 153.388 59.686 153.388H196.315C199.605 153.388 202.281 150.711 202.281 147.421V136.188C202.281 134.807 201.162 133.688 199.781 133.688Z" fill="#3A312A"/>
<path d="M128 34.729C126.619 34.729 125.5 35.848 125.5 37.229V147.953C125.5 149.334 126.619 150.453 128 150.453C129.381 150.453 130.5 149.334 130.5 147.953V37.229C130.5 35.849 129.381 34.729 128 34.729Z" fill="#3A312A"/>
<path d="M197.532 22.4741C162.814 12.0641 134.775 29.0361 128 33.6811C121.225 29.0351 93.186 12.0651 58.468 22.4741C55.672 23.3111 53.719 25.9331 53.719 28.8481V136.188C53.719 138.21 54.622 140.097 56.197 141.363C57.776 142.632 59.818 143.107 61.798 142.673C70.715 140.709 93.659 137.273 114.077 147.741C118.445 149.981 123.189 151.165 127.795 151.165H128.204C132.811 151.165 137.556 149.98 141.924 147.74C162.341 137.271 185.285 140.708 194.203 142.673C196.183 143.111 198.224 142.632 199.803 141.363C201.378 140.097 202.282 138.211 202.282 136.188V28.8481C202.281 25.9331 200.328 23.3111 197.532 22.4741ZM197.281 136.188C197.281 136.873 196.898 137.283 196.67 137.465C196.441 137.651 195.953 137.932 195.278 137.789C185.832 135.707 161.504 132.079 139.642 143.29C135.924 145.197 132.076 146.164 128.204 146.164H127.795C123.924 146.164 120.076 145.197 116.358 143.291C104.618 137.271 92.171 135.53 81.695 135.53C72.663 135.53 65.095 136.826 60.722 137.789C60.045 137.932 59.559 137.65 59.329 137.465C59.101 137.281 58.718 136.872 58.718 136.188V28.8481C58.718 28.1231 59.205 27.4721 59.902 27.2631C96.52 16.2861 126.183 38.5141 126.477 38.7401C127.374 39.4281 128.622 39.4271 129.52 38.7411C129.815 38.5151 159.478 16.2861 196.097 27.2631C196.793 27.4721 197.28 28.1231 197.28 28.8481V136.188H197.281Z" fill="#3A312A"/>
<path d="M189.518 39.2971C167.634 35.1231 148.947 41.189 137.126 47.016C135.887 47.626 135.378 49.124 135.988 50.364C136.424 51.247 137.31 51.76 138.233 51.76C138.604 51.76 138.981 51.677 139.336 51.501C150.473 46.0131 168.059 40.2931 188.58 44.2101C189.937 44.4681 191.245 43.5781 191.504 42.2231C191.764 40.8651 190.874 39.5561 189.518 39.2971Z" fill="#3A312A"/>
<path d="M189.518 50.9121C167.631 46.7381 148.947 52.8041 137.126 58.6301C135.887 59.2401 135.378 60.7381 135.988 61.9781C136.424 62.8611 137.31 63.3741 138.233 63.3741C138.604 63.3741 138.981 63.2911 139.336 63.1151C150.472 57.6291 168.055 51.9091 188.58 55.8251C189.937 56.0811 191.245 55.1941 191.504 53.8381C191.764 52.4801 190.874 51.1711 189.518 50.9121Z" fill="#3A312A"/>
<path d="M189.518 62.527C167.631 58.353 148.947 64.419 137.126 70.245C135.887 70.855 135.378 72.353 135.988 73.593C136.424 74.476 137.31 74.989 138.233 74.989C138.604 74.989 138.981 74.906 139.336 74.73C150.472 69.244 168.055 63.523 188.58 67.44C189.937 67.701 191.245 66.808 191.504 65.453C191.764 64.096 190.874 62.786 189.518 62.527Z" fill="#3A312A"/>
<path d="M189.518 74.1419C167.634 69.9679 148.947 76.0349 137.126 81.8609C135.887 82.4709 135.378 83.9689 135.988 85.2089C136.424 86.0919 137.31 86.6049 138.233 86.6049C138.604 86.6049 138.981 86.5219 139.336 86.3459C150.473 80.8579 168.059 75.1369 188.58 79.0549C189.937 79.3139 191.245 78.4229 191.504 77.0679C191.764 75.7099 190.874 74.3999 189.518 74.1419Z" fill="#3A312A"/>
<path d="M189.518 85.7569C167.631 81.5829 148.947 87.6499 137.126 93.4749C135.887 94.0849 135.378 95.5829 135.988 96.8229C136.424 97.7059 137.31 98.2189 138.233 98.2189C138.604 98.2189 138.981 98.1359 139.336 97.9599C150.472 92.4729 168.055 86.7529 188.58 90.6699C189.937 90.9259 191.245 90.0389 191.504 88.6829C191.764 87.3249 190.874 86.0159 189.518 85.7569Z" fill="#3A312A"/>
<path d="M189.518 97.3721C167.631 93.1971 148.947 99.2651 137.126 105.09C135.887 105.7 135.378 107.198 135.988 108.438C136.424 109.321 137.31 109.834 138.233 109.834C138.604 109.834 138.981 109.751 139.336 109.575C150.472 104.089 168.055 98.3691 188.58 102.285C189.937 102.547 191.245 101.653 191.504 100.298C191.764 98.9401 190.874 97.6311 189.518 97.3721Z" fill="#3A312A"/>
<path d="M189.518 108.986C167.634 104.811 148.947 110.878 137.126 116.705C135.887 117.315 135.378 118.813 135.988 120.053C136.424 120.936 137.31 121.449 138.233 121.449C138.604 121.449 138.981 121.366 139.336 121.19C150.473 115.703 168.059 109.981 188.58 113.899C189.937 114.159 191.245 113.267 191.504 111.912C191.764 110.555 190.874 109.245 189.518 108.986Z" fill="#3A312A"/>
<path d="M189.518 120.602C167.634 116.428 148.947 122.494 137.126 128.321C135.887 128.931 135.378 130.429 135.988 131.669C136.424 132.552 137.31 133.065 138.233 133.065C138.604 133.065 138.981 132.982 139.336 132.806C150.473 127.318 168.059 121.598 188.58 125.515C189.937 125.772 191.245 124.884 191.504 123.528C191.764 122.17 190.874 120.86 189.518 120.602Z" fill="#3A312A"/>
<path d="M118.874 47.016C107.052 41.189 88.367 35.122 66.482 39.297C65.126 39.556 64.236 40.865 64.495 42.222C64.754 43.579 66.067 44.466 67.419 44.209C87.94 40.294 105.526 46.012 116.663 51.5C117.018 51.676 117.395 51.759 117.766 51.759C118.688 51.759 119.575 51.246 120.011 50.363C120.622 49.124 120.112 47.626 118.874 47.016Z" fill="#3A312A"/>
<path d="M118.874 58.6299C107.053 52.8039 88.369 46.7389 66.482 50.9119C65.126 51.1709 64.236 52.4799 64.495 53.8369C64.754 55.1939 66.067 56.0819 67.419 55.8239C87.945 51.9049 105.527 57.6269 116.663 63.1139C117.018 63.2899 117.395 63.3729 117.766 63.3729C118.688 63.3719 119.575 62.8599 120.011 61.9769C120.622 60.7379 120.112 59.2399 118.874 58.6299Z" fill="#3A312A"/>
<path d="M118.874 70.2451C107.053 64.4191 88.369 58.3541 66.482 62.5271C65.126 62.7861 64.236 64.0951 64.495 65.4521C64.754 66.8091 66.067 67.6991 67.419 67.4391C87.945 63.5191 105.527 69.2421 116.663 74.7291C117.018 74.9051 117.395 74.9881 117.766 74.9881C118.688 74.9871 119.575 74.4751 120.011 73.5921C120.622 72.3541 120.112 70.8551 118.874 70.2451Z" fill="#3A312A"/>
<path d="M118.874 81.86C107.052 76.034 88.367 69.965 66.482 74.141C65.126 74.4 64.236 75.709 64.495 77.066C64.754 78.422 66.067 79.315 67.419 79.053C87.94 75.137 105.526 80.857 116.663 86.344C117.018 86.52 117.395 86.603 117.766 86.603C118.688 86.602 119.575 86.09 120.011 85.207C120.622 83.969 120.112 82.471 118.874 81.86Z" fill="#3A312A"/>
<path d="M118.874 93.475C107.053 87.649 88.369 81.583 66.482 85.757C65.126 86.016 64.236 87.325 64.495 88.682C64.754 90.038 66.067 90.932 67.419 90.669C87.945 86.748 105.527 92.472 116.663 97.959C117.018 98.135 117.395 98.218 117.766 98.218C118.688 98.217 119.575 97.705 120.011 96.822C120.622 95.583 120.112 94.085 118.874 93.475Z" fill="#3A312A"/>
<path d="M118.874 105.09C107.053 99.264 88.369 93.198 66.482 97.372C65.126 97.631 64.236 98.94 64.495 100.297C64.754 101.654 66.067 102.54 67.419 102.284C87.945 98.364 105.527 104.087 116.663 109.574C117.018 109.75 117.395 109.833 117.766 109.833C118.688 109.832 119.575 109.32 120.011 108.437C120.622 107.198 120.112 105.7 118.874 105.09Z" fill="#3A312A"/>
<path d="M118.874 116.705C107.052 110.879 88.367 104.81 66.482 108.986C65.126 109.245 64.236 110.554 64.495 111.911C64.754 113.268 66.067 114.157 67.419 113.898C87.94 109.982 105.526 115.701 116.663 121.189C117.018 121.365 117.395 121.448 117.766 121.448C118.688 121.448 119.575 120.935 120.011 120.052C120.622 118.813 120.112 117.315 118.874 116.705Z" fill="#3A312A"/>
<path d="M118.874 128.32C107.052 122.494 88.367 116.426 66.482 120.601C65.126 120.86 64.236 122.169 64.495 123.526C64.754 124.882 66.067 125.773 67.419 125.513C87.94 121.597 105.526 127.316 116.663 132.804C117.018 132.98 117.395 133.063 117.766 133.063C118.688 133.063 119.575 132.55 120.011 131.667C120.622 130.429 120.112 128.931 118.874 128.32Z" fill="#3A312A"/>
</g>
<defs>
<clipPath id="clip0_317_977">
<rect width="256" height="256" fill="white"/>
</clipPath>
</defs>
</svg>
