<svg width="256" height="256" viewBox="0 0 256 256" fill="none" xmlns="http://www.w3.org/2000/svg">
<g opacity="0.85" clip-path="url(#clip0_310_697)">
<path d="M34.8791 74.8825C30.3811 74.0455 26.8361 70.5725 25.9811 66.1665C25.9381 65.9455 25.6291 65.9455 25.5861 66.1665C24.7311 70.5725 21.1861 74.0455 16.6881 74.8825C16.4621 74.9245 16.4621 75.2275 16.6881 75.2695C21.1861 76.1075 24.7311 79.5805 25.5861 83.9865C25.6291 84.2075 25.9381 84.2075 25.9811 83.9865C26.8361 79.5805 30.3811 76.1075 34.8791 75.2695C35.1051 75.2275 35.1051 74.9245 34.8791 74.8825Z" fill="#F5C84C"/>
<path d="M165.298 6.3615C162.077 5.7615 159.538 3.2745 158.926 0.1185C158.895 -0.0395 158.674 -0.0395 158.643 0.1185C158.031 3.2745 155.492 5.7615 152.271 6.3615C152.109 6.3915 152.109 6.6085 152.271 6.6385C155.492 7.2385 158.031 9.7255 158.643 12.8805C158.674 13.0395 158.895 13.0395 158.926 12.8805C159.538 9.7255 162.077 7.2375 165.298 6.6385C165.46 6.6085 165.46 6.3925 165.298 6.3615Z" fill="#FC657E"/>
<path d="M153.278 201.302H150.949V198.972C150.949 197.228 149.536 195.815 147.792 195.815C146.048 195.815 144.635 197.228 144.635 198.972V201.302H142.305C140.561 201.302 139.148 202.716 139.148 204.46C139.148 206.204 140.561 207.617 142.305 207.617H144.635V209.947C144.635 211.691 146.048 213.105 147.792 213.105C149.536 213.105 150.949 211.691 150.949 209.947V207.617H153.278C155.022 207.617 156.435 206.203 156.435 204.46C156.435 202.715 155.022 201.302 153.278 201.302Z" fill="#70D6F9"/>
<path d="M157.812 224C155.947 224 154.435 225.512 154.435 227.377C154.435 229.242 155.947 230.754 157.812 230.754C159.677 230.754 161.189 229.242 161.189 227.377C161.189 225.512 159.677 224 157.812 224Z" fill="#F5C84C"/>
<path d="M15.8121 92.0005C13.9471 92.0005 12.4351 93.5125 12.4351 95.3775C12.4351 97.2425 13.9471 98.7545 15.8121 98.7545C17.6771 98.7545 19.1891 97.2425 19.1891 95.3775C19.1891 93.5125 17.6771 92.0005 15.8121 92.0005Z" fill="#87D147"/>
<path d="M203.709 31.7944H200.216V136.188C200.216 138.84 197.765 140.801 195.175 140.231C185.199 138.033 162.096 134.81 141.218 145.515C137.313 147.517 133.027 148.665 128.639 148.665H128.23C123.842 148.665 119.556 147.518 115.652 145.516C94.7739 134.81 71.6709 138.034 61.6949 140.231C59.1049 140.802 56.6539 138.841 56.6539 136.189V31.7944H53.1609C49.3569 31.7944 46.2739 34.8774 46.2739 38.6814V155.056C46.2739 158.86 49.3569 161.943 53.1609 161.943H108.902C111.523 161.943 113.826 163.51 114.986 165.86C117.433 170.817 122.532 174.228 128.434 174.228C134.336 174.228 139.435 170.817 141.882 165.86C143.042 163.51 145.346 161.943 147.966 161.943H203.707C207.511 161.943 210.594 158.86 210.594 155.056V38.6814C210.596 34.8774 207.512 31.7944 203.709 31.7944Z" fill="#FC657E"/>
<path d="M195.175 140.23C185.199 138.032 162.096 134.809 141.218 145.514C137.313 147.516 133.027 148.664 128.639 148.664H128.23C123.842 148.664 119.556 147.517 115.652 145.515C94.7741 134.809 71.671 138.033 61.695 140.23C59.105 140.801 56.6541 138.84 56.6541 136.188V147.421C56.6541 149.336 58.2061 150.888 60.1211 150.888H196.75C198.664 150.888 200.216 149.336 200.216 147.421V136.188C200.216 138.84 197.765 140.801 195.175 140.23Z" fill="#C7D7E5"/>
<path d="M197.25 24.8686C158.898 13.3716 128.435 36.7556 128.435 36.7556V148.665H128.639C133.027 148.665 137.313 147.518 141.218 145.515C162.096 134.809 185.199 138.033 195.175 140.231C197.765 140.801 200.216 138.84 200.216 136.188V28.8486C200.216 27.0146 199.007 25.3956 197.25 24.8686Z" fill="#EDF4FC"/>
<path d="M59.6201 24.8686C57.8631 25.3946 56.6541 27.0146 56.6541 28.8476V136.188C56.6541 138.84 59.105 140.801 61.695 140.23C71.671 138.033 94.7741 134.81 115.652 145.515C119.556 147.517 123.842 148.664 128.23 148.664H128.435V36.7556C128.435 36.7556 97.9721 13.3716 59.6201 24.8686Z" fill="#EDF4FC"/>
<path d="M225.205 142.924C226.59 138.614 227.133 134.079 226.788 129.565C226.296 123.12 225.735 113.242 226.164 105.729C226.232 104.534 225.444 103.466 224.282 103.179C218.224 101.685 212.165 105.662 211.158 111.82C210.948 113.104 210.762 114.491 210.596 115.963V155.055C210.596 158.859 207.513 161.942 203.709 161.942H159.564C159.847 162.37 160.121 162.803 160.414 163.225L163.114 167.1C167.476 173.362 170.646 180.374 172.466 187.785L174.68 196.799L223.188 184.886L220.59 174.307C219.041 167.999 219.273 161.385 221.259 155.202L225.205 142.924Z" fill="#F9D0B4"/>
<path d="M249.259 249.207L236.342 198.692C235.855 196.71 233.854 195.498 231.872 195.984L172.323 210.608C170.341 211.095 169.129 213.096 169.615 215.078L178.003 250.845C178.368 252.401 179.755 253.5 181.353 253.5H245.924C248.172 253.5 249.816 251.383 249.259 249.207Z" fill="#70D6F9"/>
<path d="M229.157 186.898C228.712 185.087 226.884 183.98 225.074 184.425L172.992 197.216C171.182 197.66 170.074 199.488 170.519 201.299L172.778 210.497L231.416 196.097L229.157 186.898Z" fill="#EDF4FC"/>
<path d="M176.973 195.652L174.894 187.188C172.993 179.448 169.719 172.209 165.165 165.671L162.465 161.795C162.279 161.529 162.103 161.258 161.927 160.986C161.174 159.83 159.624 159.505 158.468 160.257C157.311 161.011 156.985 162.56 157.738 163.717C157.944 164.031 158.149 164.346 158.363 164.654L161.063 168.529C165.265 174.56 168.285 181.24 170.039 188.382L172.118 196.846C172.398 197.987 173.42 198.75 174.544 198.75C174.741 198.75 174.942 198.726 175.142 198.677C176.482 198.348 177.303 196.993 176.973 195.652Z" fill="black"/>
<path d="M227.585 143.688C229.08 139.033 229.651 134.217 229.281 129.375C228.768 122.671 228.245 113.151 228.66 105.872C228.797 103.48 227.208 101.327 224.881 100.752C221.31 99.8725 217.502 100.528 214.435 102.554C211.376 104.573 209.282 107.803 208.691 111.417C208.491 112.637 208.306 113.993 208.138 115.449C207.981 116.821 208.965 118.06 210.337 118.218C211.71 118.384 212.949 117.392 213.106 116.02C213.264 114.643 213.439 113.366 213.626 112.224C213.998 109.951 215.264 107.998 217.189 106.727C219.125 105.45 221.432 105.051 223.668 105.587C223.237 113.143 223.772 122.9 224.295 129.756C224.615 133.95 224.12 138.123 222.824 142.159L218.88 154.438C216.751 161.065 216.503 168.142 218.163 174.905L220.623 184.923C220.903 186.064 221.925 186.827 223.049 186.827C223.246 186.827 223.447 186.803 223.647 186.754C224.988 186.425 225.808 185.07 225.479 183.73L223.019 173.713C221.58 167.85 221.795 161.714 223.641 155.968L227.585 143.688Z" fill="black"/>
<path d="M251.681 248.588L238.769 198.096C238.374 196.49 237.377 195.132 235.962 194.275C234.547 193.418 232.883 193.166 231.275 193.558L171.727 208.182C170.12 208.577 168.762 209.573 167.905 210.989C167.048 212.404 166.793 214.069 167.181 215.651L175.57 251.417C176.203 254.117 178.582 256.002 181.354 256.002H245.925C247.773 256.002 249.484 255.165 250.617 253.705C251.751 252.244 252.139 250.379 251.681 248.588ZM246.668 250.637C246.563 250.774 246.326 251.001 245.925 251.001H181.354C180.915 251.001 180.538 250.702 180.438 250.274L172.043 214.482C171.94 214.064 172.085 213.736 172.182 213.578C172.278 213.421 172.501 213.14 172.919 213.037L232.468 198.413C232.57 198.388 232.666 198.378 232.756 198.378C233.036 198.378 233.253 198.479 233.373 198.551C233.531 198.647 233.811 198.87 233.92 199.312L246.837 249.827C246.936 250.215 246.774 250.501 246.668 250.637Z" fill="black"/>
<path d="M233.692 194.881L231.585 186.302C231.211 184.778 230.266 183.49 228.923 182.677C227.58 181.864 226.002 181.621 224.478 181.996L172.396 194.787C170.872 195.161 169.584 196.106 168.771 197.449C167.958 198.791 167.717 200.369 168.091 201.893L170.182 210.408C170.462 211.55 171.483 212.313 172.608 212.313C172.805 212.313 173.006 212.289 173.206 212.24C174.547 211.911 175.367 210.557 175.038 209.217L172.947 200.702C172.872 200.395 172.978 200.155 173.049 200.039C173.119 199.924 173.282 199.718 173.589 199.643L225.671 186.852C225.977 186.781 226.217 186.884 226.334 186.954C226.45 187.024 226.656 187.187 226.731 187.495L228.838 196.075C229.167 197.415 230.52 198.228 231.862 197.906C233.202 197.576 234.022 196.222 233.692 194.881Z" fill="black"/>
<path d="M53.161 161.944C49.357 161.944 46.274 158.861 46.274 155.057V115.965C46.108 114.493 45.922 113.106 45.712 111.822C44.704 105.664 38.646 101.688 32.588 103.181C31.426 103.468 30.638 104.536 30.706 105.731C31.135 113.244 30.575 123.122 30.082 129.567C29.737 134.081 30.281 138.616 31.665 142.926L35.609 155.204C37.596 161.388 37.827 168.002 36.278 174.309L33.68 184.888L82.19 196.801L84.404 187.787C86.224 180.376 89.394 173.364 93.756 167.102L96.456 163.227C96.75 162.805 97.024 162.372 97.306 161.944H53.161Z" fill="#F9D0B4"/>
<path d="M84.5469 210.609L24.9979 195.984C23.0159 195.497 21.0149 196.711 20.5279 198.693L7.61091 249.208C7.05391 251.384 8.69791 253.501 10.9449 253.501H75.5159C77.1139 253.501 78.5009 252.401 78.8659 250.846L87.2539 215.079C87.7409 213.097 86.5289 211.096 84.5469 210.609Z" fill="#70D6F9"/>
<path d="M83.8781 197.215L31.7961 184.424C29.9861 183.979 28.1581 185.087 27.7131 186.897L25.4541 196.095L84.0921 210.495L86.3511 201.297C86.7961 199.487 85.6881 197.659 83.8781 197.215Z" fill="#EDF4FC"/>
<path d="M48.72 115.341C48.556 113.93 48.375 112.61 48.18 111.417C47.589 107.803 45.495 104.572 42.436 102.554C39.368 100.529 35.56 99.8714 31.989 100.753C29.663 101.327 28.074 103.481 28.211 105.872C28.627 113.151 28.103 122.671 27.59 129.375C27.22 134.219 27.791 139.035 29.286 143.688L33.23 155.967C35.076 161.713 35.292 167.849 33.852 173.711L31.499 183.291C31.169 184.632 31.99 185.986 33.331 186.315C33.531 186.364 33.732 186.388 33.929 186.388C35.053 186.388 36.075 185.624 36.355 184.484L38.708 174.903C40.368 168.141 40.12 161.064 37.991 154.437L34.047 142.158C32.75 138.123 32.255 133.95 32.576 129.755C33.1 122.9 33.635 113.142 33.188 105.607C35.44 105.05 37.748 105.448 39.683 106.726C41.609 107.997 42.874 109.95 43.246 112.223C43.428 113.339 43.599 114.581 43.754 115.916C43.913 117.287 45.152 118.276 46.525 118.111C47.895 117.953 48.878 116.713 48.72 115.341Z" fill="black"/>
<path d="M98.4139 160.242C97.2579 159.486 95.7089 159.814 94.9549 160.971C94.7739 161.249 94.593 161.527 94.405 161.797L91.7049 165.672C87.1499 172.21 83.876 179.449 81.976 187.189L79.989 195.28C79.659 196.622 80.48 197.975 81.821 198.304C82.021 198.353 82.222 198.377 82.419 198.377C83.543 198.377 84.565 197.612 84.845 196.473L86.832 188.382C88.586 181.241 91.605 174.562 95.808 168.529L98.5089 164.652C98.7269 164.339 98.935 164.02 99.143 163.701C99.896 162.545 99.5699 160.996 98.4139 160.242Z" fill="black"/>
<path d="M88.965 210.987C88.108 209.571 86.75 208.575 85.143 208.18L25.595 193.557C23.99 193.164 22.324 193.416 20.908 194.274C19.492 195.131 18.495 196.489 18.107 198.073L5.18799 248.587C4.72999 250.378 5.11799 252.243 6.25199 253.703C7.38599 255.163 9.09699 256 10.945 256H75.516C78.288 256 80.667 254.115 81.3 251.416L89.682 215.675C90.078 214.067 89.823 212.402 88.965 210.987ZM84.821 214.507L76.432 250.275C76.332 250.702 75.955 251.001 75.516 251.001H10.945C10.544 251.001 10.307 250.773 10.202 250.637C10.097 250.501 9.93399 250.215 10.033 249.826L22.956 199.289C23.059 198.87 23.339 198.646 23.497 198.551C23.617 198.479 23.834 198.378 24.114 198.378C24.204 198.378 24.3 198.388 24.402 198.413L83.951 213.037C84.369 213.14 84.592 213.421 84.688 213.578C84.785 213.735 84.93 214.063 84.821 214.507Z" fill="black"/>
<path d="M88.0991 197.45C87.2861 196.107 85.9981 195.162 84.4741 194.788L32.3911 181.997C29.2441 181.226 26.0571 183.156 25.2851 186.301L23.1921 194.825C22.8621 196.166 23.6831 197.52 25.0241 197.849C26.3641 198.183 27.7191 197.357 28.0481 196.017L30.1411 187.493C30.2161 187.186 30.4221 187.024 30.5381 186.954C30.6541 186.884 30.8931 186.779 31.2001 186.851L83.2831 199.642C83.7511 199.757 84.0391 200.234 83.9241 200.702L81.7721 209.467C81.4421 210.809 82.2631 212.162 83.6041 212.491C83.8041 212.54 84.0051 212.564 84.2021 212.564C85.3261 212.564 86.3481 211.799 86.6281 210.659L88.7801 201.894C89.1531 200.37 88.9111 198.792 88.0991 197.45Z" fill="black"/>
<path d="M203.709 29.2944H200.966C199.585 29.2944 198.466 30.4134 198.466 31.7944C198.466 33.1754 199.585 34.2944 200.966 34.2944H203.709C206.128 34.2944 208.096 36.2624 208.096 38.6814V155.056C208.096 157.475 206.128 159.443 203.709 159.443H147.968C144.449 159.443 141.259 161.478 139.642 164.755C137.518 169.057 133.224 171.729 128.435 171.729C123.646 171.729 119.352 169.057 117.228 164.755C115.611 161.479 112.421 159.443 108.902 159.443H53.1609C50.7419 159.443 48.7739 157.475 48.7739 155.056V38.6814C48.7739 36.2624 50.7419 34.2944 53.1609 34.2944H55.9759C57.3569 34.2944 58.4759 33.1754 58.4759 31.7944C58.4759 30.4134 57.3569 29.2944 55.9759 29.2944H53.1609C47.9849 29.2944 43.7739 33.5054 43.7739 38.6814V155.056C43.7739 160.232 47.9849 164.443 53.1609 164.443H108.903C110.505 164.443 111.977 165.411 112.745 166.967C115.717 172.988 121.729 176.728 128.435 176.728C135.141 176.728 141.153 172.988 144.125 166.967C144.894 165.41 146.366 164.443 147.968 164.443H203.709C208.885 164.443 213.096 160.232 213.096 155.056V38.6814C213.096 33.5054 208.885 29.2944 203.709 29.2944Z" fill="black"/>
<path d="M200.216 133.688C198.835 133.688 197.716 134.807 197.716 136.188V147.421C197.716 147.954 197.282 148.388 196.75 148.388H60.121C59.588 148.388 59.155 147.954 59.155 147.421V136.188C59.155 134.807 58.036 133.688 56.655 133.688C55.274 133.688 54.155 134.807 54.155 136.188V147.421C54.155 150.711 56.831 153.388 60.121 153.388H196.75C200.04 153.388 202.716 150.711 202.716 147.421V136.188C202.716 134.807 201.597 133.688 200.216 133.688Z" fill="black"/>
<path d="M128.435 34.7295C127.054 34.7295 125.935 35.8485 125.935 37.2295V147.953C125.935 149.334 127.054 150.453 128.435 150.453C129.816 150.453 130.935 149.334 130.935 147.953V37.2295C130.935 35.8495 129.816 34.7295 128.435 34.7295Z" fill="black"/>
<path d="M197.967 22.4746C163.249 12.0646 135.21 29.0366 128.435 33.6816C121.66 29.0356 93.621 12.0656 58.903 22.4746C56.107 23.3116 54.1541 25.9336 54.1541 28.8486V136.189C54.1541 138.211 55.057 140.098 56.632 141.364C58.211 142.633 60.2531 143.108 62.2331 142.674C71.1501 140.71 94.0941 137.274 114.512 147.742C118.88 149.982 123.624 151.166 128.23 151.166H128.639C133.246 151.166 137.991 149.981 142.359 147.741C162.776 137.272 185.72 140.709 194.638 142.674C196.618 143.112 198.659 142.633 200.238 141.364C201.813 140.098 202.717 138.212 202.717 136.189V28.8486C202.716 25.9336 200.763 23.3116 197.967 22.4746ZM197.716 136.189C197.716 136.874 197.333 137.284 197.105 137.466C196.876 137.652 196.388 137.933 195.713 137.79C186.267 135.708 161.939 132.08 140.077 143.291C136.359 145.198 132.511 146.165 128.639 146.165H128.23C124.359 146.165 120.511 145.198 116.793 143.292C105.053 137.272 92.6061 135.531 82.1301 135.531C73.0981 135.531 65.5301 136.827 61.1571 137.79C60.4801 137.933 59.994 137.651 59.764 137.466C59.536 137.282 59.153 136.873 59.153 136.189V28.8486C59.153 28.1236 59.6401 27.4726 60.3371 27.2636C96.9551 16.2866 126.618 38.5146 126.912 38.7406C127.809 39.4286 129.057 39.4276 129.955 38.7416C130.25 38.5156 159.913 16.2866 196.532 27.2636C197.228 27.4726 197.715 28.1236 197.715 28.8486V136.189H197.716Z" fill="black"/>
<path d="M189.953 39.2975C168.069 35.1235 149.382 41.1895 137.561 47.0165C136.322 47.6265 135.813 49.1245 136.423 50.3645C136.859 51.2475 137.745 51.7605 138.668 51.7605C139.039 51.7605 139.416 51.6775 139.771 51.5015C150.908 46.0135 168.494 40.2935 189.015 44.2105C190.372 44.4685 191.68 43.5785 191.939 42.2235C192.199 40.8655 191.309 39.5565 189.953 39.2975Z" fill="black"/>
<path d="M189.953 50.9125C168.066 46.7385 149.382 52.8045 137.561 58.6305C136.322 59.2405 135.813 60.7385 136.423 61.9785C136.859 62.8615 137.745 63.3745 138.668 63.3745C139.039 63.3745 139.416 63.2915 139.771 63.1155C150.907 57.6295 168.49 51.9095 189.015 55.8255C190.372 56.0815 191.68 55.1945 191.939 53.8385C192.199 52.4805 191.309 51.1715 189.953 50.9125Z" fill="black"/>
<path d="M189.953 62.5275C168.066 58.3535 149.382 64.4195 137.561 70.2455C136.322 70.8555 135.813 72.3535 136.423 73.5935C136.859 74.4765 137.745 74.9895 138.668 74.9895C139.039 74.9895 139.416 74.9065 139.771 74.7305C150.907 69.2445 168.49 63.5235 189.015 67.4405C190.372 67.7015 191.68 66.8085 191.939 65.4535C192.199 64.0965 191.309 62.7865 189.953 62.5275Z" fill="black"/>
<path d="M189.953 74.1424C168.069 69.9684 149.382 76.0354 137.561 81.8614C136.322 82.4714 135.813 83.9694 136.423 85.2094C136.859 86.0924 137.745 86.6054 138.668 86.6054C139.039 86.6054 139.416 86.5224 139.771 86.3464C150.908 80.8584 168.494 75.1374 189.015 79.0554C190.372 79.3144 191.68 78.4234 191.939 77.0684C192.199 75.7104 191.309 74.4004 189.953 74.1424Z" fill="black"/>
<path d="M189.953 85.7574C168.066 81.5834 149.382 87.6504 137.561 93.4754C136.322 94.0854 135.813 95.5834 136.423 96.8234C136.859 97.7064 137.745 98.2194 138.668 98.2194C139.039 98.2194 139.416 98.1364 139.771 97.9604C150.907 92.4734 168.49 86.7534 189.015 90.6704C190.372 90.9264 191.68 90.0394 191.939 88.6834C192.199 87.3254 191.309 86.0164 189.953 85.7574Z" fill="black"/>
<path d="M189.953 97.3725C168.066 93.1975 149.382 99.2655 137.561 105.091C136.322 105.701 135.813 107.199 136.423 108.439C136.859 109.322 137.745 109.835 138.668 109.835C139.039 109.835 139.416 109.752 139.771 109.576C150.907 104.09 168.49 98.3695 189.015 102.286C190.372 102.548 191.68 101.654 191.939 100.299C192.199 98.9405 191.309 97.6315 189.953 97.3725Z" fill="black"/>
<path d="M189.953 108.986C168.069 104.811 149.382 110.878 137.561 116.705C136.322 117.315 135.813 118.813 136.423 120.053C136.859 120.936 137.745 121.449 138.668 121.449C139.039 121.449 139.416 121.366 139.771 121.19C150.908 115.703 168.494 109.981 189.015 113.899C190.372 114.159 191.68 113.267 191.939 111.912C192.199 110.555 191.309 109.245 189.953 108.986Z" fill="black"/>
<path d="M189.953 120.602C168.069 116.428 149.382 122.494 137.561 128.321C136.322 128.931 135.813 130.429 136.423 131.669C136.859 132.552 137.745 133.065 138.668 133.065C139.039 133.065 139.416 132.982 139.771 132.806C150.908 127.318 168.494 121.598 189.015 125.515C190.372 125.772 191.68 124.884 191.939 123.528C192.199 122.17 191.309 120.86 189.953 120.602Z" fill="black"/>
<path d="M119.309 47.0165C107.487 41.1895 88.8021 35.1225 66.9171 39.2975C65.5611 39.5565 64.6711 40.8655 64.9301 42.2225C65.1891 43.5795 66.5021 44.4665 67.8541 44.2095C88.3751 40.2945 105.961 46.0125 117.098 51.5005C117.453 51.6765 117.83 51.7595 118.201 51.7595C119.123 51.7595 120.01 51.2465 120.446 50.3635C121.057 49.1245 120.547 47.6265 119.309 47.0165Z" fill="black"/>
<path d="M119.309 58.6304C107.488 52.8044 88.8041 46.7394 66.9171 50.9124C65.5611 51.1714 64.6711 52.4804 64.9301 53.8374C65.1891 55.1944 66.5021 56.0824 67.8541 55.8244C88.3801 51.9054 105.962 57.6274 117.098 63.1144C117.453 63.2904 117.83 63.3734 118.201 63.3734C119.123 63.3724 120.01 62.8604 120.446 61.9774C121.057 60.7384 120.547 59.2404 119.309 58.6304Z" fill="black"/>
<path d="M119.309 70.2456C107.488 64.4196 88.8041 58.3546 66.9171 62.5276C65.5611 62.7866 64.6711 64.0956 64.9301 65.4526C65.1891 66.8096 66.5021 67.6996 67.8541 67.4396C88.3801 63.5196 105.962 69.2426 117.098 74.7296C117.453 74.9056 117.83 74.9886 118.201 74.9886C119.123 74.9876 120.01 74.4756 120.446 73.5926C121.057 72.3546 120.547 70.8556 119.309 70.2456Z" fill="black"/>
<path d="M119.309 81.8605C107.487 76.0345 88.8021 69.9655 66.9171 74.1415C65.5611 74.4005 64.6711 75.7095 64.9301 77.0665C65.1891 78.4225 66.5021 79.3155 67.8541 79.0535C88.3751 75.1375 105.961 80.8575 117.098 86.3445C117.453 86.5205 117.83 86.6035 118.201 86.6035C119.123 86.6025 120.01 86.0905 120.446 85.2075C121.057 83.9695 120.547 82.4715 119.309 81.8605Z" fill="black"/>
<path d="M119.309 93.4755C107.488 87.6495 88.8041 81.5835 66.9171 85.7575C65.5611 86.0165 64.6711 87.3255 64.9301 88.6825C65.1891 90.0385 66.5021 90.9325 67.8541 90.6695C88.3801 86.7485 105.962 92.4725 117.098 97.9595C117.453 98.1355 117.83 98.2185 118.201 98.2185C119.123 98.2175 120.01 97.7055 120.446 96.8225C121.057 95.5835 120.547 94.0855 119.309 93.4755Z" fill="black"/>
<path d="M119.309 105.09C107.488 99.2645 88.8041 93.1985 66.9171 97.3725C65.5611 97.6315 64.6711 98.9405 64.9301 100.297C65.1891 101.654 66.5021 102.54 67.8541 102.284C88.3801 98.3645 105.962 104.088 117.098 109.575C117.453 109.751 117.83 109.834 118.201 109.834C119.123 109.833 120.01 109.32 120.446 108.437C121.057 107.198 120.547 105.7 119.309 105.09Z" fill="black"/>
<path d="M119.309 116.705C107.487 110.879 88.8021 104.81 66.9171 108.986C65.5611 109.245 64.6711 110.554 64.9301 111.911C65.1891 113.268 66.5021 114.157 67.8541 113.898C88.3751 109.982 105.961 115.701 117.098 121.189C117.453 121.365 117.83 121.448 118.201 121.448C119.123 121.448 120.01 120.935 120.446 120.052C121.057 118.813 120.547 117.315 119.309 116.705Z" fill="black"/>
<path d="M119.309 128.321C107.487 122.495 88.8021 116.427 66.9171 120.602C65.5611 120.861 64.6711 122.17 64.9301 123.527C65.1891 124.883 66.5021 125.774 67.8541 125.514C88.3751 121.598 105.961 127.317 117.098 132.805C117.453 132.981 117.83 133.064 118.201 133.064C119.123 133.064 120.01 132.551 120.446 131.668C121.057 130.43 120.547 128.932 119.309 128.321Z" fill="black"/>
</g>
<defs>
<clipPath id="clip0_310_697">
<rect width="256" height="256" fill="white"/>
</clipPath>
</defs>
</svg>
