<?xml version="1.0" encoding="utf-8"?>
<!-- Generator: Adobe Illustrator 22.0.0, SVG Export Plug-In . SVG Version: 6.00 Build 0)  -->
<svg version="1.1" xmlns="http://www.w3.org/2000/svg" xmlns:xlink="http://www.w3.org/1999/xlink" x="0px" y="0px"
	 viewBox="0 0 256 256" style="enable-background:new 0 0 256 256;" xml:space="preserve">
<style type="text/css">
	.st0{display:none;}
	.st1{display:inline;}
	.st2{fill:none;stroke:#6B1D1D;stroke-width:0.5;stroke-miterlimit:10;}
	.st3{fill:#3A312A;}
	.st4{fill:#87796F;}
	.st5{fill:#D5DE58;}
	.st6{fill:#695B51;}
	.st7{fill:#FCE8CB;}
	.st8{fill:#F16C7A;}
	.st9{fill:#8AC6DD;}
	.st10{fill:#DECAAD;}
	.st11{fill:#D6DF58;}
	.st12{fill-rule:evenodd;clip-rule:evenodd;fill:#FCE8CB;}
	.st13{fill:#F5978A;}
	.st14{fill:#D7E057;}
	.st15{fill-rule:evenodd;clip-rule:evenodd;fill:#87796F;}
	.st16{fill:#6CA8BF;}
	.st17{fill:#B9C239;}
	.st18{fill:#D34E5C;}
	.st19{fill:#FAE6CA;}
	.st20{fill:#F8E4C8;}
	.st21{fill:#8AC5DC;}
	.st22{fill:#EF6D7A;}
	.st23{fill:#EB6E7A;}
	.st24{fill:#89C4DB;}
	.st25{fill-rule:evenodd;clip-rule:evenodd;fill:#F16C7A;}
	.st26{fill:#F7E3C7;}
	.st27{fill:#F6E2C6;}
	.st28{fill:#ED6E7A;}
	.st29{fill:#8AC3DA;}
	.st30{fill:#D5DC57;}
	.st31{fill-rule:evenodd;clip-rule:evenodd;fill:#D7E057;}
	.st32{fill-rule:evenodd;clip-rule:evenodd;fill:#F8E4C8;}
	.st33{fill:#D4DB56;}
	.st34{fill:#F59689;}
	.st35{fill:#DDC9AC;}
	.st36{fill:#D24E5C;}
	.st37{fill:#6A5C52;}
	.st38{fill:#6CA6BE;}
	.st39{fill:#B8C136;}
	.st40{fill-rule:evenodd;clip-rule:evenodd;fill:#FAE6CA;}
</style>
<g id="Layer_2" class="st0">
	<g class="st1">
		<g>
			<line class="st2" x1="0" y1="4.829" x2="256" y2="4.829"/>
			<line class="st2" x1="0" y1="16.56" x2="256" y2="16.56"/>
			<line class="st2" x1="0" y1="28.29" x2="256" y2="28.29"/>
			<line class="st2" x1="0" y1="40.021" x2="256" y2="40.021"/>
			<line class="st2" x1="0" y1="51.751" x2="256" y2="51.751"/>
			<line class="st2" x1="0" y1="63.482" x2="256" y2="63.482"/>
			<line class="st2" x1="0" y1="75.213" x2="256" y2="75.213"/>
			<line class="st2" x1="0" y1="86.943" x2="256" y2="86.943"/>
			<line class="st2" x1="0" y1="98.674" x2="256" y2="98.674"/>
			<line class="st2" x1="0" y1="110.404" x2="256" y2="110.404"/>
			<line class="st2" x1="0" y1="122.135" x2="256" y2="122.135"/>
			<line class="st2" x1="0" y1="133.865" x2="256" y2="133.865"/>
			<line class="st2" x1="0" y1="145.596" x2="256" y2="145.596"/>
			<line class="st2" x1="0" y1="157.326" x2="256" y2="157.326"/>
			<line class="st2" x1="0" y1="169.057" x2="256" y2="169.057"/>
			<line class="st2" x1="0" y1="180.788" x2="256" y2="180.788"/>
			<line class="st2" x1="0" y1="192.518" x2="256" y2="192.518"/>
			<line class="st2" x1="0" y1="204.249" x2="256" y2="204.249"/>
			<line class="st2" x1="0" y1="215.979" x2="256" y2="215.979"/>
			<line class="st2" x1="0" y1="227.71" x2="256" y2="227.71"/>
			<line class="st2" x1="0" y1="239.44" x2="256" y2="239.44"/>
			<line class="st2" x1="0" y1="251.171" x2="256" y2="251.171"/>
		</g>
		<g>
			<line class="st2" x1="251.171" y1="0" x2="251.171" y2="256"/>
			<line class="st2" x1="239.44" y1="0" x2="239.44" y2="256"/>
			<line class="st2" x1="227.71" y1="0" x2="227.71" y2="256"/>
			<line class="st2" x1="215.979" y1="0" x2="215.979" y2="256"/>
			<line class="st2" x1="204.249" y1="0" x2="204.249" y2="256"/>
			<line class="st2" x1="192.518" y1="0" x2="192.518" y2="256"/>
			<line class="st2" x1="180.787" y1="0" x2="180.787" y2="256"/>
			<line class="st2" x1="169.057" y1="0" x2="169.057" y2="256"/>
			<line class="st2" x1="157.326" y1="0" x2="157.326" y2="256"/>
			<line class="st2" x1="145.596" y1="0" x2="145.596" y2="256"/>
			<line class="st2" x1="133.865" y1="0" x2="133.865" y2="256"/>
			<line class="st2" x1="122.135" y1="0" x2="122.135" y2="256"/>
			<line class="st2" x1="110.404" y1="0" x2="110.404" y2="256"/>
			<line class="st2" x1="98.674" y1="0" x2="98.674" y2="256"/>
			<line class="st2" x1="86.943" y1="0" x2="86.943" y2="256"/>
			<line class="st2" x1="75.212" y1="0" x2="75.212" y2="256"/>
			<line class="st2" x1="63.482" y1="0" x2="63.482" y2="256"/>
			<line class="st2" x1="51.751" y1="0" x2="51.751" y2="256"/>
			<line class="st2" x1="40.021" y1="0" x2="40.021" y2="256"/>
			<line class="st2" x1="28.29" y1="0" x2="28.29" y2="256"/>
			<line class="st2" x1="16.56" y1="0" x2="16.56" y2="256"/>
			<line class="st2" x1="4.829" y1="0" x2="4.829" y2="256"/>
		</g>
	</g>
</g>
<g id="Layer_1">
	<g>
		<path class="st14" d="M204.579,16.543c0,0,2.411,8.954,9.352,9.37c0,0-9.266,3.201-9.422,10.045c0,0-1.824-9.6-9.142-9.944
			C195.367,26.014,203.891,24.722,204.579,16.543z"/>
		<path class="st3" d="M204.508,37.458c-0.713,0-1.337-0.507-1.472-1.22c-0.016-0.082-1.704-8.442-7.739-8.726
			c-0.771-0.037-1.388-0.651-1.428-1.421c-0.04-0.77,0.511-1.445,1.273-1.56c0.296-0.047,7.364-1.243,7.942-8.114
			c0.061-0.726,0.635-1.303,1.36-1.368c0.732-0.062,1.392,0.399,1.582,1.102l0,0c0.021,0.079,2.228,7.92,7.994,8.265
			c0.714,0.043,1.299,0.584,1.396,1.293c0.098,0.709-0.32,1.388-0.996,1.622c-0.081,0.028-8.282,2.952-8.412,8.662
			c-0.018,0.767-0.611,1.397-1.376,1.461C204.591,37.457,204.549,37.458,204.508,37.458z M199.989,25.93
			c2.107,1.332,3.523,3.394,4.447,5.28c1.376-2.232,3.515-3.872,5.365-4.972c-2.287-1.27-3.884-3.35-4.941-5.224
			C203.686,23.3,201.845,24.889,199.989,25.93z"/>
		<path class="st4" d="M16.5,106.942V208c0,17.397,14.103,31.5,31.5,31.5h160c17.397,0,31.5-14.103,31.5-31.5v-97
			c0-17.397-14.103-31.5-31.5-31.5h-35c-17.397,0-31.5-14.103-31.5-31.5S127.397,16.5,110,16.5H48c-17.397,0-31.5,14.103-31.5,31.5
			v45.725V106.942z"/>
		<path class="st3" d="M208,241H48c-18.196,0-33-14.804-33-33V106.942c0-0.829,0.671-1.5,1.5-1.5c0.829,0,1.5,0.671,1.5,1.5V208
			c0,16.542,13.458,30,30,30h160c16.542,0,30-13.458,30-30v-97c0-16.542-13.458-30-30-30h-35c-18.196,0-33-14.804-33-33
			c0-16.542-13.458-30-30-30H48c-16.542,0-30,13.458-30,30v45.725c0,0.829-0.671,1.5-1.5,1.5c-0.829,0-1.5-0.671-1.5-1.5V48
			c0-18.196,14.804-33,33-33h62c18.196,0,33,14.804,33,33c0,16.542,13.458,30,30,30h35c18.196,0,33,14.804,33,33v97
			C241,226.196,226.196,241,208,241z"/>
		<rect x="40.042" y="175.528" class="st19" width="15.905" height="38.111"/>
		<path class="st3" d="M55.947,215.139H40.041c-0.829,0-1.5-0.671-1.5-1.5v-38.111c0-0.829,0.671-1.5,1.5-1.5h15.905
			c0.829,0,1.5,0.671,1.5,1.5v38.111C57.447,214.468,56.775,215.139,55.947,215.139z M41.541,212.139h12.905v-35.111H41.541V212.139
			z"/>
		<rect x="55.947" y="175.528" class="st19" width="15.905" height="38.111"/>
		<path class="st3" d="M71.852,215.139H55.947c-0.829,0-1.5-0.671-1.5-1.5v-38.111c0-0.829,0.671-1.5,1.5-1.5h15.905
			c0.829,0,1.5,0.671,1.5,1.5v38.111C73.352,214.468,72.681,215.139,71.852,215.139z M57.447,212.139h12.905v-35.111H57.447V212.139
			z"/>
		<rect x="71.852" y="175.528" class="st19" width="15.905" height="38.111"/>
		<path class="st3" d="M87.758,215.139H71.852c-0.829,0-1.5-0.671-1.5-1.5v-38.111c0-0.829,0.671-1.5,1.5-1.5h15.906
			c0.829,0,1.5,0.671,1.5,1.5v38.111C89.258,214.468,88.586,215.139,87.758,215.139z M73.352,212.139h12.906v-35.111H73.352V212.139
			z"/>
		<rect x="87.758" y="175.528" class="st19" width="15.905" height="38.111"/>
		<path class="st3" d="M103.663,215.139H87.758c-0.829,0-1.5-0.671-1.5-1.5v-38.111c0-0.829,0.671-1.5,1.5-1.5h15.905
			c0.829,0,1.5,0.671,1.5,1.5v38.111C105.163,214.468,104.492,215.139,103.663,215.139z M89.258,212.139h12.905v-35.111H89.258
			V212.139z"/>
		<rect x="103.663" y="175.528" class="st19" width="15.905" height="38.111"/>
		<path class="st3" d="M119.568,215.139h-15.905c-0.829,0-1.5-0.671-1.5-1.5v-38.111c0-0.829,0.671-1.5,1.5-1.5h15.905
			c0.829,0,1.5,0.671,1.5,1.5v38.111C121.068,214.468,120.397,215.139,119.568,215.139z M105.163,212.139h12.905v-35.111h-12.905
			V212.139z"/>
		<rect x="119.568" y="175.528" class="st19" width="15.905" height="38.111"/>
		<path class="st3" d="M135.474,215.139h-15.905c-0.829,0-1.5-0.671-1.5-1.5v-38.111c0-0.829,0.671-1.5,1.5-1.5h15.905
			c0.829,0,1.5,0.671,1.5,1.5v38.111C136.974,214.468,136.302,215.139,135.474,215.139z M121.068,212.139h12.905v-35.111h-12.905
			V212.139z"/>
		<rect x="135.473" y="175.528" class="st19" width="15.905" height="38.111"/>
		<path class="st3" d="M151.379,215.139h-15.905c-0.829,0-1.5-0.671-1.5-1.5v-38.111c0-0.829,0.671-1.5,1.5-1.5h15.905
			c0.829,0,1.5,0.671,1.5,1.5v38.111C152.879,214.468,152.207,215.139,151.379,215.139z M136.974,212.139h12.905v-35.111h-12.905
			V212.139z"/>
		<rect x="151.379" y="175.528" class="st19" width="15.905" height="38.111"/>
		<path class="st3" d="M167.284,215.139h-15.905c-0.829,0-1.5-0.671-1.5-1.5v-38.111c0-0.829,0.671-1.5,1.5-1.5h15.905
			c0.829,0,1.5,0.671,1.5,1.5v38.111C168.784,214.468,168.113,215.139,167.284,215.139z M152.879,212.139h12.905v-35.111h-12.905
			V212.139z"/>
		<rect x="167.284" y="175.528" class="st19" width="15.905" height="38.111"/>
		<path class="st3" d="M183.189,215.139h-15.905c-0.829,0-1.5-0.671-1.5-1.5v-38.111c0-0.829,0.671-1.5,1.5-1.5h15.905
			c0.829,0,1.5,0.671,1.5,1.5v38.111C184.689,214.468,184.018,215.139,183.189,215.139z M168.784,212.139h12.905v-35.111h-12.905
			V212.139z"/>
		<rect x="183.189" y="175.528" class="st19" width="15.905" height="38.111"/>
		<path class="st3" d="M199.095,215.139h-15.905c-0.829,0-1.5-0.671-1.5-1.5v-38.111c0-0.829,0.671-1.5,1.5-1.5h15.905
			c0.829,0,1.5,0.671,1.5,1.5v38.111C200.595,214.468,199.923,215.139,199.095,215.139z M184.689,212.139h12.905v-35.111h-12.905
			V212.139z"/>
		<rect x="199.095" y="175.528" class="st19" width="15.905" height="38.111"/>
		<path class="st3" d="M215,215.139h-15.905c-0.829,0-1.5-0.671-1.5-1.5v-38.111c0-0.829,0.671-1.5,1.5-1.5H215
			c0.829,0,1.5,0.671,1.5,1.5v38.111C216.5,214.468,215.829,215.139,215,215.139z M200.595,212.139H213.5v-35.111h-12.905V212.139z"
			/>
		<rect x="50.935" y="175.528" class="st4" width="10.033" height="20.914"/>
		<path class="st3" d="M60.968,197.942H50.935c-0.829,0-1.5-0.671-1.5-1.5v-20.914c0-0.829,0.671-1.5,1.5-1.5h10.033
			c0.829,0,1.5,0.671,1.5,1.5v20.914C62.468,197.271,61.797,197.942,60.968,197.942z M52.435,194.942h7.033v-17.914h-7.033V194.942z
			"/>
		<rect x="66.827" y="175.528" class="st4" width="10.033" height="20.914"/>
		<path class="st3" d="M76.86,197.942H66.827c-0.829,0-1.5-0.671-1.5-1.5v-20.914c0-0.829,0.671-1.5,1.5-1.5H76.86
			c0.829,0,1.5,0.671,1.5,1.5v20.914C78.36,197.271,77.688,197.942,76.86,197.942z M68.327,194.942h7.033v-17.914h-7.033V194.942z"
			/>
		<rect x="82.718" y="175.528" class="st4" width="10.033" height="20.914"/>
		<path class="st3" d="M92.751,197.942H82.718c-0.829,0-1.5-0.671-1.5-1.5v-20.914c0-0.829,0.671-1.5,1.5-1.5h10.033
			c0.829,0,1.5,0.671,1.5,1.5v20.914C94.251,197.271,93.58,197.942,92.751,197.942z M84.218,194.942h7.033v-17.914h-7.033V194.942z"
			/>
		<rect x="114.501" y="175.528" class="st4" width="10.033" height="20.914"/>
		<path class="st3" d="M124.535,197.942h-10.033c-0.829,0-1.5-0.671-1.5-1.5v-20.914c0-0.829,0.671-1.5,1.5-1.5h10.033
			c0.829,0,1.5,0.671,1.5,1.5v20.914C126.035,197.271,125.363,197.942,124.535,197.942z M116.001,194.942h7.033v-17.914h-7.033
			V194.942z"/>
		<rect x="130.393" y="175.528" class="st4" width="10.033" height="20.914"/>
		<path class="st3" d="M140.426,197.942h-10.033c-0.829,0-1.5-0.671-1.5-1.5v-20.914c0-0.829,0.671-1.5,1.5-1.5h10.033
			c0.829,0,1.5,0.671,1.5,1.5v20.914C141.926,197.271,141.255,197.942,140.426,197.942z M131.893,194.942h7.033v-17.914h-7.033
			V194.942z"/>
		<rect x="162.176" y="175.528" class="st4" width="10.033" height="20.914"/>
		<path class="st3" d="M172.209,197.942h-10.034c-0.829,0-1.5-0.671-1.5-1.5v-20.914c0-0.829,0.671-1.5,1.5-1.5h10.034
			c0.829,0,1.5,0.671,1.5,1.5v20.914C173.709,197.271,173.038,197.942,172.209,197.942z M163.676,194.942h7.034v-17.914h-7.034
			V194.942z"/>
		<rect x="178.068" y="175.528" class="st4" width="10.033" height="20.914"/>
		<path class="st3" d="M188.101,197.942h-10.034c-0.829,0-1.5-0.671-1.5-1.5v-20.914c0-0.829,0.671-1.5,1.5-1.5h10.034
			c0.829,0,1.5,0.671,1.5,1.5v20.914C189.601,197.271,188.93,197.942,188.101,197.942z M179.567,194.942h7.034v-17.914h-7.034
			V194.942z"/>
		<rect x="193.959" y="175.528" class="st4" width="10.033" height="20.914"/>
		<path class="st3" d="M203.993,197.942h-10.034c-0.829,0-1.5-0.671-1.5-1.5v-20.914c0-0.829,0.671-1.5,1.5-1.5h10.034
			c0.829,0,1.5,0.671,1.5,1.5v20.914C205.493,197.271,204.821,197.942,203.993,197.942z M195.459,194.942h7.034v-17.914h-7.034
			V194.942z"/>
		<path class="st14" d="M226.278,26.22c0,0,3.408,12.659,13.222,13.246c0,0-13.1,4.525-13.321,14.202
			c0,0-2.578-13.572-12.925-14.059C213.254,39.609,225.304,37.784,226.278,26.22z"/>
		<path class="st3" d="M226.178,55.167c-0.713,0-1.335-0.506-1.472-1.217c-0.024-0.124-2.495-12.417-11.522-12.842
			c-0.771-0.037-1.388-0.651-1.428-1.421c-0.04-0.771,0.511-1.445,1.273-1.561c0.441-0.069,10.895-1.817,11.755-12.033
			c0.061-0.725,0.634-1.301,1.359-1.367c0.724-0.062,1.392,0.398,1.583,1.101c0.032,0.116,3.259,11.626,11.864,12.141
			c0.714,0.043,1.297,0.584,1.396,1.292c0.098,0.708-0.319,1.388-0.994,1.623c-0.121,0.042-12.118,4.311-12.313,12.819
			c-0.018,0.767-0.61,1.396-1.374,1.46C226.262,55.166,226.219,55.167,226.178,55.167z M218.436,39.438
			c3.878,1.969,6.231,5.746,7.587,8.877c2.027-4.021,5.942-6.787,8.949-8.427c-4.135-1.842-6.783-5.651-8.334-8.723
			C224.846,35.525,221.367,38.034,218.436,39.438z"/>
		<path class="st14" d="M204.579,43.2c0,0,2.411,8.954,9.352,9.369c0,0-9.266,3.201-9.422,10.045c0,0-1.824-9.6-9.142-9.944
			C195.367,52.671,203.891,51.38,204.579,43.2z"/>
		<path class="st3" d="M204.508,64.115c-0.713,0-1.337-0.507-1.472-1.22c-0.016-0.082-1.704-8.442-7.739-8.726
			c-0.771-0.037-1.388-0.651-1.428-1.421c-0.04-0.771,0.511-1.445,1.273-1.561c0.296-0.047,7.364-1.243,7.942-8.114
			c0.061-0.726,0.635-1.303,1.36-1.368c0.732-0.062,1.392,0.399,1.582,1.101l0,0c0.021,0.079,2.228,7.92,7.994,8.265
			c0.714,0.043,1.299,0.584,1.396,1.293c0.098,0.709-0.32,1.388-0.996,1.622c-0.081,0.028-8.282,2.952-8.412,8.662
			c-0.018,0.767-0.611,1.397-1.376,1.461C204.591,64.114,204.549,64.115,204.508,64.115z M199.989,52.587
			c2.107,1.333,3.523,3.395,4.447,5.28c1.376-2.232,3.515-3.872,5.365-4.972c-2.287-1.27-3.884-3.35-4.941-5.224
			C203.686,49.958,201.845,51.546,199.989,52.587z"/>
		<path class="st8" d="M172.551,130.711v-30.345c-14.262-5.908-30.288-5.908-44.55,0v59.698c14.262-5.908,30.288-5.908,44.55,0
			v-16.109V130.711z"/>
		<path class="st3" d="M172.551,161.564c-0.194,0-0.389-0.038-0.574-0.114c-13.994-5.796-29.407-5.795-43.402,0
			c-0.464,0.191-0.991,0.14-1.408-0.139c-0.417-0.278-0.667-0.746-0.667-1.247v-59.698c0-0.607,0.365-1.154,0.926-1.386
			c14.734-6.104,30.963-6.104,45.699,0c0.56,0.232,0.926,0.779,0.926,1.386v30.345c0,0.829-0.671,1.5-1.5,1.5
			c-0.829,0-1.5-0.671-1.5-1.5v-29.333c-13.436-5.298-28.115-5.297-41.55,0v56.485c13.48-5.016,28.072-5.016,41.55,0v-13.908
			c0-0.829,0.671-1.5,1.5-1.5c0.829,0,1.5,0.671,1.5,1.5v16.109c0,0.501-0.25,0.969-0.667,1.247
			C173.134,161.479,172.843,161.564,172.551,161.564z"/>
		<path class="st8" d="M127.999,100.366c-14.262-5.908-30.288-5.908-44.55,0c0,19.899,0,39.799,0,59.698
			c14.263-5.908,30.288-5.908,44.55,0C127.999,140.165,127.999,120.266,127.999,100.366z"/>
		<path class="st3" d="M83.449,161.564c-0.293,0-0.583-0.085-0.834-0.253c-0.416-0.278-0.666-0.746-0.666-1.247v-59.698
			c0-0.607,0.365-1.154,0.926-1.386c14.735-6.104,30.964-6.103,45.699,0c0.561,0.232,0.926,0.779,0.926,1.386v59.698
			c0,0.501-0.25,0.969-0.667,1.247c-0.417,0.279-0.944,0.33-1.408,0.139c-13.994-5.797-29.409-5.797-43.402,0
			C83.838,161.527,83.644,161.564,83.449,161.564z M105.724,154.101c7.018,0,14.036,1.254,20.775,3.762v-56.485
			c-13.436-5.296-28.114-5.297-41.55,0v56.485C91.688,155.355,98.706,154.101,105.724,154.101z"/>
		<path class="st14" d="M107.991,132.051c1.28,3.545-1.222,8.551-5.59,11.181c-4.368,2.63-8.946,1.889-10.227-1.656
			c-1.28-3.545,1.222-8.551,5.59-11.182C102.132,127.765,106.71,128.507,107.991,132.051z"/>
		<path class="st3" d="M97.247,146.311c-0.929,0-1.822-0.145-2.652-0.439c-1.822-0.646-3.183-1.991-3.831-3.785
			c-1.535-4.249,1.2-9.949,6.226-12.977c2.921-1.759,6.049-2.252,8.58-1.354c1.822,0.646,3.183,1.991,3.831,3.785l0,0
			c1.535,4.249-1.2,9.949-6.227,12.977C101.211,145.701,99.153,146.311,97.247,146.311z M102.93,130.32
			c-1.364,0-2.911,0.469-4.392,1.361c-3.714,2.237-5.983,6.536-4.953,9.387c0.348,0.961,1.025,1.627,2.013,1.978
			c1.659,0.588,3.912,0.179,6.029-1.097c3.714-2.237,5.983-6.536,4.953-9.387c-0.348-0.961-1.025-1.627-2.013-1.978
			C104.069,130.407,103.516,130.32,102.93,130.32z"/>
		<path class="st3" d="M108.31,135.739c-0.829,0-1.5-0.671-1.5-1.5v-25.111c0-0.678,0.455-1.272,1.11-1.448
			c0.653-0.178,1.347,0.108,1.688,0.695c0.161,0.273,4.053,6.732,10.815,5.09c0.808-0.196,1.616,0.3,1.811,1.105
			c0.195,0.805-0.3,1.616-1.105,1.811c-4.812,1.162-8.731-0.804-11.318-3.132v20.99C109.81,135.067,109.139,135.739,108.31,135.739z
			"/>
		
			<ellipse transform="matrix(0.7376 -0.6752 0.6752 0.7376 -54.4303 133.5639)" class="st14" cx="144.634" cy="136.814" rx="9.422" ry="6.559"/>
		<path class="st3" d="M141.797,146.311c-0.929,0-1.823-0.145-2.652-0.439c-1.822-0.647-3.182-1.991-3.83-3.785
			c-1.535-4.249,1.2-9.949,6.227-12.977c2.92-1.76,6.047-2.252,8.58-1.354c1.822,0.646,3.183,1.991,3.83,3.785l0,0
			c1.535,4.249-1.2,9.949-6.226,12.977C145.762,145.701,143.705,146.311,141.797,146.311z M147.481,130.32
			c-1.364,0-2.911,0.469-4.392,1.361c-3.714,2.237-5.983,6.536-4.953,9.387c0.347,0.961,1.024,1.626,2.012,1.978
			c1.659,0.588,3.913,0.179,6.03-1.097c3.714-2.237,5.982-6.536,4.953-9.387l0,0c-0.347-0.961-1.025-1.627-2.013-1.978
			C148.62,130.407,148.067,130.32,147.481,130.32z"/>
		<path class="st3" d="M152.861,135.739c-0.829,0-1.5-0.671-1.5-1.5v-25.111c0-0.678,0.455-1.272,1.11-1.448
			c0.656-0.178,1.347,0.108,1.687,0.695c0.16,0.273,4.05,6.732,10.816,5.09c0.806-0.196,1.616,0.3,1.811,1.105
			c0.195,0.805-0.3,1.616-1.105,1.811c-4.808,1.164-8.73-0.804-11.319-3.133v20.991
			C154.361,135.067,153.689,135.739,152.861,135.739z"/>
		<path class="st6" d="M208,81h-15c16.54,0,30,13.46,30,30v97c0,16.54-13.46,30-30,30h15c16.54,0,30-13.46,30-30v-97
			C238,94.46,224.54,81,208,81z"/>
	</g>
</g>
</svg>
