<?xml version="1.0" encoding="utf-8"?>
<!-- Generator: Adobe Illustrator 22.0.0, SVG Export Plug-In . SVG Version: 6.00 Build 0)  -->
<svg version="1.1" xmlns="http://www.w3.org/2000/svg" xmlns:xlink="http://www.w3.org/1999/xlink" x="0px" y="0px"
	 viewBox="0 0 256 256" style="enable-background:new 0 0 256 256;" xml:space="preserve">
<style type="text/css">
	.st0{display:none;}
	.st1{display:inline;}
	.st2{fill:none;stroke:#6B1D1D;stroke-width:0.5;stroke-miterlimit:10;}
	.st3{fill:#3A312A;}
	.st4{fill:#87796F;}
	.st5{fill:#D5DE58;}
	.st6{fill:#695B51;}
	.st7{fill:#FCE8CB;}
	.st8{fill:#F16C7A;}
	.st9{fill:#8AC6DD;}
	.st10{fill:#DECAAD;}
	.st11{fill:#D6DF58;}
	.st12{fill-rule:evenodd;clip-rule:evenodd;fill:#FCE8CB;}
	.st13{fill:#F5978A;}
	.st14{fill:#D7E057;}
	.st15{fill-rule:evenodd;clip-rule:evenodd;fill:#87796F;}
	.st16{fill:#6CA8BF;}
	.st17{fill:#B9C239;}
	.st18{fill:#D34E5C;}
	.st19{fill:#FAE6CA;}
	.st20{fill:#F8E4C8;}
	.st21{fill:#8AC5DC;}
	.st22{fill:#EF6D7A;}
	.st23{fill:#EB6E7A;}
	.st24{fill:#89C4DB;}
	.st25{fill-rule:evenodd;clip-rule:evenodd;fill:#F16C7A;}
	.st26{fill:#F7E3C7;}
	.st27{fill:#F6E2C6;}
	.st28{fill:#ED6E7A;}
	.st29{fill:#8AC3DA;}
	.st30{fill:#D5DC57;}
	.st31{fill-rule:evenodd;clip-rule:evenodd;fill:#D7E057;}
	.st32{fill-rule:evenodd;clip-rule:evenodd;fill:#F8E4C8;}
	.st33{fill:#D4DB56;}
	.st34{fill:#F59689;}
	.st35{fill:#DDC9AC;}
	.st36{fill:#D24E5C;}
	.st37{fill:#6A5C52;}
	.st38{fill:#6CA6BE;}
	.st39{fill:#B8C136;}
	.st40{fill-rule:evenodd;clip-rule:evenodd;fill:#FAE6CA;}
</style>
<g id="Layer_2" class="st0">
	<g class="st1">
		<g>
			<line class="st2" x1="0" y1="4.829" x2="256" y2="4.829"/>
			<line class="st2" x1="0" y1="16.56" x2="256" y2="16.56"/>
			<line class="st2" x1="0" y1="28.29" x2="256" y2="28.29"/>
			<line class="st2" x1="0" y1="40.021" x2="256" y2="40.021"/>
			<line class="st2" x1="0" y1="51.751" x2="256" y2="51.751"/>
			<line class="st2" x1="0" y1="63.482" x2="256" y2="63.482"/>
			<line class="st2" x1="0" y1="75.213" x2="256" y2="75.213"/>
			<line class="st2" x1="0" y1="86.943" x2="256" y2="86.943"/>
			<line class="st2" x1="0" y1="98.674" x2="256" y2="98.674"/>
			<line class="st2" x1="0" y1="110.404" x2="256" y2="110.404"/>
			<line class="st2" x1="0" y1="122.135" x2="256" y2="122.135"/>
			<line class="st2" x1="0" y1="133.865" x2="256" y2="133.865"/>
			<line class="st2" x1="0" y1="145.596" x2="256" y2="145.596"/>
			<line class="st2" x1="0" y1="157.326" x2="256" y2="157.326"/>
			<line class="st2" x1="0" y1="169.057" x2="256" y2="169.057"/>
			<line class="st2" x1="0" y1="180.788" x2="256" y2="180.788"/>
			<line class="st2" x1="0" y1="192.518" x2="256" y2="192.518"/>
			<line class="st2" x1="0" y1="204.249" x2="256" y2="204.249"/>
			<line class="st2" x1="0" y1="215.979" x2="256" y2="215.979"/>
			<line class="st2" x1="0" y1="227.71" x2="256" y2="227.71"/>
			<line class="st2" x1="0" y1="239.44" x2="256" y2="239.44"/>
			<line class="st2" x1="0" y1="251.171" x2="256" y2="251.171"/>
		</g>
		<g>
			<line class="st2" x1="251.171" y1="0" x2="251.171" y2="256"/>
			<line class="st2" x1="239.44" y1="0" x2="239.44" y2="256"/>
			<line class="st2" x1="227.71" y1="0" x2="227.71" y2="256"/>
			<line class="st2" x1="215.979" y1="0" x2="215.979" y2="256"/>
			<line class="st2" x1="204.249" y1="0" x2="204.249" y2="256"/>
			<line class="st2" x1="192.518" y1="0" x2="192.518" y2="256"/>
			<line class="st2" x1="180.787" y1="0" x2="180.787" y2="256"/>
			<line class="st2" x1="169.057" y1="0" x2="169.057" y2="256"/>
			<line class="st2" x1="157.326" y1="0" x2="157.326" y2="256"/>
			<line class="st2" x1="145.596" y1="0" x2="145.596" y2="256"/>
			<line class="st2" x1="133.865" y1="0" x2="133.865" y2="256"/>
			<line class="st2" x1="122.135" y1="0" x2="122.135" y2="256"/>
			<line class="st2" x1="110.404" y1="0" x2="110.404" y2="256"/>
			<line class="st2" x1="98.674" y1="0" x2="98.674" y2="256"/>
			<line class="st2" x1="86.943" y1="0" x2="86.943" y2="256"/>
			<line class="st2" x1="75.212" y1="0" x2="75.212" y2="256"/>
			<line class="st2" x1="63.482" y1="0" x2="63.482" y2="256"/>
			<line class="st2" x1="51.751" y1="0" x2="51.751" y2="256"/>
			<line class="st2" x1="40.021" y1="0" x2="40.021" y2="256"/>
			<line class="st2" x1="28.29" y1="0" x2="28.29" y2="256"/>
			<line class="st2" x1="16.56" y1="0" x2="16.56" y2="256"/>
			<line class="st2" x1="4.829" y1="0" x2="4.829" y2="256"/>
		</g>
	</g>
</g>
<g id="Layer_1">
	<g>
		<path class="st14" d="M47.786,26.22c0,0,3.408,12.659,13.222,13.246c0,0-13.1,4.525-13.321,14.202c0,0-2.579-13.572-12.925-14.059
			C34.762,39.609,46.812,37.784,47.786,26.22z"/>
		<path class="st3" d="M47.686,55.167c-0.713,0-1.335-0.506-1.472-1.217c-0.024-0.124-2.495-12.417-11.522-12.842
			c-0.771-0.037-1.388-0.651-1.428-1.421c-0.04-0.771,0.511-1.445,1.273-1.561c0.441-0.069,10.894-1.817,11.754-12.033
			c0.061-0.725,0.634-1.301,1.359-1.367c0.737-0.061,1.393,0.399,1.583,1.101c0.032,0.116,3.259,11.626,11.864,12.141
			c0.714,0.043,1.297,0.584,1.396,1.292c0.098,0.708-0.319,1.388-0.994,1.623c-0.121,0.042-12.118,4.311-12.313,12.819
			c-0.018,0.767-0.61,1.396-1.374,1.46C47.77,55.166,47.727,55.167,47.686,55.167z M39.945,39.438
			c3.878,1.969,6.23,5.746,7.587,8.876c2.026-4.021,5.941-6.787,8.949-8.427c-4.134-1.842-6.783-5.651-8.333-8.722
			C46.353,35.525,42.875,38.033,39.945,39.438z"/>
		<path class="st14" d="M26.087,43.2c0,0,2.411,8.954,9.352,9.369c0,0-9.266,3.201-9.422,10.045c0,0-1.824-9.6-9.142-9.944
			C16.875,52.671,25.399,51.38,26.087,43.2z"/>
		<path class="st3" d="M26.016,64.115c-0.713,0-1.337-0.507-1.472-1.22c-0.016-0.082-1.704-8.442-7.739-8.726
			c-0.77-0.037-1.388-0.651-1.428-1.421c-0.04-0.771,0.511-1.445,1.273-1.561c0.296-0.047,7.364-1.243,7.942-8.114
			c0.061-0.726,0.635-1.303,1.36-1.368c0.726-0.064,1.392,0.4,1.582,1.101l0,0c0.021,0.079,2.227,7.92,7.994,8.265
			c0.714,0.043,1.299,0.584,1.396,1.293c0.098,0.709-0.32,1.388-0.996,1.622c-0.081,0.028-8.282,2.952-8.413,8.662
			c-0.018,0.767-0.611,1.397-1.376,1.461C26.099,64.114,26.057,64.115,26.016,64.115z M21.497,52.587
			c2.107,1.333,3.523,3.395,4.447,5.28c1.376-2.232,3.515-3.872,5.365-4.972c-2.287-1.27-3.884-3.35-4.941-5.224
			C25.194,49.958,23.353,51.546,21.497,52.587z"/>
		<path class="st14" d="M26.087,16.543c0,0,2.411,8.954,9.352,9.37c0,0-9.266,3.201-9.422,10.045c0,0-1.824-9.6-9.142-9.944
			C16.875,26.014,25.399,24.722,26.087,16.543z"/>
		<path class="st3" d="M26.016,37.458c-0.713,0-1.337-0.507-1.472-1.22c-0.016-0.082-1.704-8.442-7.739-8.726
			c-0.77-0.037-1.388-0.651-1.428-1.421c-0.04-0.77,0.511-1.445,1.273-1.56c0.296-0.047,7.364-1.243,7.942-8.114
			c0.061-0.726,0.635-1.303,1.36-1.368c0.726-0.065,1.392,0.4,1.582,1.102l0,0c0.021,0.079,2.227,7.92,7.994,8.265
			c0.714,0.043,1.299,0.584,1.396,1.293c0.098,0.709-0.32,1.388-0.996,1.622c-0.081,0.028-8.282,2.952-8.413,8.662
			c-0.018,0.767-0.611,1.397-1.376,1.461C26.099,37.457,26.057,37.458,26.016,37.458z M21.497,25.93
			c2.107,1.332,3.523,3.394,4.447,5.28c1.376-2.232,3.515-3.872,5.365-4.972c-2.287-1.27-3.884-3.35-4.941-5.224
			C25.194,23.3,23.353,24.889,21.497,25.93z"/>
		<path class="st7" d="M133.375,61.742c0.018,0,0.034,0.003,0.052,0.003V38.5h-47.11v65.37l-66.94,115.94
			c-4.96,8.6,1.25,19.36,11.18,19.36h158.64c9.93,0,16.14-10.76,11.17-19.36l-66.94-115.94V75.005c-0.018,0-0.034,0.003-0.052,0.003
			V61.742z"/>
		<path class="st3" d="M189.197,240.67H30.557c-5.204,0-9.866-2.692-12.471-7.202c-2.606-4.511-2.609-9.898-0.008-14.407
			l66.74-115.592V38.5c0-0.829,0.671-1.5,1.5-1.5h47.11c0.829,0,1.5,0.671,1.5,1.5v23.245c0,0.405-0.163,0.793-0.454,1.075
			c-0.29,0.283-0.676,0.439-1.087,0.425c-0.026-0.001-0.076-0.003-0.102-0.006c-0.829,0-1.455-0.67-1.455-1.498
			c0-0.182,0.035-0.356,0.097-0.517V40h-44.11v63.87c0,0.263-0.069,0.522-0.201,0.75l-66.94,115.94
			c-2.059,3.57-2.056,7.834,0.008,11.407c2.062,3.571,5.754,5.703,9.874,5.703h158.64c4.121,0,7.812-2.132,9.873-5.705
			c2.062-3.572,2.061-7.835-0.002-11.405l-66.94-115.94c-0.132-0.228-0.201-0.487-0.201-0.75V75.005h1.448v-1.497
			c0.397-0.017,0.803,0.141,1.093,0.423c0.29,0.282,0.459,0.669,0.459,1.074v28.463l66.739,115.592
			c2.605,4.508,2.606,9.893,0.003,14.405C199.065,237.977,194.403,240.67,189.197,240.67z"/>
		<path class="st9" d="M200.367,219.81L143.317,121H76.427l-57.05,98.81c-4.96,8.6,1.25,19.36,11.18,19.36h158.64
			C199.127,239.17,205.337,228.41,200.367,219.81z"/>
		<path class="st3" d="M189.197,240.67H30.557c-5.204,0-9.866-2.692-12.471-7.202c-2.606-4.511-2.609-9.898-0.008-14.407
			l57.05-98.811c0.268-0.464,0.763-0.75,1.299-0.75h66.891c0.536,0,1.031,0.286,1.299,0.75l57.05,98.81v-0.001
			c2.605,4.508,2.606,9.893,0.003,14.405C199.065,237.977,194.403,240.67,189.197,240.67z M77.293,122.5l-56.617,98.06
			c-2.059,3.57-2.056,7.834,0.008,11.407c2.062,3.571,5.754,5.703,9.874,5.703h158.64c4.121,0,7.812-2.132,9.873-5.705
			c2.062-3.572,2.061-7.835-0.002-11.405v0l-56.617-98.06H77.293z"/>
		<path class="st4" d="M135.441,16.5H84.308c-6.075,0-11,4.925-11,11l0,0c0,6.075,4.925,11,11,11h51.133c6.075,0,11-4.925,11-11l0,0
			C146.441,21.425,141.516,16.5,135.441,16.5z"/>
		<path class="st3" d="M135.441,40H84.308c-6.893,0-12.5-5.607-12.5-12.5S77.415,15,84.308,15h51.133c6.893,0,12.5,5.607,12.5,12.5
			S142.334,40,135.441,40z M84.308,18c-5.238,0-9.5,4.262-9.5,9.5s4.262,9.5,9.5,9.5h51.133c5.238,0,9.5-4.262,9.5-9.5
			s-4.262-9.5-9.5-9.5H84.308z"/>
		<path class="st7" d="M239.125,183.875c0,30.721-24.904,55.625-55.625,55.625c-30.721,0-55.625-24.904-55.625-55.625
			c0-23.269,14.288-43.186,34.572-51.488V95.634h42.096v36.753C224.828,140.689,239.125,160.606,239.125,183.875z"/>
		<path class="st3" d="M183.5,241c-31.499,0-57.125-25.626-57.125-57.125c0-22.958,13.535-43.448,34.572-52.485V95.634
			c0-0.829,0.671-1.5,1.5-1.5h42.096c0.829,0,1.5,0.671,1.5,1.5v35.755c21.042,9.04,34.582,29.53,34.582,52.485
			C240.625,215.374,214.999,241,183.5,241z M163.947,97.134v35.253c0,0.609-0.368,1.158-0.932,1.388
			c-20.436,8.363-33.641,28.029-33.641,50.1c0,29.845,24.28,54.125,54.125,54.125s54.125-24.28,54.125-54.125
			c0-22.069-13.209-41.734-33.65-50.1c-0.563-0.23-0.932-0.779-0.932-1.388V97.134H163.947z"/>
		<path class="st14" d="M169.99,154.333h-33.623c-5.379,8.558-8.492,18.685-8.492,29.542c0,30.721,24.904,55.625,55.625,55.625
			c30.721,0,55.625-24.904,55.625-55.625c0-10.857-3.115-20.983-8.496-29.542H182.76H169.99z"/>
		<path class="st3" d="M183.5,241c-31.499,0-57.125-25.626-57.125-57.125c0-10.77,3.016-21.262,8.722-30.34
			c0.274-0.437,0.754-0.702,1.27-0.702h33.624c0.829,0,1.5,0.671,1.5,1.5s-0.671,1.5-1.5,1.5h-32.787
			c-5.124,8.436-7.828,18.113-7.828,28.042c0,29.845,24.28,54.125,54.125,54.125s54.125-24.28,54.125-54.125
			c0-9.927-2.706-19.605-7.832-28.042H182.76c-0.829,0-1.5-0.671-1.5-1.5s0.671-1.5,1.5-1.5h47.869c0.516,0,0.995,0.265,1.27,0.702
			c5.709,9.079,8.726,19.57,8.726,30.34C240.625,215.374,214.999,241,183.5,241z"/>
		<path class="st4" d="M206.346,75.976h-45.691c-5.429,0-9.829,4.401-9.829,9.829l0,0c0,5.429,4.401,9.829,9.829,9.829h45.691
			c5.429,0,9.829-4.401,9.829-9.829l0,0C216.175,80.377,211.774,75.976,206.346,75.976z"/>
		<path class="st3" d="M206.346,97.134h-45.691c-6.247,0-11.33-5.082-11.33-11.329c0-6.247,5.083-11.329,11.33-11.329h45.691
			c6.247,0,11.33,5.082,11.33,11.329C217.675,92.052,212.593,97.134,206.346,97.134z M160.654,77.476
			c-4.593,0-8.33,3.736-8.33,8.329c0,4.593,3.737,8.329,8.33,8.329h45.691c4.593,0,8.33-3.736,8.33-8.329
			c0-4.593-3.737-8.329-8.33-8.329H160.654z"/>
		<path class="st3" d="M100.414,51.059H86.875c-0.829,0-1.5-0.671-1.5-1.5c0-0.829,0.671-1.5,1.5-1.5h13.539
			c0.829,0,1.5,0.671,1.5,1.5C101.914,50.387,101.242,51.059,100.414,51.059z"/>
		<path class="st3" d="M110.875,66.126h-24c-0.829,0-1.5-0.671-1.5-1.5s0.671-1.5,1.5-1.5h24c0.829,0,1.5,0.671,1.5,1.5
			S111.704,66.126,110.875,66.126z"/>
		<path class="st3" d="M100.414,81.194H86.875c-0.829,0-1.5-0.671-1.5-1.5c0-0.829,0.671-1.5,1.5-1.5h13.539
			c0.829,0,1.5,0.671,1.5,1.5C101.914,80.522,101.242,81.194,100.414,81.194z"/>
		<path class="st3" d="M110.875,96.261h-24c-0.829,0-1.5-0.671-1.5-1.5s0.671-1.5,1.5-1.5h24c0.829,0,1.5,0.671,1.5,1.5
			S111.704,96.261,110.875,96.261z"/>
		<path class="st3" d="M176.414,108.059h-13.539c-0.829,0-1.5-0.671-1.5-1.5s0.671-1.5,1.5-1.5h13.539c0.829,0,1.5,0.671,1.5,1.5
			S177.242,108.059,176.414,108.059z"/>
		<path class="st3" d="M186.875,123.126h-24c-0.829,0-1.5-0.671-1.5-1.5s0.671-1.5,1.5-1.5h24c0.829,0,1.5,0.671,1.5,1.5
			S187.704,123.126,186.875,123.126z"/>
		<path class="st10" d="M227.865,152.83h-15c-5.82-8.32-14.01-15.01-23.89-19.05c-0.56-0.24-0.93-0.78-0.93-1.39v-9.84
			c0.21-0.26,0.33-0.58,0.33-0.92c0-0.35-0.12-0.68-0.33-0.93V97.13h15v35.26c0,0.61,0.37,1.15,0.93,1.39
			C213.855,137.82,222.045,144.51,227.865,152.83z"/>
		<path class="st17" d="M237.625,183.88c0,29.84-24.28,54.12-54.13,54.12c-2.55,0-5.05-0.18-7.5-0.52
			c26.32-3.66,46.63-26.31,46.63-53.6c0-9.93-2.71-19.61-7.83-28.05h15C234.915,164.27,237.625,173.95,237.625,183.88z"/>
		<path class="st6" d="M214.675,85.81c0,4.59-3.74,8.32-8.33,8.32h-15c4.59,0,8.33-3.73,8.33-8.32c0-4.6-3.74-8.33-8.33-8.33h15
			C210.935,77.48,214.675,81.21,214.675,85.81z"/>
	</g>
</g>
</svg>
