<?xml version="1.0" encoding="utf-8"?>
<!-- Generator: Adobe Illustrator 22.0.0, SVG Export Plug-In . SVG Version: 6.00 Build 0)  -->
<svg version="1.1" xmlns="http://www.w3.org/2000/svg" xmlns:xlink="http://www.w3.org/1999/xlink" x="0px" y="0px"
	 viewBox="0 0 256 256" style="enable-background:new 0 0 256 256;" xml:space="preserve">
<style type="text/css">
	.st0{display:none;}
	.st1{display:inline;}
	.st2{fill:none;stroke:#6B1D1D;stroke-width:0.5;stroke-miterlimit:10;}
	.st3{fill:#3A312A;}
	.st4{fill:#87796F;}
	.st5{fill:#D5DE58;}
	.st6{fill:#695B51;}
	.st7{fill:#FCE8CB;}
	.st8{fill:#F16C7A;}
	.st9{fill:#8AC6DD;}
	.st10{fill:#DECAAD;}
	.st11{fill:#D6DF58;}
	.st12{fill-rule:evenodd;clip-rule:evenodd;fill:#FCE8CB;}
	.st13{fill:#F5978A;}
	.st14{fill:#D7E057;}
	.st15{fill-rule:evenodd;clip-rule:evenodd;fill:#87796F;}
	.st16{fill:#6CA8BF;}
	.st17{fill:#B9C239;}
	.st18{fill:#D34E5C;}
	.st19{fill:#FAE6CA;}
	.st20{fill:#F8E4C8;}
	.st21{fill:#8AC5DC;}
	.st22{fill:#EF6D7A;}
	.st23{fill:#EB6E7A;}
	.st24{fill:#89C4DB;}
	.st25{fill-rule:evenodd;clip-rule:evenodd;fill:#F16C7A;}
	.st26{fill:#F7E3C7;}
	.st27{fill:#F6E2C6;}
	.st28{fill:#ED6E7A;}
	.st29{fill:#8AC3DA;}
	.st30{fill:#D5DC57;}
	.st31{fill-rule:evenodd;clip-rule:evenodd;fill:#D7E057;}
	.st32{fill-rule:evenodd;clip-rule:evenodd;fill:#F8E4C8;}
	.st33{fill:#D4DB56;}
	.st34{fill:#F59689;}
	.st35{fill:#DDC9AC;}
	.st36{fill:#D24E5C;}
	.st37{fill:#6A5C52;}
	.st38{fill:#6CA6BE;}
	.st39{fill:#B8C136;}
	.st40{fill-rule:evenodd;clip-rule:evenodd;fill:#FAE6CA;}
</style>
<g id="Layer_2" class="st0">
	<g class="st1">
		<g>
			<line class="st2" x1="0" y1="4.829" x2="256" y2="4.829"/>
			<line class="st2" x1="0" y1="16.56" x2="256" y2="16.56"/>
			<line class="st2" x1="0" y1="28.29" x2="256" y2="28.29"/>
			<line class="st2" x1="0" y1="40.021" x2="256" y2="40.021"/>
			<line class="st2" x1="0" y1="51.751" x2="256" y2="51.751"/>
			<line class="st2" x1="0" y1="63.482" x2="256" y2="63.482"/>
			<line class="st2" x1="0" y1="75.213" x2="256" y2="75.213"/>
			<line class="st2" x1="0" y1="86.943" x2="256" y2="86.943"/>
			<line class="st2" x1="0" y1="98.674" x2="256" y2="98.674"/>
			<line class="st2" x1="0" y1="110.404" x2="256" y2="110.404"/>
			<line class="st2" x1="0" y1="122.135" x2="256" y2="122.135"/>
			<line class="st2" x1="0" y1="133.865" x2="256" y2="133.865"/>
			<line class="st2" x1="0" y1="145.596" x2="256" y2="145.596"/>
			<line class="st2" x1="0" y1="157.326" x2="256" y2="157.326"/>
			<line class="st2" x1="0" y1="169.057" x2="256" y2="169.057"/>
			<line class="st2" x1="0" y1="180.788" x2="256" y2="180.788"/>
			<line class="st2" x1="0" y1="192.518" x2="256" y2="192.518"/>
			<line class="st2" x1="0" y1="204.249" x2="256" y2="204.249"/>
			<line class="st2" x1="0" y1="215.979" x2="256" y2="215.979"/>
			<line class="st2" x1="0" y1="227.71" x2="256" y2="227.71"/>
			<line class="st2" x1="0" y1="239.44" x2="256" y2="239.44"/>
			<line class="st2" x1="0" y1="251.171" x2="256" y2="251.171"/>
		</g>
		<g>
			<line class="st2" x1="251.171" y1="0" x2="251.171" y2="256"/>
			<line class="st2" x1="239.44" y1="0" x2="239.44" y2="256"/>
			<line class="st2" x1="227.71" y1="0" x2="227.71" y2="256"/>
			<line class="st2" x1="215.979" y1="0" x2="215.979" y2="256"/>
			<line class="st2" x1="204.249" y1="0" x2="204.249" y2="256"/>
			<line class="st2" x1="192.518" y1="0" x2="192.518" y2="256"/>
			<line class="st2" x1="180.787" y1="0" x2="180.787" y2="256"/>
			<line class="st2" x1="169.057" y1="0" x2="169.057" y2="256"/>
			<line class="st2" x1="157.326" y1="0" x2="157.326" y2="256"/>
			<line class="st2" x1="145.596" y1="0" x2="145.596" y2="256"/>
			<line class="st2" x1="133.865" y1="0" x2="133.865" y2="256"/>
			<line class="st2" x1="122.135" y1="0" x2="122.135" y2="256"/>
			<line class="st2" x1="110.404" y1="0" x2="110.404" y2="256"/>
			<line class="st2" x1="98.674" y1="0" x2="98.674" y2="256"/>
			<line class="st2" x1="86.943" y1="0" x2="86.943" y2="256"/>
			<line class="st2" x1="75.212" y1="0" x2="75.212" y2="256"/>
			<line class="st2" x1="63.482" y1="0" x2="63.482" y2="256"/>
			<line class="st2" x1="51.751" y1="0" x2="51.751" y2="256"/>
			<line class="st2" x1="40.021" y1="0" x2="40.021" y2="256"/>
			<line class="st2" x1="28.29" y1="0" x2="28.29" y2="256"/>
			<line class="st2" x1="16.56" y1="0" x2="16.56" y2="256"/>
			<line class="st2" x1="4.829" y1="0" x2="4.829" y2="256"/>
		</g>
	</g>
</g>
<g id="Layer_1">
	<g>
		<path class="st14" d="M47.856,26.117c0,0,3.408,12.659,13.222,13.246c0,0-13.1,4.525-13.321,14.202
			c0,0-2.579-13.572-12.925-14.059C34.831,39.506,46.882,37.681,47.856,26.117z"/>
		<path class="st3" d="M47.755,55.064c-0.712,0-1.335-0.506-1.472-1.217c-0.024-0.124-2.495-12.417-11.522-12.842
			c-0.771-0.037-1.388-0.651-1.428-1.421c-0.04-0.771,0.511-1.445,1.273-1.561c0.441-0.069,10.894-1.817,11.754-12.033
			c0.061-0.725,0.634-1.301,1.359-1.367c0.72-0.066,1.393,0.398,1.583,1.102c0.032,0.116,3.259,11.626,11.864,12.141
			c0.714,0.043,1.297,0.584,1.396,1.292c0.098,0.708-0.319,1.388-0.994,1.623c-0.121,0.042-12.118,4.31-12.313,12.819
			c-0.018,0.767-0.61,1.395-1.375,1.459C47.839,55.063,47.797,55.064,47.755,55.064z M40.014,39.335
			c3.878,1.969,6.23,5.746,7.587,8.876c2.027-4.021,5.941-6.787,8.949-8.427c-4.135-1.843-6.783-5.651-8.334-8.723
			C46.423,35.422,42.945,37.93,40.014,39.335z"/>
		<path class="st14" d="M26.157,43.097c0,0,2.411,8.954,9.352,9.369c0,0-9.266,3.201-9.422,10.045c0,0-1.824-9.6-9.142-9.944
			C16.945,52.568,25.468,51.276,26.157,43.097z"/>
		<path class="st3" d="M26.086,64.012c-0.714,0-1.337-0.507-1.473-1.22c-0.016-0.082-1.704-8.442-7.739-8.726
			c-0.77-0.037-1.388-0.651-1.428-1.421c-0.04-0.771,0.511-1.445,1.273-1.561c0.296-0.047,7.364-1.243,7.942-8.114
			c0.061-0.726,0.635-1.303,1.36-1.368c0.73-0.068,1.392,0.399,1.582,1.102l0,0c0.021,0.079,2.227,7.92,7.994,8.265
			c0.714,0.043,1.299,0.584,1.396,1.293c0.098,0.709-0.32,1.388-0.996,1.622c-0.081,0.028-8.282,2.952-8.412,8.662
			c-0.018,0.767-0.611,1.397-1.376,1.461C26.168,64.011,26.127,64.012,26.086,64.012z M21.567,52.484
			c2.107,1.332,3.523,3.394,4.447,5.28c1.376-2.232,3.515-3.872,5.365-4.972c-2.287-1.27-3.884-3.35-4.941-5.224
			C25.264,49.854,23.422,51.443,21.567,52.484z"/>
		<path class="st14" d="M26.157,16.44c0,0,2.411,8.954,9.352,9.37c0,0-9.266,3.201-9.422,10.045c0,0-1.824-9.6-9.142-9.944
			C16.945,25.91,25.468,24.619,26.157,16.44z"/>
		<path class="st3" d="M26.085,37.354c-0.713,0-1.337-0.507-1.472-1.22c-0.016-0.082-1.704-8.442-7.739-8.726
			c-0.77-0.037-1.387-0.651-1.427-1.421c-0.04-0.771,0.511-1.445,1.273-1.561c0.296-0.047,7.364-1.243,7.942-8.113
			c0.061-0.726,0.635-1.303,1.36-1.368c0.73-0.062,1.392,0.399,1.582,1.102l0,0c0.021,0.079,2.227,7.919,7.993,8.264
			c0.715,0.043,1.299,0.584,1.397,1.293c0.098,0.709-0.319,1.388-0.996,1.622c-0.08,0.028-8.282,2.953-8.412,8.662
			c-0.018,0.767-0.611,1.397-1.376,1.461C26.168,37.353,26.127,37.354,26.085,37.354z M21.567,25.827
			c2.107,1.333,3.523,3.394,4.447,5.28c1.376-2.232,3.515-3.872,5.364-4.973c-2.287-1.269-3.884-3.35-4.941-5.223
			C25.264,23.197,23.422,24.786,21.567,25.827z"/>
		<path class="st8" d="M165.386,43.589L33.868,203.474l18.499,18.499L227.011,78.316c16.035-13.19,17.207-37.329,2.526-52.011l0,0
			c-14.682-14.682-38.821-13.509-52.011,2.526l-4.465,5.428L165.386,43.589z"/>
		<path class="st3" d="M52.368,223.473c-0.386,0-0.77-0.148-1.061-0.439l-18.499-18.499c-0.546-0.546-0.588-1.417-0.098-2.014
			L164.227,42.635c0.525-0.639,1.471-0.732,2.111-0.206c0.64,0.526,0.731,1.472,0.205,2.112L35.891,203.376l16.574,16.574
			L226.058,77.158c7.317-6.018,11.776-14.897,12.236-24.36c0.46-9.463-3.119-18.733-9.818-25.432
			c-6.7-6.7-15.982-10.277-25.432-9.818c-9.463,0.46-18.342,4.92-24.36,12.236l-4.466,5.429c-0.525,0.639-1.471,0.733-2.111,0.205
			c-0.64-0.526-0.731-1.471-0.205-2.111l4.466-5.428c6.555-7.969,16.225-12.826,26.531-13.327
			c10.287-0.502,20.4,3.396,27.698,10.693c7.297,7.296,11.194,17.392,10.693,27.699c-0.5,10.306-5.357,19.976-13.326,26.531
			L53.32,223.131C53.042,223.36,52.704,223.473,52.368,223.473z"/>
		<path class="st8" d="M54.894,224.5l-23.552-23.552c-3.222-3.222-8.445-3.222-11.667,0l-1.203,1.203
			c-3.222,3.222-3.222,8.445,0,11.667l23.552,23.552c3.222,3.222,8.445,3.222,11.667,0l1.203-1.203
			C58.116,232.945,58.116,227.722,54.894,224.5z"/>
		<path class="st3" d="M47.857,241.286c-2.604,0-5.053-1.014-6.894-2.856l-23.552-23.552c-3.802-3.801-3.802-9.987,0-13.788
			l1.203-1.203c1.841-1.842,4.29-2.856,6.894-2.856s5.053,1.014,6.895,2.856l23.552,23.552c1.842,1.841,2.856,4.29,2.856,6.894
			c0,2.605-1.014,5.053-2.856,6.894l-1.203,1.203C52.91,240.272,50.462,241.286,47.857,241.286z M25.508,200.031
			c-1.803,0-3.498,0.702-4.773,1.977l-1.203,1.203c-2.632,2.632-2.632,6.914,0,9.546l23.552,23.552
			c1.275,1.275,2.97,1.977,4.773,1.977c1.803,0,3.498-0.702,4.774-1.977l1.203-1.203c2.632-2.632,2.632-6.914,0-9.546
			l-23.552-23.552C29.006,200.733,27.311,200.031,25.508,200.031z"/>
		<path class="st9" d="M239.945,171.897c0,18.676-7.518,35.593-19.696,47.893c-12.337,12.477-29.467,20.203-48.4,20.203
			c-0.104,0-0.202,0-0.305-0.006c-18.969-0.079-36.106-7.915-48.4-20.508c-12.001-12.275-19.39-29.064-19.39-47.581
			s7.39-35.306,19.39-47.581c12.294-12.593,29.431-20.429,48.4-20.508c0.104-0.006,0.201-0.006,0.305-0.006
			c18.932,0,36.063,7.726,48.4,20.203C232.427,136.304,239.945,153.221,239.945,171.897z"/>
		<path class="st3" d="M171.85,241.492c-0.134,0-0.258-0.001-0.391-0.008c-18.702-0.076-36.27-7.52-49.388-20.958
			c-12.779-13.072-19.817-30.342-19.817-48.629c0-18.287,7.038-35.557,19.817-48.63c13.118-13.437,30.687-20.881,49.467-20.959
			c0.049-0.005,0.176-0.006,0.311-0.006c18.732,0,36.3,7.333,49.466,20.648c12.98,13.111,20.129,30.494,20.129,48.948
			s-7.148,35.837-20.129,48.948C208.15,234.159,190.583,241.492,171.85,241.492z M171.786,105.301c-0.05,0-0.1,0.001-0.15,0.003
			c-18.056,0.078-34.865,7.201-47.418,20.059c-12.229,12.51-18.963,29.035-18.963,46.534c0,17.498,6.734,34.024,18.963,46.532
			c12.554,12.859,29.363,19.982,47.333,20.057c0.153,0.006,0.223,0.004,0.3,0.006c17.926,0,34.735-7.017,47.333-19.757
			c12.421-12.546,19.262-29.18,19.262-46.838c0-17.658-6.841-34.292-19.262-46.838c-12.599-12.741-29.408-19.758-47.333-19.758
			C171.828,105.301,171.808,105.301,171.786,105.301z"/>
		<path class="st3" d="M123.144,220.978c-0.404,0-0.791-0.163-1.073-0.452c-12.779-13.072-19.817-30.342-19.817-48.629
			c0-18.287,7.038-35.557,19.817-48.63c0.564-0.578,1.581-0.578,2.146,0c12.779,13.073,19.817,30.343,19.817,48.63
			c0,18.287-7.038,35.557-19.817,48.629C123.935,220.815,123.548,220.978,123.144,220.978z M123.144,126.487
			c-11.548,12.366-17.89,28.431-17.89,45.41s6.342,33.044,17.89,45.41c11.548-12.366,17.89-28.431,17.89-45.41
			S134.692,138.853,123.144,126.487z"/>
		<path class="st3" d="M220.249,221.29c-0.4,0-0.784-0.16-1.066-0.445c-12.98-13.111-20.13-30.495-20.13-48.948
			c0-18.453,7.149-35.837,20.13-48.948c0.564-0.569,1.568-0.569,2.133,0c12.98,13.111,20.129,30.495,20.129,48.948
			s-7.148,35.837-20.129,48.948C221.033,221.129,220.649,221.29,220.249,221.29z M220.249,126.16
			c-11.746,12.411-18.196,28.591-18.196,45.737s6.45,33.326,18.196,45.736c11.745-12.41,18.195-28.59,18.195-45.736
			S231.994,138.57,220.249,126.16z"/>
		<path class="st3" d="M171.544,241.486c-0.828,0-1.5-0.671-1.5-1.5V103.808c0-0.829,0.672-1.5,1.5-1.5c0.828,0,1.5,0.671,1.5,1.5
			v136.179C173.044,240.815,172.372,241.486,171.544,241.486z"/>
		<path class="st3" d="M239.635,173.397h-135.88c-0.829,0-1.5-0.671-1.5-1.5s0.671-1.5,1.5-1.5h135.88c0.828,0,1.5,0.671,1.5,1.5
			S240.463,173.397,239.635,173.397z"/>
		<path class="st4" d="M172.681,93.384c2.247,8.994-4.471,23.855-17.706,37.428c-3.937,4.045-8.449,7.976-13.47,11.601
			c-9.955,7.187-21.934,13.201-35.41,16.568c-13.476,3.367-26.876,3.695-39.041,2.034c-6.136-0.838-11.966-2.184-17.343-3.902
			c-18.063-5.753-30.982-15.709-33.229-24.702c-2.247-8.994,4.471-23.855,17.706-37.428c3.937-4.045,8.449-7.976,13.47-11.601
			c9.955-7.187,21.934-13.201,35.41-16.567c13.476-3.367,26.876-3.695,39.041-2.034c6.136,0.838,11.966,2.185,17.343,3.902
			C157.516,74.435,170.434,84.39,172.681,93.384z"/>
		<path class="st3" d="M81.294,163.478c-4.825,0-9.662-0.325-14.442-0.977c-6.029-0.823-11.95-2.156-17.597-3.96
			c-18.34-5.842-31.776-15.956-34.227-25.767c-2.452-9.812,4.648-25.057,18.086-38.839c4.134-4.247,8.732-8.208,13.666-11.77
			c11.005-7.946,23.092-13.601,35.924-16.806c12.652-3.161,26.35-3.875,39.608-2.065c6.026,0.823,11.947,2.155,17.596,3.96
			c18.34,5.841,31.776,15.955,34.229,25.767c0,0,0,0,0,0.001c2.45,9.812-4.649,25.057-18.087,38.839
			c-4.135,4.247-8.732,8.208-13.666,11.77c-10.849,7.833-23.272,13.645-35.924,16.807C98.369,162.457,89.851,163.478,81.294,163.478
			z M107.867,65.315c-8.312,0-16.581,0.991-24.436,2.953c-12.285,3.069-24.352,8.716-34.896,16.329
			c-4.793,3.46-9.258,7.307-13.273,11.431c-12.534,12.854-19.496,27.329-17.325,36.018c2.171,8.689,15.123,18.188,32.228,23.637
			c5.484,1.752,11.234,3.045,17.091,3.845c12.884,1.759,26.188,1.067,38.474-2.003c12.287-3.07,24.353-8.716,34.896-16.329
			c4.793-3.46,9.259-7.306,13.272-11.431c12.534-12.854,19.496-27.329,17.326-36.018v0c-2.172-8.69-15.124-18.189-32.229-23.637
			c-5.486-1.752-11.236-3.046-17.09-3.845C117.259,65.631,112.556,65.315,107.867,65.315z"/>
		<path class="st14" d="M54.445,110.545l-6.787-27.164c-5.021,3.625-9.533,7.556-13.47,11.601l15.523,62.13
			c5.377,1.718,11.207,3.065,17.343,3.902l-9.392-37.591L54.445,110.545z"/>
		<path class="st3" d="M67.055,162.515c-0.067,0-0.135-0.004-0.203-0.014c-6.028-0.823-11.949-2.156-17.597-3.96
			c-0.495-0.158-0.873-0.561-0.999-1.065l-15.523-62.13c-0.126-0.504,0.018-1.038,0.38-1.41c4.135-4.248,8.733-8.208,13.667-11.771
			c0.403-0.292,0.925-0.365,1.393-0.192c0.468,0.17,0.82,0.562,0.94,1.045l6.787,27.165c0.201,0.804-0.288,1.618-1.091,1.819
			c-0.805,0.202-1.619-0.288-1.819-1.091l-6.244-24.99c-3.89,2.938-7.546,6.129-10.899,9.514l15.116,60.5
			c4.551,1.411,9.278,2.507,14.093,3.27l-8.849-35.416c-0.201-0.804,0.288-1.618,1.091-1.819c0.806-0.202,1.619,0.287,1.819,1.091
			l9.392,37.591c0.121,0.483-0.006,0.994-0.338,1.365C67.885,162.335,67.478,162.515,67.055,162.515z"/>
		<path class="st14" d="M139.452,68.682l15.523,62.13c-3.937,4.045-8.449,7.976-13.47,11.601l-19.397-77.633
			C128.245,65.617,134.076,66.964,139.452,68.682z"/>
		<path class="st3" d="M141.506,143.913c-0.174,0-0.348-0.03-0.515-0.091c-0.468-0.17-0.82-0.562-0.94-1.045l-19.396-77.633
			c-0.121-0.483,0.006-0.994,0.338-1.365c0.333-0.371,0.828-0.553,1.32-0.485c6.026,0.823,11.947,2.155,17.596,3.96
			c0.495,0.158,0.873,0.561,0.999,1.065l15.523,62.13c0.126,0.504-0.018,1.038-0.38,1.41c-4.136,4.249-8.733,8.209-13.667,11.771
			C142.125,143.816,141.816,143.913,141.506,143.913z M124.108,66.59l18.31,73.285c3.891-2.938,7.547-6.129,10.898-9.514
			L138.2,69.86C133.648,68.449,128.921,67.353,124.108,66.59z"/>
		<path class="st3" d="M66.931,121.306c-0.672,0-1.284-0.455-1.454-1.137c-0.201-0.804,0.288-1.618,1.091-1.819l55.3-13.817
			c0.804-0.205,1.619,0.288,1.819,1.091c0.201,0.804-0.288,1.618-1.091,1.819l-55.3,13.817
			C67.173,121.291,67.051,121.306,66.931,121.306z"/>
		<path class="st3" d="M75.54,128.947c-0.672,0-1.284-0.455-1.454-1.137l-4.606-18.433c-0.201-0.804,0.288-1.618,1.091-1.819
			c0.806-0.205,1.619,0.288,1.819,1.091l4.606,18.433c0.201,0.804-0.288,1.618-1.091,1.819
			C75.783,128.932,75.66,128.947,75.54,128.947z"/>
		<path class="st3" d="M86.212,126.28c-0.672,0-1.284-0.455-1.454-1.137l-4.605-18.433c-0.201-0.804,0.288-1.618,1.091-1.819
			c0.806-0.202,1.619,0.288,1.819,1.091l4.606,18.433c0.201,0.804-0.288,1.618-1.091,1.819
			C86.455,126.266,86.332,126.28,86.212,126.28z"/>
		<path class="st3" d="M96.884,123.614c-0.672,0-1.284-0.455-1.454-1.137l-4.605-18.434c-0.201-0.804,0.288-1.618,1.091-1.819
			c0.804-0.203,1.619,0.288,1.819,1.091l4.605,18.434c0.201,0.804-0.288,1.618-1.091,1.819
			C97.126,123.6,97.004,123.614,96.884,123.614z"/>
		<path class="st3" d="M107.556,120.948c-0.672,0-1.284-0.455-1.454-1.137l-4.605-18.434c-0.201-0.804,0.288-1.618,1.091-1.819
			c0.804-0.204,1.618,0.288,1.819,1.091l4.605,18.434c0.201,0.804-0.288,1.618-1.091,1.819
			C107.798,120.933,107.676,120.948,107.556,120.948z"/>
		<path class="st3" d="M118.227,118.281c-0.672,0-1.284-0.455-1.454-1.137l-4.605-18.434c-0.201-0.804,0.288-1.618,1.091-1.819
			c0.805-0.205,1.618,0.288,1.819,1.091l4.605,18.434c0.201,0.804-0.288,1.618-1.091,1.819
			C118.47,118.267,118.348,118.281,118.227,118.281z"/>
		<path class="st18" d="M238.295,52.797c-0.46,9.46-4.92,18.34-12.24,24.36l-34.13,28.07c-3.9-1.17-7.93-1.99-12.03-2.45
			l31.16-25.62c7.32-6.02,11.78-14.9,12.24-24.36c0.46-9.46-3.12-18.73-9.82-25.43c-4.51-4.51-10.19-7.6-16.3-9.01
			c1.92-0.44,3.88-0.71,5.87-0.81c9.44-0.46,18.73,3.12,25.43,9.82S238.755,43.337,238.295,52.797z"/>
		<path class="st16" d="M238.405,170.397h-13.48c-0.28-13.31-4.39-25.68-11.27-36.06c1.96-2.87,4.16-5.59,6.58-8.16
			c0.21,0.22,0.43,0.44,0.64,0.67c0.34,0.38,0.68,0.75,1.02,1.13c0.38,0.43,0.74,0.87,1.11,1.3c0.32,0.39,0.65,0.78,0.96,1.18
			c0.36,0.44,0.7,0.89,1.04,1.34c0.31,0.4,0.61,0.81,0.91,1.22c0.33,0.45,0.65,0.92,0.97,1.38c0.28,0.42,0.57,0.83,0.84,1.26
			c0.31,0.46,0.6,0.94,0.89,1.42c0.27,0.42,0.53,0.85,0.79,1.29c0.28,0.48,0.55,0.97,0.82,1.46l0.72,1.32
			c0.25,0.49,0.5,0.99,0.74,1.49c0.22,0.46,0.45,0.9,0.66,1.36c0.23,0.51,0.45,1.02,0.67,1.53c0.2,0.46,0.4,0.92,0.59,1.38
			c0.21,0.52,0.4,1.05,0.6,1.57c0.18,0.47,0.35,0.93,0.52,1.4c0.18,0.53,0.35,1.07,0.53,1.61c0.15,0.47,0.3,0.94,0.44,1.41
			c0.17,0.55,0.31,1.1,0.46,1.66c0.13,0.47,0.26,0.93,0.37,1.4c0.14,0.58,0.26,1.15,0.39,1.73c0.1,0.46,0.21,0.92,0.3,1.39
			c0.11,0.59,0.21,1.2,0.31,1.79c0.07,0.46,0.16,0.91,0.22,1.36c0.1,0.64,0.16,1.27,0.24,1.91c0.05,0.43,0.11,0.85,0.15,1.29
			c0.07,0.7,0.11,1.41,0.15,2.12c0.03,0.37,0.06,0.73,0.08,1.1C238.395,169.227,238.395,169.817,238.405,170.397z"/>
		<path class="st16" d="M238.405,173.397c-0.01,0.58-0.01,1.17-0.04,1.75c-0.02,0.37-0.05,0.73-0.08,1.1
			c-0.04,0.71-0.08,1.42-0.15,2.12c-0.04,0.44-0.1,0.86-0.15,1.29c-0.08,0.64-0.14,1.27-0.24,1.91c-0.06,0.45-0.15,0.9-0.22,1.36
			c-0.1,0.59-0.2,1.2-0.31,1.79c-0.09,0.47-0.2,0.93-0.3,1.39c-0.13,0.58-0.25,1.15-0.39,1.73c-0.11,0.47-0.24,0.93-0.37,1.4
			c-0.15,0.56-0.29,1.11-0.46,1.66c-0.14,0.47-0.29,0.94-0.44,1.41c-0.18,0.54-0.35,1.08-0.53,1.61c-0.17,0.47-0.34,0.93-0.52,1.4
			c-0.2,0.52-0.39,1.05-0.6,1.57c-0.19,0.46-0.39,0.92-0.59,1.38c-0.22,0.51-0.44,1.02-0.67,1.53c-0.21,0.46-0.44,0.91-0.66,1.36
			c-0.24,0.5-0.49,1-0.74,1.49c-0.24,0.45-0.48,0.89-0.72,1.33c-0.27,0.48-0.54,0.97-0.82,1.45c-0.26,0.44-0.52,0.87-0.79,1.3
			c-0.29,0.47-0.58,0.95-0.89,1.41c-0.27,0.43-0.56,0.85-0.85,1.27c-0.31,0.46-0.63,0.92-0.96,1.37c-0.3,0.41-0.6,0.82-0.91,1.23
			c-0.34,0.44-0.68,0.89-1.03,1.33c-0.32,0.4-0.65,0.79-0.98,1.18c-0.36,0.44-0.72,0.87-1.1,1.29c-0.34,0.39-0.68,0.77-1.03,1.15
			c-0.21,0.22-0.42,0.44-0.63,0.66c-2.42-2.57-4.62-5.29-6.58-8.16c6.88-10.38,10.99-22.75,11.27-36.06H238.405z"/>
		<path class="st16" d="M218.145,219.737c-12.19,11.82-28.11,18.43-45.1,18.73v-0.41c12.42-3.03,23.5-9.47,32.2-18.27
			c2.38-2.41,4.59-4.99,6.59-7.73C213.735,214.747,215.845,217.307,218.145,219.737z"/>
		<path class="st16" d="M218.145,124.057c-2.3,2.43-4.41,4.99-6.31,7.68c-2-2.74-4.21-5.32-6.59-7.73
			c-8.68-8.79-19.74-15.22-32.14-18.25c0.04-0.14,0.08-0.28,0.12-0.42C190.175,105.677,205.995,112.277,218.145,124.057z"/>
	</g>
</g>
</svg>
